<svg width="610.000000" height="350.000000" viewBox="0 0 610 350" fill="none" xmlns="http://www.w3.org/2000/svg" xmlns:xlink="http://www.w3.org/1999/xlink">
	<desc>
			Created with Pixso.
	</desc>
	<defs>
		<clipPath id="clip1_313">
			<rect id="Frame 16" width="610.000000" height="350.000000" fill="white" fill-opacity="0"/>
		</clipPath>
	</defs>
	<rect id="Frame 16" width="610.000000" height="350.000000" fill="#000000" fill-opacity="1.000000"/>
	<g clip-path="url(#clip1_313)">
		<path id="Всегда выполняем ваши запросы" d="M43.1934 170L54.3457 170C61.1035 170 64.1602 166.631 64.1602 162.178C64.1602 157.666 61.0059 155.127 58.125 154.971L58.125 154.688C60.791 154.004 63.0273 152.188 63.0273 148.555C63.0273 144.248 60.0391 140.908 53.8477 140.908L43.1934 140.908L43.1934 170ZM47.5879 166.24L47.5879 156.914L54.0723 156.914C57.5977 156.914 59.8047 159.189 59.8047 161.963C59.8047 164.404 58.1348 166.24 53.916 166.24L47.5879 166.24ZM47.5879 153.496L47.5879 144.648L53.584 144.648C57.0605 144.648 58.7207 146.475 58.7207 148.896C58.7207 151.709 56.416 153.496 53.4668 153.496L47.5879 153.496ZM78.2058 170.439C83.362 170.439 86.7019 167.344 87.1706 163.096L83.0398 163.096C82.5027 165.459 80.6667 166.846 78.2351 166.846C74.6413 166.846 72.3269 163.848 72.3269 159.092C72.3269 154.414 74.6902 151.475 78.2351 151.475C80.9402 151.475 82.5808 153.184 83.0398 155.225L87.1706 155.225C86.7214 150.82 83.1277 147.9 78.1667 147.9C72.0144 147.9 68.0398 152.529 68.0398 159.189C68.0398 165.771 71.8777 170.439 78.2058 170.439ZM101.134 170.439C105.899 170.439 109.259 168.096 110.225 164.541L106.212 163.818C105.44 165.879 103.595 166.934 101.183 166.934C97.5399 166.934 95.0985 164.57 94.9814 160.371L110.499 160.371L110.499 158.867C110.499 150.977 105.782 147.9 100.841 147.9C94.7567 147.9 90.7528 152.529 90.7528 159.229C90.7528 166.006 94.6982 170.439 101.134 170.439ZM95.0009 157.188C95.1669 154.092 97.413 151.406 100.87 151.406C104.161 151.406 106.319 153.848 106.339 157.188L95.0009 157.188ZM129.179 148.184L115.224 148.184L115.224 170L119.413 170L119.413 151.846L129.179 151.846L129.179 148.184ZM129.743 176.289L133.952 176.289L133.952 170L149.166 170L149.166 176.289L153.307 176.289L153.307 166.318L149.957 166.318L149.957 148.184L135.123 148.184L134.45 156.318C133.991 161.816 133.327 164.688 131.52 166.318L129.743 166.318L129.743 176.289ZM136.061 166.318C137.516 164.287 138.053 160.908 138.483 156.318L138.932 151.816L145.807 151.816L145.807 166.318L136.061 166.318ZM163.797 170.479C167.401 170.479 169.432 168.652 170.242 167.021L170.408 167.021L170.408 170L174.559 170L174.559 155.508C174.559 149.16 169.559 147.9 166.092 147.9C162.147 147.9 158.504 149.492 157.088 153.467L161.082 154.375C161.707 152.822 163.299 151.338 166.151 151.338C168.895 151.338 170.301 152.773 170.301 155.244L170.301 155.342C170.301 156.885 168.709 156.865 164.783 157.314C160.653 157.803 156.424 158.877 156.424 163.838C156.424 168.125 159.647 170.479 163.797 170.479ZM164.715 167.07C162.313 167.07 160.584 165.996 160.584 163.896C160.584 161.621 162.596 160.811 165.057 160.479C166.434 160.303 169.705 159.932 170.311 159.316L170.311 162.129C170.311 164.717 168.25 167.07 164.715 167.07ZM190.806 170L201.236 170C206.011 170 208.804 167.588 208.804 164.121C208.804 160.879 206.324 158.896 203.414 158.555C206.089 158.037 207.867 156.562 207.867 154.004C207.867 150.43 204.771 148.184 199.859 148.184L190.806 148.184L190.806 170ZM194.8 166.445L194.8 160.381L201.236 160.381C203.335 160.381 204.605 161.621 204.605 163.652C204.605 165.381 203.335 166.445 201.236 166.445L194.8 166.445ZM194.8 157.275L194.8 151.777L199.859 151.777C202.271 151.777 203.736 152.783 203.736 154.463C203.736 156.211 202.29 157.275 199.898 157.275L194.8 157.275ZM217.618 155.684L217.618 148.184L213.448 148.184L213.448 170L222.979 170C228.321 170 231.309 166.904 231.309 162.803C231.309 158.604 228.321 155.684 222.979 155.684L217.618 155.684ZM234.405 170L238.653 170L238.653 148.184L234.405 148.184L234.405 170ZM217.618 159.346L222.979 159.346C225.431 159.346 227.169 160.82 227.169 162.93C227.169 164.912 225.431 166.338 222.979 166.338L217.618 166.338L217.618 159.346ZM244.357 170L248.498 170L248.498 151.846L258 151.846L258 170L262.16 170L262.16 148.184L244.357 148.184L244.357 170ZM277.041 170.439C283.193 170.439 287.217 165.938 287.217 159.189C287.217 152.402 283.193 147.9 277.041 147.9C270.898 147.9 266.875 152.402 266.875 159.189C266.875 165.938 270.898 170.439 277.041 170.439ZM277.061 166.875C273.037 166.875 271.162 163.369 271.162 159.18C271.162 155 273.037 151.445 277.061 151.445C281.055 151.445 282.93 155 282.93 159.18C282.93 163.369 281.055 166.875 277.061 166.875ZM290.224 170L291.591 170C296.347 170 298.095 166.475 298.437 159.258L298.778 151.846L305.907 151.846L305.907 170L310.067 170L310.067 148.184L294.843 148.184L294.462 157.842C294.189 164.57 293.427 166.318 290.995 166.318L290.214 166.318L290.224 170ZM319.891 148.184L315.721 148.184L315.721 170L319.891 170L319.891 160.938L329.334 160.938L329.334 170L333.485 170L333.485 148.184L329.334 148.184L329.334 157.256L319.891 157.256L319.891 148.184ZM352.162 170L356.146 170L356.146 148.184L346.927 148.184C341.908 148.184 338.832 150.781 338.832 154.883C338.832 157.754 340.345 159.873 342.943 160.85L337.845 170L342.191 170L346.947 161.465L352.162 161.465L352.162 170ZM352.162 158.027L346.644 158.027C344.33 158.027 342.982 156.807 343.002 154.941C342.982 153.066 344.447 151.807 346.927 151.807L352.162 151.807L352.162 158.027ZM371.219 170.439C375.985 170.439 379.344 168.096 380.311 164.541L376.297 163.818C375.526 165.879 373.68 166.934 371.268 166.934C367.625 166.934 365.184 164.57 365.067 160.371L380.584 160.371L380.584 158.867C380.584 150.977 375.867 147.9 370.926 147.9C364.842 147.9 360.838 152.529 360.838 159.229C360.838 166.006 364.783 170.439 371.219 170.439ZM365.086 157.188C365.252 154.092 367.498 151.406 370.955 151.406C374.246 151.406 376.404 153.848 376.424 157.188L365.086 157.188ZM397.555 164.746L390.651 148.184L385.309 148.184L385.309 170L389.479 170L389.479 154.131L395.983 170L399.137 170L405.748 154.189L405.748 170L409.889 170L409.889 148.184L404.606 148.184L397.555 164.746ZM42.8516 210L53.2812 210C58.0566 210 60.8496 207.588 60.8496 204.121C60.8496 200.879 58.3691 198.896 55.459 198.555C58.1348 198.037 59.9121 196.562 59.9121 194.004C59.9121 190.43 56.8164 188.184 51.9043 188.184L42.8516 188.184L42.8516 210ZM46.8457 206.445L46.8457 200.381L53.2812 200.381C55.3809 200.381 56.6504 201.621 56.6504 203.652C56.6504 205.381 55.3809 206.445 53.2812 206.445L46.8457 206.445ZM46.8457 197.275L46.8457 191.777L51.9043 191.777C54.3164 191.777 55.7812 192.783 55.7812 194.463C55.7812 196.211 54.3359 197.275 51.9434 197.275L46.8457 197.275ZM71.851 210.479C75.4545 210.479 77.4858 208.652 78.2963 207.021L78.4624 207.021L78.4624 210L82.6127 210L82.6127 195.508C82.6127 189.16 77.6127 187.9 74.146 187.9C70.2006 187.9 66.5581 189.492 65.142 193.467L69.1362 194.375C69.7612 192.822 71.353 191.338 74.2045 191.338C76.9487 191.338 78.3549 192.773 78.3549 195.244L78.3549 195.342C78.3549 196.885 76.7631 196.865 72.8374 197.314C68.7065 197.803 64.478 198.877 64.478 203.838C64.478 208.125 67.7006 210.479 71.851 210.479ZM72.769 207.07C70.3667 207.07 68.6381 205.996 68.6381 203.896C68.6381 201.621 70.6499 200.811 73.1108 200.479C74.4877 200.303 77.7592 199.932 78.3647 199.316L78.3647 202.129C78.3647 204.717 76.3042 207.07 72.769 207.07ZM88.2635 188.184L88.2635 210L115.842 210L115.842 188.184L111.672 188.184L111.672 206.318L104.133 206.318L104.133 188.184L99.9725 188.184L99.9725 206.318L92.4334 206.318L92.4334 188.184L88.2635 188.184ZM125.658 204.053L125.658 188.184L121.488 188.184L121.488 210L126.107 210L135.677 194.121L135.677 210L139.847 210L139.847 188.184L135.267 188.184L125.658 204.053ZM154.858 204.229C154.985 208.037 158.549 210.439 163.393 210.439C168.364 210.439 171.958 207.939 171.958 203.936C171.958 201.094 170.161 198.994 167.631 198.818L167.631 198.594C169.917 197.939 171.489 196.406 171.489 194.004C171.489 190.43 168.422 187.9 163.569 187.9C158.911 187.9 155.483 190.381 155.395 194.053L159.692 194.053C159.77 192.412 161.46 191.279 163.774 191.279C166.069 191.279 167.397 192.471 167.397 194.248C167.397 195.908 166.206 197.129 163.803 197.129L160.258 197.129L160.258 200.469L163.803 200.469C166.225 200.469 167.768 201.807 167.768 203.779C167.768 206.006 165.795 207.021 163.354 207.021C160.952 207.021 159.331 206.025 159.204 204.229L154.858 204.229ZM182.703 210.479C186.307 210.479 188.338 208.652 189.149 207.021L189.315 207.021L189.315 210L193.465 210L193.465 195.508C193.465 189.16 188.465 187.9 184.998 187.9C181.053 187.9 177.41 189.492 175.994 193.467L179.988 194.375C180.613 192.822 182.205 191.338 185.057 191.338C187.801 191.338 189.207 192.773 189.207 195.244L189.207 195.342C189.207 196.885 187.615 196.865 183.69 197.314C179.559 197.803 175.33 198.877 175.33 203.838C175.33 208.125 178.553 210.479 182.703 210.479ZM183.621 207.07C181.219 207.07 179.49 205.996 179.49 203.896C179.49 201.621 181.502 200.811 183.963 200.479C185.34 200.303 188.612 199.932 189.217 199.316L189.217 202.129C189.217 204.717 187.156 207.07 183.621 207.07ZM199.116 210L203.256 210L203.256 191.846L212.758 191.846L212.758 210L216.919 210L216.919 188.184L199.116 188.184L199.116 210ZM222.61 218.184L226.858 218.184L226.858 206.602L227.112 206.602C227.884 207.998 229.446 210.43 233.421 210.43C238.704 210.43 242.542 206.191 242.542 199.131C242.542 192.061 238.655 187.9 233.382 187.9C229.329 187.9 227.874 190.371 227.112 191.719L226.76 191.719L226.76 188.184L222.61 188.184L222.61 218.184ZM226.78 199.092C226.78 194.531 228.762 191.504 232.473 191.504C236.321 191.504 238.255 194.756 238.255 199.092C238.255 203.467 236.262 206.807 232.473 206.807C228.821 206.807 226.78 203.682 226.78 199.092ZM256.487 210.439C262.639 210.439 266.663 205.938 266.663 199.189C266.663 192.402 262.639 187.9 256.487 187.9C250.344 187.9 246.321 192.402 246.321 199.189C246.321 205.938 250.344 210.439 256.487 210.439ZM256.507 206.875C252.483 206.875 250.608 203.369 250.608 199.18C250.608 195 252.483 191.445 256.507 191.445C260.501 191.445 262.376 195 262.376 199.18C262.376 203.369 260.501 206.875 256.507 206.875ZM280.578 210.439C285.734 210.439 289.074 207.344 289.543 203.096L285.412 203.096C284.875 205.459 283.039 206.846 280.607 206.846C277.013 206.846 274.699 203.848 274.699 199.092C274.699 194.414 277.062 191.475 280.607 191.475C283.312 191.475 284.953 193.184 285.412 195.225L289.543 195.225C289.094 190.82 285.5 187.9 280.539 187.9C274.387 187.9 270.412 192.529 270.412 199.189C270.412 205.771 274.25 210.439 280.578 210.439ZM298.271 195.684L298.271 188.184L294.102 188.184L294.102 210L303.633 210C308.975 210 311.963 206.904 311.963 202.803C311.963 198.604 308.975 195.684 303.633 195.684L298.271 195.684ZM315.059 210L319.307 210L319.307 188.184L315.059 188.184L315.059 210ZM298.271 199.346L303.633 199.346C306.084 199.346 307.822 200.82 307.822 202.93C307.822 204.912 306.084 206.338 303.633 206.338L298.271 206.338L298.271 199.346Z" fill="#FFFFFF" fill-opacity="1.000000" fill-rule="evenodd"/>
		<path id="Разнообразный и богатый опыт консультация с профессионалами из IT играет важную роль в формировании" d="M41.4102 271L42.8164 271L42.8164 266.75L45.3633 266.75C48.0742 266.75 49.2969 265.102 49.2969 263.047C49.2969 260.988 48.0742 259.363 45.3398 259.363L41.4102 259.363L41.4102 271ZM42.8164 265.5L42.8164 260.613L45.2969 260.613C47.1875 260.613 47.9102 261.648 47.9102 263.047C47.9102 264.441 47.1875 265.5 45.3164 265.5L42.8164 265.5ZM53.956 271.203C55.4755 271.203 56.2724 270.387 56.5458 269.816L56.6122 269.816L56.6122 271L57.956 271L57.956 265.25C57.956 262.477 55.8427 262.16 54.7255 262.16C53.4091 262.16 51.9091 262.613 51.2255 264.203L52.4989 264.66C52.7958 264.023 53.495 263.34 54.7724 263.34C56.0067 263.34 56.6122 263.996 56.6122 265.113L56.6122 265.16C56.6122 265.809 55.956 265.75 54.3622 265.953C52.745 266.164 50.9755 266.523 50.9755 268.523C50.9755 270.227 52.2958 271.203 53.956 271.203ZM54.1591 270C53.0927 270 52.3192 269.523 52.3192 268.59C52.3192 267.566 53.2489 267.25 54.2958 267.113C54.8622 267.047 56.3857 266.887 56.6122 266.613L56.6122 267.84C56.6122 268.934 55.7489 270 54.1591 270ZM59.8654 268.773C59.9084 270.203 61.2795 271.184 63.1349 271.184C65.0451 271.184 66.4318 270.16 66.4318 268.566C66.4318 267.477 65.7795 266.59 64.7951 266.523L64.7951 266.434C65.6232 266.176 66.2482 265.574 66.2482 264.59C66.2482 263.211 65.0685 262.16 63.2287 262.16C61.4084 262.16 60.1154 263.16 60.0685 264.566L61.4787 264.566C61.5178 263.848 62.2717 263.34 63.2951 263.34C64.3107 263.34 64.8849 263.859 64.8849 264.637C64.8849 265.363 64.3849 265.91 63.3185 265.91L61.8185 265.91L61.8185 267.113L63.3185 267.113C64.3849 267.113 65.0685 267.699 65.0685 268.566C65.0685 269.562 64.1857 269.977 63.1154 269.977C62.0607 269.977 61.3576 269.562 61.2951 268.773L59.8654 268.773ZM69.6573 262.273L68.3175 262.273L68.3175 271L69.6573 271L69.6573 267.273L73.8409 267.273L73.8409 271L75.1808 271L75.1808 262.273L73.8409 262.273L73.8409 266.023L69.6573 266.023L69.6573 262.273ZM81.1825 271.184C83.5458 271.184 85.1357 269.387 85.1357 266.684C85.1357 263.953 83.5458 262.16 81.1825 262.16C78.8193 262.16 77.2255 263.953 77.2255 266.684C77.2255 269.387 78.8193 271.184 81.1825 271.184ZM81.1825 269.977C79.3857 269.977 78.5693 268.434 78.5693 266.684C78.5693 264.934 79.3857 263.363 81.1825 263.363C82.9755 263.363 83.7958 264.934 83.7958 266.684C83.7958 268.434 82.9755 269.977 81.1825 269.977ZM90.728 271.184C93.0913 271.184 94.6811 269.387 94.6811 266.684C94.6811 263.953 93.0913 262.16 90.728 262.16C88.3647 262.16 86.771 263.953 86.771 266.684C86.771 269.387 88.3647 271.184 90.728 271.184ZM90.728 269.977C88.9311 269.977 88.1147 268.434 88.1147 266.684C88.1147 264.934 88.9311 263.363 90.728 263.363C92.521 263.363 93.3413 264.934 93.3413 266.684C93.3413 268.434 92.521 269.977 90.728 269.977ZM103.203 259C102.777 259.359 102.141 259.359 101.25 259.352C100.961 259.352 100.641 259.352 100.297 259.363C97.6367 259.434 96.3164 261.453 96.3164 265.34L96.3164 266.273C96.3164 269.5 97.8867 271.184 100.227 271.184C102.563 271.184 104.113 269.488 104.113 266.75C104.113 264 102.539 262.547 100.5 262.547C99.3008 262.547 98.1836 263.047 97.5899 264.137L97.4766 264.137C97.6602 261.887 98.5 260.684 100.316 260.613C101.934 260.547 103.09 260.59 103.887 259.816L103.203 259ZM100.227 269.977C98.6367 269.977 97.6602 268.703 97.6602 266.75C97.6875 264.84 98.6484 263.75 100.203 263.75C101.801 263.75 102.773 264.84 102.773 266.75C102.773 268.715 101.809 269.977 100.227 269.977ZM106.158 274.273L107.498 274.273L107.498 269.66L107.615 269.66C107.908 270.137 108.479 271.184 110.158 271.184C112.342 271.184 113.865 269.434 113.865 266.66C113.865 263.91 112.342 262.16 110.135 262.16C108.432 262.16 107.908 263.203 107.615 263.66L107.455 263.66L107.455 262.273L106.158 262.273L106.158 274.273ZM107.479 266.637C107.479 264.684 108.342 263.363 109.979 263.363C111.682 263.363 112.522 264.797 112.522 266.637C112.522 268.5 111.658 269.977 109.979 269.977C108.365 269.977 107.479 268.613 107.479 266.637ZM118.479 271.203C119.998 271.203 120.795 270.387 121.069 269.816L121.135 269.816L121.135 271L122.479 271L122.479 265.25C122.479 262.477 120.365 262.16 119.248 262.16C117.932 262.16 116.432 262.613 115.748 264.203L117.022 264.66C117.319 264.023 118.018 263.34 119.295 263.34C120.529 263.34 121.135 263.996 121.135 265.113L121.135 265.16C121.135 265.809 120.479 265.75 118.885 265.953C117.268 266.164 115.498 266.523 115.498 268.523C115.498 270.227 116.819 271.203 118.479 271.203ZM118.682 270C117.615 270 116.842 269.523 116.842 268.59C116.842 267.566 117.772 267.25 118.819 267.113C119.385 267.047 120.908 266.887 121.135 266.613L121.135 267.84C121.135 268.934 120.272 270 118.682 270ZM124.388 268.773C124.431 270.203 125.802 271.184 127.658 271.184C129.568 271.184 130.955 270.16 130.955 268.566C130.955 267.477 130.302 266.59 129.318 266.523L129.318 266.434C130.146 266.176 130.771 265.574 130.771 264.59C130.771 263.211 129.591 262.16 127.751 262.16C125.931 262.16 124.638 263.16 124.591 264.566L126.001 264.566C126.04 263.848 126.794 263.34 127.818 263.34C128.833 263.34 129.408 263.859 129.408 264.637C129.408 265.363 128.908 265.91 127.841 265.91L126.341 265.91L126.341 267.113L127.841 267.113C128.908 267.113 129.591 267.699 129.591 268.566C129.591 269.562 128.708 269.977 127.638 269.977C126.583 269.977 125.88 269.562 125.818 268.773L124.388 268.773ZM134.18 262.273L132.84 262.273L132.84 271L134.18 271L134.18 267.273L138.364 267.273L138.364 271L139.703 271L139.703 262.273L138.364 262.273L138.364 266.023L134.18 266.023L134.18 262.273ZM143.498 265.434L143.498 262.273L142.158 262.273L142.158 271L145.819 271C147.865 271 148.979 269.75 148.979 268.184C148.979 266.59 147.865 265.434 145.819 265.434L143.498 265.434ZM150.365 271L151.705 271L151.705 262.273L150.365 262.273L150.365 271ZM143.498 266.684L145.819 266.684C146.881 266.684 147.635 267.328 147.635 268.25C147.635 269.129 146.881 269.75 145.819 269.75L143.498 269.75L143.498 266.684ZM155.498 269.023L155.498 262.273L154.158 262.273L154.158 271L155.729 271L159.908 264.25L159.908 271L161.248 271L161.248 262.273L159.705 262.273L155.498 269.023ZM158.819 259.363C158.819 259.953 158.498 260.477 157.705 260.477C156.908 260.477 156.615 259.953 156.615 259.363L155.365 259.363C155.365 260.59 156.272 261.453 157.705 261.453C159.158 261.453 160.069 260.59 160.069 259.363L158.819 259.363ZM169.544 269.023L169.544 262.273L168.204 262.273L168.204 271L169.774 271L173.954 264.25L173.954 271L175.294 271L175.294 262.273L173.751 262.273L169.544 269.023ZM188.726 259C188.3 259.359 187.663 259.359 186.773 259.352C186.484 259.352 186.163 259.352 185.82 259.363C183.159 259.434 181.839 261.453 181.839 265.34L181.839 266.273C181.839 269.5 183.409 271.184 185.749 271.184C188.085 271.184 189.636 269.488 189.636 266.75C189.636 264 188.062 262.547 186.023 262.547C184.824 262.547 183.706 263.047 183.113 264.137L182.999 264.137C183.183 261.887 184.023 260.684 185.839 260.613C187.456 260.547 188.613 260.59 189.409 259.816L188.726 259ZM185.749 269.977C184.159 269.977 183.183 268.703 183.183 266.75C183.21 264.84 184.171 263.75 185.726 263.75C187.324 263.75 188.296 264.84 188.296 266.75C188.296 268.715 187.331 269.977 185.749 269.977ZM195.228 271.184C197.591 271.184 199.181 269.387 199.181 266.684C199.181 263.953 197.591 262.16 195.228 262.16C192.865 262.16 191.271 263.953 191.271 266.684C191.271 269.387 192.865 271.184 195.228 271.184ZM195.228 269.977C193.431 269.977 192.615 268.434 192.615 266.684C192.615 264.934 193.431 263.363 195.228 263.363C197.021 263.363 197.841 264.934 197.841 266.684C197.841 268.434 197.021 269.977 195.228 269.977ZM206.613 262.273L201.227 262.273L201.227 271L202.566 271L202.566 263.523L206.613 263.523L206.613 262.273ZM210.683 271.203C212.203 271.203 213 270.387 213.273 269.816L213.34 269.816L213.34 271L214.683 271L214.683 265.25C214.683 262.477 212.57 262.16 211.453 262.16C210.136 262.16 208.636 262.613 207.953 264.203L209.226 264.66C209.523 264.023 210.222 263.34 211.5 263.34C212.734 263.34 213.34 263.996 213.34 265.113L213.34 265.16C213.34 265.809 212.683 265.75 211.09 265.953C209.472 266.164 207.703 266.523 207.703 268.523C207.703 270.227 209.023 271.203 210.683 271.203ZM210.886 270C209.82 270 209.047 269.523 209.047 268.59C209.047 267.566 209.976 267.25 211.023 267.113C211.59 267.047 213.113 266.887 213.34 266.613L213.34 267.84C213.34 268.934 212.476 270 210.886 270ZM215.954 263.523L218.841 263.523L218.841 271L220.18 271L220.18 263.523L223.044 263.523L223.044 262.273L215.954 262.273L215.954 263.523ZM226.339 265.434L226.339 262.273L224.999 262.273L224.999 271L228.659 271C230.706 271 231.82 269.75 231.82 268.184C231.82 266.59 230.706 265.434 228.659 265.434L226.339 265.434ZM233.206 271L234.546 271L234.546 262.273L233.206 262.273L233.206 271ZM226.339 266.684L228.659 266.684C229.722 266.684 230.476 267.328 230.476 268.25C230.476 269.129 229.722 269.75 228.659 269.75L226.339 269.75L226.339 266.684ZM238.339 269.023L238.339 262.273L236.999 262.273L236.999 271L238.57 271L242.749 264.25L242.749 271L244.089 271L244.089 262.273L242.546 262.273L238.339 269.023ZM241.659 259.363C241.659 259.953 241.339 260.477 240.546 260.477C239.749 260.477 239.456 259.953 239.456 259.363L238.206 259.363C238.206 260.59 239.113 261.453 240.546 261.453C241.999 261.453 242.909 260.59 242.909 259.363L241.659 259.363ZM254.592 271.184C256.955 271.184 258.545 269.387 258.545 266.684C258.545 263.953 256.955 262.16 254.592 262.16C252.228 262.16 250.635 263.953 250.635 266.684C250.635 269.387 252.228 271.184 254.592 271.184ZM254.592 269.977C252.795 269.977 251.978 268.434 251.978 266.684C251.978 264.934 252.795 263.363 254.592 263.363C256.385 263.363 257.205 264.934 257.205 266.684C257.205 268.434 256.385 269.977 254.592 269.977ZM260.59 271L261.93 271L261.93 263.523L266.114 263.523L266.114 271L267.453 271L267.453 262.273L260.59 262.273L260.59 271ZM271.248 265.434L271.248 262.273L269.908 262.273L269.908 271L273.569 271C275.615 271 276.729 269.75 276.729 268.184C276.729 266.59 275.615 265.434 273.569 265.434L271.248 265.434ZM278.115 271L279.455 271L279.455 262.273L278.115 262.273L278.115 271ZM271.248 266.684L273.569 266.684C274.631 266.684 275.385 267.328 275.385 268.25C275.385 269.129 274.631 269.75 273.569 269.75L271.248 269.75L271.248 266.684ZM281.408 263.523L284.295 263.523L284.295 271L285.635 271L285.635 263.523L288.498 263.523L288.498 262.273L281.408 262.273L281.408 263.523ZM294.954 271L296.294 271L296.294 267.316L297.501 267.316L300.364 271L302.091 271L298.524 266.477L302.044 262.273L300.317 262.273L297.18 266.066L296.294 266.066L296.294 262.273L294.954 262.273L294.954 271ZM306.728 271.184C309.091 271.184 310.681 269.387 310.681 266.684C310.681 263.953 309.091 262.16 306.728 262.16C304.365 262.16 302.771 263.953 302.771 266.684C302.771 269.387 304.365 271.184 306.728 271.184ZM306.728 269.977C304.931 269.977 304.115 268.434 304.115 266.684C304.115 264.934 304.931 263.363 306.728 263.363C308.521 263.363 309.341 264.934 309.341 266.684C309.341 268.434 308.521 269.977 306.728 269.977ZM314.066 262.273L312.727 262.273L312.727 271L314.066 271L314.066 267.273L318.25 267.273L318.25 271L319.59 271L319.59 262.273L318.25 262.273L318.25 266.023L314.066 266.023L314.066 262.273ZM325.592 271.184C327.521 271.184 328.795 270 329.021 268.453L327.681 268.453C327.431 269.41 326.635 269.977 325.592 269.977C324.002 269.977 322.978 268.66 322.978 266.637C322.978 264.66 324.021 263.363 325.592 263.363C326.771 263.363 327.478 264.09 327.681 264.887L329.021 264.887C328.795 263.25 327.408 262.16 325.568 262.16C323.205 262.16 321.635 264.023 321.635 266.684C321.635 269.297 323.135 271.184 325.592 271.184ZM331.84 274.273C333.051 274.273 333.902 273.629 334.41 272.273L338.113 262.273L336.66 262.273L334.25 269.227L334.16 269.227L331.75 262.273L330.297 262.273L333.523 271.047L333.273 271.727C332.785 273.059 332.184 273.184 331.203 272.934L330.863 274.113C331 274.184 331.387 274.273 331.84 274.273ZM338.385 271L338.842 271C340.772 271 341.33 269.5 341.455 266.637L341.592 263.523L344.795 263.523L344.795 271L346.135 271L346.135 262.273L340.319 262.273L340.158 266.137C340.045 269.066 339.748 269.75 338.705 269.75L338.385 269.75L338.385 271ZM349.93 265.434L349.93 262.273L348.59 262.273L348.59 271L352.25 271C354.297 271 355.411 269.75 355.411 268.184C355.411 266.59 354.297 265.434 352.25 265.434L349.93 265.434ZM349.93 266.684L352.25 266.684C353.313 266.684 354.067 267.328 354.067 268.25C354.067 269.129 353.313 269.75 352.25 269.75L349.93 269.75L349.93 266.684ZM356.045 263.523L358.931 263.523L358.931 271L360.271 271L360.271 263.523L363.135 263.523L363.135 262.273L356.045 262.273L356.045 263.523ZM367.206 271.203C368.726 271.203 369.522 270.387 369.796 269.816L369.862 269.816L369.862 271L371.206 271L371.206 265.25C371.206 262.477 369.093 262.16 367.976 262.16C366.659 262.16 365.159 262.613 364.476 264.203L365.749 264.66C366.046 264.023 366.745 263.34 368.022 263.34C369.257 263.34 369.862 263.996 369.862 265.113L369.862 265.16C369.862 265.809 369.206 265.75 367.612 265.953C365.995 266.164 364.226 266.523 364.226 268.523C364.226 270.227 365.546 271.203 367.206 271.203ZM367.409 270C366.343 270 365.569 269.523 365.569 268.59C365.569 267.566 366.499 267.25 367.546 267.113C368.112 267.047 369.636 266.887 369.862 266.613L369.862 267.84C369.862 268.934 368.999 270 367.409 270ZM380.522 262.273L379.182 262.273L379.182 269.75L374.998 269.75L374.998 262.273L373.658 262.273L373.658 271L380.408 271L380.408 273.816L381.748 273.816L381.748 269.75L380.522 269.75L380.522 262.273ZM385.157 269.023L385.157 262.273L383.818 262.273L383.818 271L385.388 271L389.568 264.25L389.568 271L390.907 271L390.907 262.273L389.364 262.273L385.157 269.023ZM398.613 271L399.886 271L399.886 262.273L396.297 262.273C394.414 262.273 393.273 263.254 393.273 264.863C393.273 266.062 393.875 266.914 394.925 267.273L392.797 271L394.25 271L396.273 267.453L398.613 267.453L398.613 271ZM398.613 266.203L396.136 266.203C395.187 266.203 394.613 265.699 394.613 264.863C394.613 264.016 395.25 263.5 396.297 263.5L398.613 263.5L398.613 266.203ZM410.387 271.184C412.317 271.184 413.59 270 413.817 268.453L412.477 268.453C412.227 269.41 411.43 269.977 410.387 269.977C408.797 269.977 407.774 268.66 407.774 266.637C407.774 264.66 408.817 263.363 410.387 263.363C411.567 263.363 412.274 264.09 412.477 264.887L413.817 264.887C413.59 263.25 412.203 262.16 410.364 262.16C408 262.16 406.43 264.023 406.43 266.684C406.43 269.297 407.93 271.184 410.387 271.184ZM41.2266 290L42.5664 290L42.5664 282.523L46.75 282.523L46.75 290L48.0898 290L48.0898 281.273L41.2266 281.273L41.2266 290ZM50.5447 293.273L51.8846 293.273L51.8846 288.66L52.0018 288.66C52.2947 289.137 52.8651 290.184 54.5447 290.184C56.7283 290.184 58.2518 288.434 58.2518 285.66C58.2518 282.91 56.7283 281.16 54.5213 281.16C52.8182 281.16 52.2947 282.203 52.0018 282.66L51.8416 282.66L51.8416 281.273L50.5447 281.273L50.5447 293.273ZM51.8651 285.637C51.8651 283.684 52.7283 282.363 54.3651 282.363C56.0682 282.363 56.908 283.797 56.908 285.637C56.908 287.5 56.0447 288.977 54.3651 288.977C52.7518 288.977 51.8651 287.613 51.8651 285.637ZM63.8416 290.184C66.2049 290.184 67.7947 288.387 67.7947 285.684C67.7947 282.953 66.2049 281.16 63.8416 281.16C61.4783 281.16 59.8846 282.953 59.8846 285.684C59.8846 288.387 61.4783 290.184 63.8416 290.184ZM63.8416 288.977C62.0447 288.977 61.2283 287.434 61.2283 285.684C61.2283 283.934 62.0447 282.363 63.8416 282.363C65.6346 282.363 66.4549 283.934 66.4549 285.684C66.4549 287.434 65.6346 288.977 63.8416 288.977ZM73.3871 292.977L74.7269 292.977L74.7269 290.184C77.0902 290.184 78.68 288.387 78.68 285.684C78.68 282.953 77.0902 281.16 74.7269 281.16L74.7269 278.363L73.3871 278.363L73.3871 281.16C71.0238 281.16 69.43 282.953 69.43 285.684C69.43 288.387 71.0238 290.184 73.3871 290.184L73.3871 292.977ZM74.7269 288.977L74.7269 282.363C76.5238 282.363 77.3402 283.934 77.3402 285.684C77.3402 287.434 76.5238 288.977 74.7269 288.977ZM73.3871 288.977C71.5902 288.977 70.7738 287.434 70.7738 285.684C70.7738 283.934 71.5902 282.363 73.3871 282.363L73.3871 288.977ZM84.3867 290.184C86.1602 290.184 87.4531 289.297 87.8633 287.977L86.5664 287.613C86.2266 288.523 85.4375 288.977 84.3867 288.977C82.8125 288.977 81.7266 287.961 81.6641 286.09L88 286.09L88 285.523C88 282.273 86.0664 281.16 84.25 281.16C81.8867 281.16 80.3164 283.023 80.3164 285.703C80.3164 288.387 81.8633 290.184 84.3867 290.184ZM81.6641 284.934C81.7539 283.574 82.7148 282.363 84.25 282.363C85.7031 282.363 86.6367 283.453 86.6367 284.934L81.6641 284.934ZM93.5916 290.184C95.5213 290.184 96.7947 289 97.0213 287.453L95.6815 287.453C95.4315 288.41 94.6346 288.977 93.5916 288.977C92.0018 288.977 90.9783 287.66 90.9783 285.637C90.9783 283.66 92.0213 282.363 93.5916 282.363C94.7713 282.363 95.4783 283.09 95.6815 283.887L97.0213 283.887C96.7947 282.25 95.408 281.16 93.5682 281.16C91.2049 281.16 89.6346 283.023 89.6346 285.684C89.6346 288.297 91.1346 290.184 93.5916 290.184ZM102.523 290.184C104.453 290.184 105.727 289 105.953 287.453L104.613 287.453C104.363 288.41 103.566 288.977 102.523 288.977C100.934 288.977 99.9102 287.66 99.9102 285.637C99.9102 283.66 100.953 282.363 102.523 282.363C103.703 282.363 104.41 283.09 104.613 283.887L105.953 283.887C105.727 282.25 104.34 281.16 102.5 281.16C100.137 281.16 98.5664 283.023 98.5664 285.684C98.5664 288.297 100.066 290.184 102.523 290.184ZM109.248 288.023L109.248 281.273L107.908 281.273L107.908 290L109.479 290L113.658 283.25L113.658 290L114.998 290L114.998 281.273L113.455 281.273L109.248 288.023ZM121.001 290.184C123.364 290.184 124.954 288.387 124.954 285.684C124.954 282.953 123.364 281.16 121.001 281.16C118.637 281.16 117.044 282.953 117.044 285.684C117.044 288.387 118.637 290.184 121.001 290.184ZM121.001 288.977C119.204 288.977 118.387 287.434 118.387 285.684C118.387 283.934 119.204 282.363 121.001 282.363C122.794 282.363 123.614 283.934 123.614 285.684C123.614 287.434 122.794 288.977 121.001 288.977ZM128.339 281.273L126.999 281.273L126.999 290L128.339 290L128.339 286.273L132.523 286.273L132.523 290L133.863 290L133.863 281.273L132.523 281.273L132.523 285.023L128.339 285.023L128.339 281.273ZM138.888 290.203C140.407 290.203 141.204 289.387 141.478 288.816L141.544 288.816L141.544 290L142.888 290L142.888 284.25C142.888 281.477 140.775 281.16 139.657 281.16C138.341 281.16 136.841 281.613 136.157 283.203L137.431 283.66C137.728 283.023 138.427 282.34 139.704 282.34C140.939 282.34 141.544 282.996 141.544 284.113L141.544 284.16C141.544 284.809 140.888 284.75 139.294 284.953C137.677 285.164 135.907 285.523 135.907 287.523C135.907 289.227 137.228 290.203 138.888 290.203ZM139.091 289C138.025 289 137.251 288.523 137.251 287.59C137.251 286.566 138.181 286.25 139.228 286.113C139.794 286.047 141.317 285.887 141.544 285.613L141.544 286.84C141.544 287.934 140.681 289 139.091 289ZM144.567 290L145.024 290C146.953 290 147.512 288.5 147.637 285.637L147.774 282.523L150.977 282.523L150.977 290L152.317 290L152.317 281.273L146.5 281.273L146.34 285.137C146.227 288.066 145.93 288.75 144.887 288.75L144.567 288.75L144.567 290ZM157.342 290.203C158.862 290.203 159.659 289.387 159.932 288.816L159.999 288.816L159.999 290L161.342 290L161.342 284.25C161.342 281.477 159.229 281.16 158.112 281.16C156.795 281.16 155.295 281.613 154.612 283.203L155.885 283.66C156.182 283.023 156.881 282.34 158.159 282.34C159.393 282.34 159.999 282.996 159.999 284.113L159.999 284.16C159.999 284.809 159.342 284.75 157.749 284.953C156.131 285.164 154.362 285.523 154.362 287.523C154.362 289.227 155.682 290.203 157.342 290.203ZM157.545 289C156.479 289 155.706 288.523 155.706 287.59C155.706 286.566 156.635 286.25 157.682 286.113C158.249 286.047 159.772 285.887 159.999 285.613L159.999 286.84C159.999 287.934 159.135 289 157.545 289ZM168.568 288.184L165.568 281.273L163.795 281.273L163.795 290L165.135 290L165.135 283.199L168.021 290L169.115 290L172.002 283.324L172.002 290L173.342 290L173.342 281.273L171.615 281.273L168.568 288.184ZM177.135 288.023L177.135 281.273L175.795 281.273L175.795 290L177.365 290L181.545 283.25L181.545 290L182.885 290L182.885 281.273L181.342 281.273L177.135 288.023ZM191.18 288.023L191.18 281.273L189.84 281.273L189.84 290L191.411 290L195.59 283.25L195.59 290L196.93 290L196.93 281.273L195.387 281.273L191.18 288.023ZM198.843 287.773C198.886 289.203 200.257 290.184 202.112 290.184C204.022 290.184 205.409 289.16 205.409 287.566C205.409 286.477 204.757 285.59 203.772 285.523L203.772 285.434C204.6 285.176 205.225 284.574 205.225 283.59C205.225 282.211 204.046 281.16 202.206 281.16C200.386 281.16 199.093 282.16 199.046 283.566L200.456 283.566C200.495 282.848 201.249 282.34 202.272 282.34C203.288 282.34 203.862 282.859 203.862 283.637C203.862 284.363 203.362 284.91 202.296 284.91L200.796 284.91L200.796 286.113L202.296 286.113C203.362 286.113 204.046 286.699 204.046 287.566C204.046 288.562 203.163 288.977 202.093 288.977C201.038 288.977 200.335 288.562 200.272 287.773L198.843 287.773ZM213.385 278.363L211.978 278.363L211.978 290L213.385 290L213.385 278.363ZM215.569 279.613L219.229 279.613L219.229 290L220.635 290L220.635 279.613L224.295 279.613L224.295 278.363L215.569 278.363L215.569 279.613ZM232.135 288.023L232.135 281.273L230.795 281.273L230.795 290L232.365 290L236.545 283.25L236.545 290L237.885 290L237.885 281.273L236.342 281.273L232.135 288.023ZM245.727 281.273L240.34 281.273L240.34 290L241.68 290L241.68 282.523L245.727 282.523L245.727 281.273ZM247.681 293.273L249.021 293.273L249.021 288.66L249.138 288.66C249.431 289.137 250.001 290.184 251.681 290.184C253.865 290.184 255.388 288.434 255.388 285.66C255.388 282.91 253.865 281.16 251.658 281.16C249.955 281.16 249.431 282.203 249.138 282.66L248.978 282.66L248.978 281.273L247.681 281.273L247.681 293.273ZM249.001 285.637C249.001 283.684 249.865 282.363 251.501 282.363C253.205 282.363 254.044 283.797 254.044 285.637C254.044 287.5 253.181 288.977 251.501 288.977C249.888 288.977 249.001 287.613 249.001 285.637ZM260.001 290.203C261.521 290.203 262.318 289.387 262.591 288.816L262.658 288.816L262.658 290L264.001 290L264.001 284.25C264.001 281.477 261.888 281.16 260.771 281.16C259.455 281.16 257.955 281.613 257.271 283.203L258.544 283.66C258.841 283.023 259.54 282.34 260.818 282.34C262.052 282.34 262.658 282.996 262.658 284.113L262.658 284.16C262.658 284.809 262.001 284.75 260.408 284.953C258.79 285.164 257.021 285.523 257.021 287.523C257.021 289.227 258.341 290.203 260.001 290.203ZM260.205 289C259.138 289 258.365 288.523 258.365 287.59C258.365 286.566 259.294 286.25 260.341 286.113C260.908 286.047 262.431 285.887 262.658 285.613L262.658 286.84C262.658 287.934 261.794 289 260.205 289ZM270.114 290.184C271.887 290.184 273.18 289.297 273.591 287.977L272.294 287.613C271.954 288.523 271.165 288.977 270.114 288.977C268.54 288.977 267.454 287.961 267.391 286.09L273.727 286.09L273.727 285.523C273.727 282.273 271.794 281.16 269.977 281.16C267.614 281.16 266.044 283.023 266.044 285.703C266.044 288.387 267.591 290.184 270.114 290.184ZM267.391 284.934C267.481 283.574 268.442 282.363 269.977 282.363C271.43 282.363 272.364 283.453 272.364 284.934L267.391 284.934ZM274.954 282.523L277.841 282.523L277.841 290L279.18 290L279.18 282.523L282.044 282.523L282.044 281.273L274.954 281.273L274.954 282.523ZM288.499 290L292.613 290C294.386 290 295.456 289 295.456 287.66C295.456 286.289 294.413 285.551 293.456 285.41C294.437 285.203 295.136 284.652 295.136 283.59C295.136 282.199 293.945 281.273 292.07 281.273L288.499 281.273L288.499 290ZM289.773 288.773L289.773 286.09L292.613 286.09C293.534 286.09 294.089 286.641 294.089 287.547C294.089 288.309 293.534 288.773 292.613 288.773L289.773 288.773ZM289.773 284.934L289.773 282.5L292.07 282.5C293.144 282.5 293.796 282.949 293.796 283.684C293.796 284.461 293.144 284.934 292.07 284.934L289.773 284.934ZM300.047 290.203C301.566 290.203 302.363 289.387 302.637 288.816L302.703 288.816L302.703 290L304.047 290L304.047 284.25C304.047 281.477 301.934 281.16 300.816 281.16C299.5 281.16 298 281.613 297.316 283.203L298.59 283.66C298.887 283.023 299.586 282.34 300.863 282.34C302.098 282.34 302.703 282.996 302.703 284.113L302.703 284.16C302.703 284.809 302.047 284.75 300.453 284.953C298.836 285.164 297.066 285.523 297.066 287.523C297.066 289.227 298.387 290.203 300.047 290.203ZM300.25 289C299.184 289 298.41 288.523 298.41 287.59C298.41 286.566 299.34 286.25 300.387 286.113C300.953 286.047 302.477 285.887 302.703 285.613L302.703 286.84C302.703 287.934 301.84 289 300.25 289ZM305.956 290L307.57 290L310.546 286.25L311.226 286.25L311.226 290L312.57 290L312.57 286.25L313.249 286.25L316.206 290L317.82 290L314.296 285.566L317.773 281.273L316.183 281.273L313.273 285L312.57 285L312.57 281.273L311.226 281.273L311.226 285L310.499 285L307.589 281.273L305.999 281.273L309.499 285.566L305.956 290ZM321.066 281.273L319.727 281.273L319.727 290L321.066 290L321.066 286.273L325.25 286.273L325.25 290L326.59 290L326.59 281.273L325.25 281.273L325.25 285.023L321.066 285.023L321.066 281.273ZM329.59 293.273C330.801 293.273 331.652 292.629 332.16 291.273L335.863 281.273L334.41 281.273L332 288.227L331.91 288.227L329.5 281.273L328.047 281.273L331.273 290.047L331.023 290.727C330.535 292.059 329.934 292.184 328.953 291.934L328.613 293.113C328.75 293.184 329.137 293.273 329.59 293.273ZM338.343 281.273L336.999 281.273L336.999 290L338.343 290L338.343 286.34L340.581 286.34C340.819 288.676 342.335 290.184 344.499 290.184C346.862 290.184 348.456 288.387 348.456 285.684C348.456 282.953 346.862 281.16 344.499 281.16C342.311 281.16 340.784 282.699 340.573 285.09L338.343 285.09L338.343 281.273ZM344.499 288.977C342.706 288.977 341.886 287.434 341.886 285.684C341.886 283.934 342.706 282.363 344.499 282.363C346.296 282.363 347.112 283.934 347.112 285.684C347.112 287.434 346.296 288.977 344.499 288.977ZM355.136 293.273L356.475 293.273L356.475 288.66L356.593 288.66C356.886 289.137 357.456 290.184 359.136 290.184C361.319 290.184 362.843 288.434 362.843 285.66C362.843 282.91 361.319 281.16 359.112 281.16C357.409 281.16 356.886 282.203 356.593 282.66L356.433 282.66L356.433 281.273L355.136 281.273L355.136 293.273ZM356.456 285.637C356.456 283.684 357.319 282.363 358.956 282.363C360.659 282.363 361.499 283.797 361.499 285.637C361.499 287.5 360.636 288.977 358.956 288.977C357.343 288.977 356.456 287.613 356.456 285.637ZM368.433 290.184C370.796 290.184 372.386 288.387 372.386 285.684C372.386 282.953 370.796 281.16 368.433 281.16C366.069 281.16 364.475 282.953 364.475 285.684C364.475 288.387 366.069 290.184 368.433 290.184ZM368.433 288.977C366.636 288.977 365.819 287.434 365.819 285.684C365.819 283.934 366.636 282.363 368.433 282.363C370.225 282.363 371.046 283.934 371.046 285.684C371.046 287.434 370.225 288.977 368.433 288.977ZM373.658 290L374.115 290C376.044 290 376.603 288.5 376.728 285.637L376.865 282.523L380.068 282.523L380.068 290L381.408 290L381.408 281.273L375.591 281.273L375.431 285.137C375.318 288.066 375.021 288.75 373.978 288.75L373.658 288.75L373.658 290ZM385.203 284.434L385.203 281.273L383.863 281.273L383.863 290L387.523 290C389.57 290 390.683 288.75 390.683 287.184C390.683 285.59 389.57 284.434 387.523 284.434L385.203 284.434ZM385.203 285.684L387.523 285.684C388.586 285.684 389.339 286.328 389.339 287.25C389.339 288.129 388.586 288.75 387.523 288.75L385.203 288.75L385.203 285.684ZM397.227 290L401.34 290C403.113 290 404.184 289 404.184 287.66C404.184 286.289 403.141 285.551 402.184 285.41C403.164 285.203 403.863 284.652 403.863 283.59C403.863 282.199 402.672 281.273 400.797 281.273L397.227 281.273L397.227 290ZM398.5 288.773L398.5 286.09L401.34 286.09C402.262 286.09 402.816 286.641 402.816 287.547C402.816 288.309 402.262 288.773 401.34 288.773L398.5 288.773ZM398.5 284.934L398.5 282.5L400.797 282.5C401.871 282.5 402.523 282.949 402.523 283.684C402.523 284.461 401.871 284.934 400.797 284.934L398.5 284.934ZM414.251 292.977L415.591 292.977L415.591 290.184C417.954 290.184 419.544 288.387 419.544 285.684C419.544 282.953 417.954 281.16 415.591 281.16L415.591 278.363L414.251 278.363L414.251 281.16C411.887 281.16 410.294 282.953 410.294 285.684C410.294 288.387 411.887 290.184 414.251 290.184L414.251 292.977ZM415.591 288.977L415.591 282.363C417.387 282.363 418.204 283.934 418.204 285.684C418.204 287.434 417.387 288.977 415.591 288.977ZM414.251 288.977C412.454 288.977 411.637 287.434 411.637 285.684C411.637 283.934 412.454 282.363 414.251 282.363L414.251 288.977ZM425.137 290.184C427.5 290.184 429.09 288.387 429.09 285.684C429.09 282.953 427.5 281.16 425.137 281.16C422.774 281.16 421.18 282.953 421.18 285.684C421.18 288.387 422.774 290.184 425.137 290.184ZM425.137 288.977C423.34 288.977 422.524 287.434 422.524 285.684C422.524 283.934 423.34 282.363 425.137 282.363C426.93 282.363 427.75 283.934 427.75 285.684C427.75 287.434 426.93 288.977 425.137 288.977ZM431.136 293.273L432.475 293.273L432.475 288.66L432.593 288.66C432.886 289.137 433.456 290.184 435.136 290.184C437.319 290.184 438.843 288.434 438.843 285.66C438.843 282.91 437.319 281.16 435.112 281.16C433.409 281.16 432.886 282.203 432.593 282.66L432.432 282.66L432.432 281.273L431.136 281.273L431.136 293.273ZM432.456 285.637C432.456 283.684 433.319 282.363 434.956 282.363C436.659 282.363 437.499 283.797 437.499 285.637C437.499 287.5 436.636 288.977 434.956 288.977C433.343 288.977 432.456 287.613 432.456 285.637ZM445.659 288.184L442.659 281.273L440.886 281.273L440.886 290L442.225 290L442.225 283.199L445.112 290L446.206 290L449.093 283.324L449.093 290L450.432 290L450.432 281.273L448.706 281.273L445.659 288.184ZM454.225 288.023L454.225 281.273L452.886 281.273L452.886 290L454.456 290L458.636 283.25L458.636 290L459.975 290L459.975 281.273L458.432 281.273L454.225 288.023ZM462.431 293.273L463.771 293.273L463.771 288.66L463.888 288.66C464.181 289.137 464.751 290.184 466.431 290.184C468.615 290.184 470.138 288.434 470.138 285.66C470.138 282.91 468.615 281.16 466.408 281.16C464.704 281.16 464.181 282.203 463.888 282.66L463.728 282.66L463.728 281.273L462.431 281.273L462.431 293.273ZM463.751 285.637C463.751 283.684 464.615 282.363 466.251 282.363C467.954 282.363 468.794 283.797 468.794 285.637C468.794 287.5 467.931 288.977 466.251 288.977C464.638 288.977 463.751 287.613 463.751 285.637ZM475.728 290.184C478.091 290.184 479.681 288.387 479.681 285.684C479.681 282.953 478.091 281.16 475.728 281.16C473.365 281.16 471.771 282.953 471.771 285.684C471.771 288.387 473.365 290.184 475.728 290.184ZM475.728 288.977C473.931 288.977 473.115 287.434 473.115 285.684C473.115 283.934 473.931 282.363 475.728 282.363C477.521 282.363 478.341 283.934 478.341 285.684C478.341 287.434 477.521 288.977 475.728 288.977ZM481.727 290L485.84 290C487.613 290 488.684 289 488.684 287.66C488.684 286.289 487.641 285.551 486.684 285.41C487.664 285.203 488.363 284.652 488.363 283.59C488.363 282.199 487.172 281.273 485.297 281.273L481.727 281.273L481.727 290ZM483 288.773L483 286.09L485.84 286.09C486.762 286.09 487.316 286.641 487.316 287.547C487.316 288.309 486.762 288.773 485.84 288.773L483 288.773ZM483 284.934L483 282.5L485.297 282.5C486.371 282.5 487.023 282.949 487.023 283.684C487.023 284.461 486.371 284.934 485.297 284.934L483 284.934ZM493.274 290.203C494.794 290.203 495.59 289.387 495.864 288.816L495.93 288.816L495.93 290L497.274 290L497.274 284.25C497.274 281.477 495.161 281.16 494.044 281.16C492.727 281.16 491.227 281.613 490.544 283.203L491.817 283.66C492.114 283.023 492.813 282.34 494.09 282.34C495.325 282.34 495.93 282.996 495.93 284.113L495.93 284.16C495.93 284.809 495.274 284.75 493.68 284.953C492.063 285.164 490.294 285.523 490.294 287.523C490.294 289.227 491.614 290.203 493.274 290.203ZM493.477 289C492.411 289 491.637 288.523 491.637 287.59C491.637 286.566 492.567 286.25 493.614 286.113C494.18 286.047 495.704 285.887 495.93 285.613L495.93 286.84C495.93 287.934 495.067 289 493.477 289ZM501.066 281.273L499.727 281.273L499.727 290L501.066 290L501.066 286.273L505.25 286.273L505.25 290L506.59 290L506.59 281.273L505.25 281.273L505.25 285.023L501.066 285.023L501.066 281.273ZM510.385 288.023L510.385 281.273L509.045 281.273L509.045 290L510.615 290L514.795 283.25L514.795 290L516.135 290L516.135 281.273L514.592 281.273L510.385 288.023ZM519.93 288.023L519.93 281.273L518.59 281.273L518.59 290L520.16 290L524.34 283.25L524.34 290L525.68 290L525.68 281.273L524.137 281.273L519.93 288.023Z" fill="#A8A8A8" fill-opacity="1.000000" fill-rule="evenodd"/>
		<path id="Vector 3" d="M465 0L380.5 55L478 55L422 161L529 103.5L506.5 239L583 137L610 258.5L610 0L465 0Z" fill="#FF3F62" fill-opacity="1.000000" fill-rule="evenodd"/>
		<path id="Vector 4" d="M551.242 0L517 22.3403L556.51 22.3403L533.817 65.3965L577.176 42.0405L568.059 97.0793L599.059 55.6479L610 105L610 0L551.242 0Z" fill="#000000" fill-opacity="1.000000" fill-rule="evenodd"/>
	</g>
</svg>
