<svg width="690.000000" height="350.000000" viewBox="0 0 690 350" fill="none" xmlns="http://www.w3.org/2000/svg" xmlns:xlink="http://www.w3.org/1999/xlink">
	<desc>
			Created with Pixso.
	</desc>
	<defs>
		<clipPath id="clip1_293">
			<rect id="Frame 17" width="690.000000" height="350.000000" fill="white" fill-opacity="0"/>
		</clipPath>
	</defs>
	<g clip-path="url(#clip1_293)">
		<rect id="Rectangle 20" width="690.000000" height="350.000000" fill="#000000" fill-opacity="1.000000"/>
		<circle id="Ellipse 1" cx="512.000000" cy="178.999023" r="51.999996" fill="#FF3F62" fill-opacity="1.000000"/>
		<circle id="Ellipse 2" cx="629.000610" cy="205.001221" r="39.000000" fill="#FF3F62" fill-opacity="1.000000"/>
		<circle id="Ellipse 3" cx="499.000000" cy="62.001221" r="39.000000" fill="#FF3F62" fill-opacity="1.000000"/>
		<circle id="Ellipse 4" cx="564.000366" cy="-2.999023" r="25.999998" fill="#FF3F62" fill-opacity="1.000000"/>
		<circle id="Ellipse 5" cx="707.000366" cy="152.999023" r="25.999998" fill="#FF3F62" fill-opacity="1.000000"/>
		<path id="Vector 2" d="M609.5 126.999L746 68.499L655 -42.001L577 94.499L609.5 126.999Z" fill="#FF3F62" fill-opacity="1.000000" fill-rule="evenodd"/>
		<path id="Профессиональный подход:" d="M65.9375 140.908L43.4961 140.908L43.4961 170L47.8711 170L47.8711 144.658L61.5625 144.658L61.5625 170L65.9375 170L65.9375 140.908ZM72.2976 178.184L76.5456 178.184L76.5456 166.602L76.7995 166.602C77.571 167.998 79.1335 170.43 83.1081 170.43C88.3913 170.43 92.2292 166.191 92.2292 159.131C92.2292 152.061 88.3425 147.9 83.0691 147.9C79.0163 147.9 77.5613 150.371 76.7995 151.719L76.448 151.719L76.448 148.184L72.2976 148.184L72.2976 178.184ZM76.4675 159.092C76.4675 154.531 78.4499 151.504 82.1609 151.504C86.0085 151.504 87.9421 154.756 87.9421 159.092C87.9421 163.467 85.9499 166.807 82.1609 166.807C78.5085 166.807 76.4675 163.682 76.4675 159.092ZM106.175 170.439C112.327 170.439 116.35 165.938 116.35 159.189C116.35 152.402 112.327 147.9 106.175 147.9C100.032 147.9 96.0085 152.402 96.0085 159.189C96.0085 165.938 100.032 170.439 106.175 170.439ZM106.194 166.875C102.171 166.875 100.296 163.369 100.296 159.18C100.296 155 102.171 151.445 106.194 151.445C110.188 151.445 112.063 155 112.063 159.18C112.063 163.369 110.188 166.875 106.194 166.875ZM130.471 177.432L134.719 177.432L134.719 170.439C140.881 170.439 145.07 165.928 145.07 159.189C145.07 152.412 140.881 147.9 134.719 147.9L134.719 140.908L130.471 140.908L130.471 147.9C124.308 147.9 120.099 152.412 120.099 159.189C120.099 165.928 124.308 170.439 130.471 170.439L130.471 177.432ZM130.471 166.865C126.388 166.865 124.406 163.32 124.406 159.189C124.406 155.059 126.388 151.475 130.471 151.475L130.471 166.865ZM134.719 166.865L134.719 151.475C138.791 151.475 140.763 155.059 140.763 159.189C140.763 163.32 138.791 166.865 134.719 166.865ZM159.202 170.439C163.968 170.439 167.327 168.096 168.294 164.541L164.28 163.818C163.509 165.879 161.663 166.934 159.251 166.934C155.608 166.934 153.167 164.57 153.05 160.371L168.567 160.371L168.567 158.867C168.567 150.977 163.85 147.9 158.909 147.9C152.825 147.9 148.821 152.529 148.821 159.229C148.821 166.006 152.766 170.439 159.202 170.439ZM153.069 157.188C153.235 154.092 155.481 151.406 158.938 151.406C162.229 151.406 164.387 153.848 164.407 157.188L153.069 157.188ZM182.481 170.439C187.638 170.439 190.977 167.344 191.446 163.096L187.315 163.096C186.778 165.459 184.942 166.846 182.511 166.846C178.917 166.846 176.602 163.848 176.602 159.092C176.602 154.414 178.966 151.475 182.511 151.475C185.216 151.475 186.856 153.184 187.315 155.225L191.446 155.225C190.997 150.82 187.403 147.9 182.442 147.9C176.29 147.9 172.315 152.529 172.315 159.189C172.315 165.771 176.153 170.439 182.481 170.439ZM205.194 170.439C210.351 170.439 213.691 167.344 214.159 163.096L210.028 163.096C209.491 165.459 207.655 166.846 205.224 166.846C201.63 166.846 199.316 163.848 199.316 159.092C199.316 154.414 201.679 151.475 205.224 151.475C207.929 151.475 209.569 153.184 210.028 155.225L214.159 155.225C213.71 150.82 210.116 147.9 205.155 147.9C199.003 147.9 195.028 152.529 195.028 159.189C195.028 165.771 198.866 170.439 205.194 170.439ZM222.888 164.053L222.888 148.184L218.718 148.184L218.718 170L223.337 170L232.908 154.121L232.908 170L237.077 170L237.077 148.184L232.497 148.184L222.888 164.053ZM251.97 170.439C258.122 170.439 262.146 165.938 262.146 159.189C262.146 152.402 258.122 147.9 251.97 147.9C245.827 147.9 241.804 152.402 241.804 159.189C241.804 165.938 245.827 170.439 251.97 170.439ZM251.99 166.875C247.966 166.875 246.091 163.369 246.091 159.18C246.091 155 247.966 151.445 251.99 151.445C255.984 151.445 257.859 155 257.859 159.18C257.859 163.369 255.984 166.875 251.99 166.875ZM271.041 148.184L266.871 148.184L266.871 170L271.041 170L271.041 160.938L280.485 160.938L280.485 170L284.635 170L284.635 148.184L280.485 148.184L280.485 157.256L271.041 157.256L271.041 148.184ZM296.652 170.479C300.256 170.479 302.287 168.652 303.098 167.021L303.264 167.021L303.264 170L307.414 170L307.414 155.508C307.414 149.16 302.414 147.9 298.947 147.9C295.002 147.9 291.359 149.492 289.943 153.467L293.937 154.375C294.562 152.822 296.154 151.338 299.006 151.338C301.75 151.338 303.156 152.773 303.156 155.244L303.156 155.342C303.156 156.885 301.564 156.865 297.639 157.314C293.508 157.803 289.279 158.877 289.279 163.838C289.279 168.125 292.502 170.479 296.652 170.479ZM297.57 167.07C295.168 167.07 293.439 165.996 293.439 163.896C293.439 161.621 295.451 160.811 297.912 160.479C299.289 160.303 302.56 159.932 303.166 159.316L303.166 162.129C303.166 164.717 301.105 167.07 297.57 167.07ZM311.346 170L312.713 170C317.469 170 319.217 166.475 319.559 159.258L319.901 151.846L327.03 151.846L327.03 170L331.19 170L331.19 148.184L315.965 148.184L315.584 157.842C315.311 164.57 314.549 166.318 312.117 166.318L311.336 166.318L311.346 170ZM341.013 155.684L341.013 148.184L336.843 148.184L336.843 170L346.374 170C351.716 170 354.704 166.904 354.704 162.803C354.704 158.604 351.716 155.684 346.374 155.684L341.013 155.684ZM341.013 159.346L346.374 159.346C348.826 159.346 350.564 160.82 350.564 162.93C350.564 164.912 348.826 166.338 346.374 166.338L341.013 166.338L341.013 159.346ZM363.627 148.184L359.457 148.184L359.457 170L363.627 170L363.627 160.938L373.07 160.938L373.07 170L377.22 170L377.22 148.184L373.07 148.184L373.07 157.256L363.627 157.256L363.627 148.184ZM387.05 155.684L387.05 148.184L382.88 148.184L382.88 170L392.411 170C397.753 170 400.741 166.904 400.741 162.803C400.741 158.604 397.753 155.684 392.411 155.684L387.05 155.684ZM403.837 170L408.085 170L408.085 148.184L403.837 148.184L403.837 170ZM387.05 159.346L392.411 159.346C394.862 159.346 396.601 160.82 396.601 162.93C396.601 164.912 394.862 166.338 392.411 166.338L387.05 166.338L387.05 159.346ZM417.959 164.053L417.959 148.184L413.789 148.184L413.789 170L418.408 170L427.979 154.121L427.979 170L432.148 170L432.148 148.184L427.568 148.184L417.959 164.053ZM425.752 140.791C425.752 142.227 424.961 143.496 422.969 143.496C420.947 143.496 420.195 142.217 420.195 140.791L416.719 140.791C416.719 143.994 419.15 146.191 422.969 146.191C426.816 146.191 429.248 143.994 429.248 140.791L425.752 140.791ZM42.8516 210L46.9922 210L46.9922 191.846L56.4941 191.846L56.4941 210L60.6543 210L60.6543 188.184L42.8516 188.184L42.8516 210ZM75.5353 210.439C81.6877 210.439 85.7111 205.938 85.7111 199.189C85.7111 192.402 81.6877 187.9 75.5353 187.9C69.3928 187.9 65.3693 192.402 65.3693 199.189C65.3693 205.938 69.3928 210.439 75.5353 210.439ZM75.5549 206.875C71.5314 206.875 69.6564 203.369 69.6564 199.18C69.6564 195 71.5314 191.445 75.5549 191.445C79.549 191.445 81.424 195 81.424 199.18C81.424 203.369 79.549 206.875 75.5549 206.875ZM88.3079 216.289L92.5169 216.289L92.5169 210L107.732 210L107.732 216.289L111.872 216.289L111.872 206.318L108.523 206.318L108.523 188.184L93.6887 188.184L93.0149 196.318C92.5559 201.816 91.8919 204.688 90.0852 206.318L88.3079 206.318L88.3079 216.289ZM94.6262 206.318C96.0813 204.287 96.6184 200.908 97.0481 196.318L97.4973 191.816L104.372 191.816L104.372 206.318L94.6262 206.318ZM119.364 188.184L114.706 188.184L121.405 199.092L114.618 210L119.276 210L124.179 201.846L129.091 210L133.739 210L126.874 199.092L133.681 188.184L129.032 188.184L124.179 196.68L119.364 188.184ZM146.359 210.439C152.512 210.439 156.535 205.938 156.535 199.189C156.535 192.402 152.512 187.9 146.359 187.9C140.217 187.9 136.193 192.402 136.193 199.189C136.193 205.938 140.217 210.439 146.359 210.439ZM146.379 206.875C142.355 206.875 140.48 203.369 140.48 199.18C140.48 195 142.355 191.445 146.379 191.445C150.373 191.445 152.248 195 152.248 199.18C152.248 203.369 150.373 206.875 146.379 206.875ZM159.132 216.289L163.341 216.289L163.341 210L178.556 210L178.556 216.289L182.696 216.289L182.696 206.318L179.347 206.318L179.347 188.184L164.513 188.184L163.839 196.318C163.38 201.816 162.716 204.688 160.909 206.318L159.132 206.318L159.132 216.289ZM165.45 206.318C166.905 204.287 167.442 200.908 167.872 196.318L168.321 191.816L175.196 191.816L175.196 206.318L165.45 206.318ZM189.632 194.385C191.175 194.385 192.473 193.125 192.473 191.553C192.473 190 191.175 188.721 189.632 188.721C188.069 188.721 186.79 190 186.79 191.553C186.79 193.125 188.069 194.385 189.632 194.385ZM189.632 210.273C191.175 210.273 192.473 209.004 192.473 207.432C192.473 205.879 191.175 204.6 189.632 204.6C188.069 204.6 186.79 205.879 186.79 207.432C186.79 209.004 188.069 210.273 189.632 210.273Z" fill="#FFFFFF" fill-opacity="1.000000" fill-rule="evenodd"/>
		<path id="Рекламные агентства имеют опыт работы в разных отраслях и знают, как эффективно привлекать целевую аудиторию." d="M41.5864 272L43.1685 272L43.1685 267.219L46.0337 267.219C49.0835 267.219 50.459 265.364 50.459 263.053C50.459 260.737 49.0835 258.909 46.0073 258.909L41.5864 258.909L41.5864 272ZM43.1685 265.812L43.1685 260.315L45.959 260.315C48.0859 260.315 48.8989 261.479 48.8989 263.053C48.8989 264.622 48.0859 265.812 45.981 265.812L43.1685 265.812ZM56.8243 272.207C58.8194 272.207 60.274 271.209 60.7354 269.724L59.2764 269.315C58.8941 270.339 58.0064 270.849 56.8243 270.849C55.0533 270.849 53.8316 269.706 53.7613 267.601L60.8892 267.601L60.8892 266.964C60.8892 263.308 58.7139 262.055 56.6705 262.055C54.0118 262.055 52.2452 264.151 52.2452 267.166C52.2452 270.185 53.9854 272.207 56.8243 272.207ZM53.7613 266.3C53.8624 264.771 54.9434 263.409 56.6705 263.409C58.3052 263.409 59.3555 264.635 59.3555 266.3L53.7613 266.3ZM63.1895 272L64.6969 272L64.6969 267.856L66.0548 267.856L69.276 272L71.2184 272L67.2061 266.911L71.1656 262.183L69.2232 262.183L65.6944 266.45L64.6969 266.45L64.6969 262.183L63.1895 262.183L63.1895 272ZM71.9842 272L72.4984 272C74.6693 272 75.2977 270.312 75.4383 267.091L75.5921 263.589L79.1956 263.589L79.1956 272L80.7029 272L80.7029 262.183L74.1595 262.183L73.9793 266.529C73.8519 269.825 73.5179 270.594 72.3445 270.594L71.9842 270.594L71.9842 272ZM86.3567 272.229C88.0662 272.229 88.9627 271.31 89.2703 270.668L89.345 270.668L89.345 272L90.8567 272L90.8567 265.531C90.8567 262.411 88.4793 262.055 87.2224 262.055C85.7415 262.055 84.054 262.565 83.2849 264.354L84.7175 264.868C85.0515 264.151 85.8382 263.382 87.2752 263.382C88.6638 263.382 89.345 264.121 89.345 265.377L89.345 265.43C89.345 266.16 88.6067 266.094 86.8137 266.322C84.9944 266.56 83.0037 266.964 83.0037 269.214C83.0037 271.13 84.489 272.229 86.3567 272.229ZM86.5852 270.875C85.3855 270.875 84.5154 270.339 84.5154 269.289C84.5154 268.137 85.5613 267.781 86.739 267.627C87.3762 267.553 89.0901 267.373 89.345 267.065L89.345 268.445C89.345 269.675 88.3738 270.875 86.5852 270.875ZM98.9858 269.957L95.6108 262.183L93.6157 262.183L93.6157 272L95.123 272L95.123 264.349L98.3706 272L99.601 272L102.849 264.49L102.849 272L104.356 272L104.356 262.183L102.414 262.183L98.9858 269.957ZM108.623 262.183L107.116 262.183L107.116 272L108.623 272L108.623 267.808L113.33 267.808L113.33 272L114.837 272L114.837 262.183L113.33 262.183L113.33 266.401L108.623 266.401L108.623 262.183ZM119.106 265.738L119.106 262.183L117.599 262.183L117.599 272L121.716 272C124.019 272 125.271 270.594 125.271 268.832C125.271 267.039 124.019 265.738 121.716 265.738L119.106 265.738ZM126.832 272L128.339 272L128.339 262.183L126.832 262.183L126.832 272ZM119.106 267.144L121.716 267.144C122.912 267.144 123.76 267.869 123.76 268.906C123.76 269.895 122.912 270.594 121.716 270.594L119.106 270.594L119.106 267.144ZM135.216 272.207C137.211 272.207 138.666 271.209 139.127 269.724L137.668 269.315C137.286 270.339 136.398 270.849 135.216 270.849C133.445 270.849 132.224 269.706 132.153 267.601L139.281 267.601L139.281 266.964C139.281 263.308 137.106 262.055 135.062 262.055C132.404 262.055 130.637 264.151 130.637 267.166C130.637 270.185 132.377 272.207 135.216 272.207ZM132.153 266.3C132.254 264.771 133.335 263.409 135.062 263.409C136.697 263.409 137.748 264.635 137.748 266.3L132.153 266.3ZM149.536 272.229C151.245 272.229 152.142 271.31 152.449 270.668L152.524 270.668L152.524 272L154.036 272L154.036 265.531C154.036 262.411 151.658 262.055 150.401 262.055C148.92 262.055 147.233 262.565 146.464 264.354L147.897 264.868C148.231 264.151 149.017 263.382 150.454 263.382C151.843 263.382 152.524 264.121 152.524 265.377L152.524 265.43C152.524 266.16 151.786 266.094 149.993 266.322C148.173 266.56 146.183 266.964 146.183 269.214C146.183 271.13 147.668 272.229 149.536 272.229ZM149.764 270.875C148.564 270.875 147.694 270.339 147.694 269.289C147.694 268.137 148.74 267.781 149.918 267.627C150.555 267.553 152.269 267.373 152.524 267.065L152.524 268.445C152.524 269.675 151.553 270.875 149.764 270.875ZM162.855 262.183L156.795 262.183L156.795 272L158.302 272L158.302 263.589L162.855 263.589L162.855 262.183ZM168.659 272.207C170.655 272.207 172.109 271.209 172.571 269.724L171.112 269.315C170.729 270.339 169.842 270.849 168.659 270.849C166.888 270.849 165.667 269.706 165.596 267.601L172.724 267.601L172.724 266.964C172.724 263.308 170.549 262.055 168.506 262.055C165.847 262.055 164.08 264.151 164.08 267.166C164.08 270.185 165.821 272.207 168.659 272.207ZM165.596 266.3C165.698 264.771 166.779 263.409 168.506 263.409C170.14 263.409 171.191 264.635 171.191 266.3L165.596 266.3ZM176.532 262.183L175.025 262.183L175.025 272L176.532 272L176.532 267.808L181.239 267.808L181.239 272L182.746 272L182.746 262.183L181.239 262.183L181.239 266.401L176.532 266.401L176.532 262.183ZM184.178 263.589L187.426 263.589L187.426 272L188.933 272L188.933 263.589L192.154 263.589L192.154 262.183L184.178 262.183L184.178 263.589ZM197.833 272.207C200.004 272.207 201.437 270.875 201.692 269.135L200.184 269.135C199.903 270.211 199.007 270.849 197.833 270.849C196.045 270.849 194.893 269.368 194.893 267.091C194.893 264.868 196.067 263.409 197.833 263.409C199.16 263.409 199.956 264.226 200.184 265.123L201.692 265.123C201.437 263.281 199.877 262.055 197.807 262.055C195.148 262.055 193.382 264.151 193.382 267.144C193.382 270.084 195.069 272.207 197.833 272.207ZM203.124 263.589L206.372 263.589L206.372 272L207.879 272L207.879 263.589L211.1 263.589L211.1 262.183L203.124 262.183L203.124 263.589ZM213.3 272L217.928 272C219.923 272 221.127 270.875 221.127 269.368C221.127 267.825 219.954 266.995 218.877 266.836C219.98 266.604 220.767 265.984 220.767 264.789C220.767 263.224 219.426 262.183 217.317 262.183L213.3 262.183L213.3 272ZM214.733 270.62L214.733 267.601L217.928 267.601C218.965 267.601 219.589 268.221 219.589 269.24C219.589 270.097 218.965 270.62 217.928 270.62L214.733 270.62ZM214.733 266.3L214.733 263.562L217.317 263.562C218.525 263.562 219.259 264.068 219.259 264.894C219.259 265.769 218.525 266.3 217.317 266.3L214.733 266.3ZM226.291 272.229C228.001 272.229 228.897 271.31 229.205 270.668L229.28 270.668L229.28 272L230.791 272L230.791 265.531C230.791 262.411 228.414 262.055 227.157 262.055C225.676 262.055 223.989 262.565 223.22 264.354L224.652 264.868C224.986 264.151 225.773 263.382 227.21 263.382C228.598 263.382 229.28 264.121 229.28 265.377L229.28 265.43C229.28 266.16 228.541 266.094 226.748 266.322C224.929 266.56 222.938 266.964 222.938 269.214C222.938 271.13 224.424 272.229 226.291 272.229ZM226.52 270.875C225.32 270.875 224.45 270.339 224.45 269.289C224.45 268.137 225.496 267.781 226.674 267.627C227.311 267.553 229.025 267.373 229.28 267.065L229.28 268.445C229.28 269.675 228.308 270.875 226.52 270.875ZM240.12 269.776L240.12 262.183L238.613 262.183L238.613 272L240.379 272L245.082 264.406L245.082 272L246.589 272L246.589 262.183L244.853 262.183L240.12 269.776ZM254.722 269.957L251.347 262.183L249.351 262.183L249.351 272L250.859 272L250.859 264.349L254.106 272L255.337 272L258.584 264.49L258.584 272L260.092 272L260.092 262.183L258.149 262.183L254.722 269.957ZM266.969 272.207C268.964 272.207 270.419 271.209 270.88 269.724L269.421 269.315C269.039 270.339 268.151 270.849 266.969 270.849C265.198 270.849 263.976 269.706 263.906 267.601L271.034 267.601L271.034 266.964C271.034 263.308 268.859 262.055 266.815 262.055C264.157 262.055 262.39 264.151 262.39 267.166C262.39 270.185 264.13 272.207 266.969 272.207ZM263.906 266.3C264.007 264.771 265.088 263.409 266.815 263.409C268.45 263.409 269.5 264.635 269.5 266.3L263.906 266.3ZM274.13 262.183L272.618 262.183L272.618 272L274.13 272L274.13 267.882L276.648 267.882C276.916 270.51 278.621 272.207 281.056 272.207C283.714 272.207 285.507 270.185 285.507 267.144C285.507 264.072 283.714 262.055 281.056 262.055C278.595 262.055 276.876 263.787 276.639 266.476L274.13 266.476L274.13 262.183ZM281.056 270.849C279.039 270.849 278.116 269.113 278.116 267.144C278.116 265.175 279.039 263.409 281.056 263.409C283.077 263.409 283.996 265.175 283.996 267.144C283.996 269.113 283.077 270.849 281.056 270.849ZM286.681 263.589L289.929 263.589L289.929 272L291.436 272L291.436 263.589L294.657 263.589L294.657 262.183L286.681 262.183L286.681 263.589ZM305.91 272.207C308.569 272.207 310.357 270.185 310.357 267.144C310.357 264.072 308.569 262.055 305.91 262.055C303.251 262.055 301.458 264.072 301.458 267.144C301.458 270.185 303.251 272.207 305.91 272.207ZM305.91 270.849C303.888 270.849 302.97 269.113 302.97 267.144C302.97 265.175 303.888 263.409 305.91 263.409C307.927 263.409 308.85 265.175 308.85 267.144C308.85 269.113 307.927 270.849 305.91 270.849ZM312.658 272L314.166 272L314.166 263.589L318.872 263.589L318.872 272L320.379 272L320.379 262.183L312.658 262.183L312.658 272ZM324.649 265.738L324.649 262.183L323.141 262.183L323.141 272L327.259 272C329.562 272 330.814 270.594 330.814 268.832C330.814 267.039 329.562 265.738 327.259 265.738L324.649 265.738ZM332.374 272L333.881 272L333.881 262.183L332.374 262.183L332.374 272ZM324.649 267.144L327.259 267.144C328.454 267.144 329.302 267.869 329.302 268.906C329.302 269.895 328.454 270.594 327.259 270.594L324.649 270.594L324.649 267.144ZM336.079 263.589L339.326 263.589L339.326 272L340.834 272L340.834 263.589L344.055 263.589L344.055 262.183L336.079 262.183L336.079 263.589ZM351.317 275.683L352.825 275.683L352.825 270.493L352.957 270.493C353.286 271.029 353.928 272.207 355.817 272.207C358.274 272.207 359.988 270.238 359.988 267.118C359.988 264.024 358.274 262.055 355.791 262.055C353.875 262.055 353.286 263.229 352.957 263.743L352.776 263.743L352.776 262.183L351.317 262.183L351.317 275.683ZM352.803 267.091C352.803 264.894 353.774 263.409 355.615 263.409C357.531 263.409 358.476 265.021 358.476 267.091C358.476 269.188 357.505 270.849 355.615 270.849C353.8 270.849 352.803 269.315 352.803 267.091ZM365.178 272.229C366.887 272.229 367.784 271.31 368.091 270.668L368.166 270.668L368.166 272L369.678 272L369.678 265.531C369.678 262.411 367.3 262.055 366.043 262.055C364.562 262.055 362.875 262.565 362.106 264.354L363.539 264.868C363.873 264.151 364.659 263.382 366.096 263.382C367.485 263.382 368.166 264.121 368.166 265.377L368.166 265.43C368.166 266.16 367.428 266.094 365.635 266.322C363.815 266.56 361.825 266.964 361.825 269.214C361.825 271.13 363.31 272.229 365.178 272.229ZM365.406 270.875C364.207 270.875 363.336 270.339 363.336 269.289C363.336 268.137 364.382 267.781 365.56 267.627C366.197 267.553 367.911 267.373 368.166 267.065L368.166 268.445C368.166 269.675 367.195 270.875 365.406 270.875ZM379.723 258.5C379.244 258.904 378.528 258.904 377.526 258.896C377.2 258.896 376.84 258.896 376.453 258.909C373.461 258.988 371.975 261.26 371.975 265.632L371.975 266.683C371.975 270.312 373.742 272.207 376.374 272.207C379.002 272.207 380.747 270.299 380.747 267.219C380.747 264.125 378.976 262.49 376.682 262.49C375.333 262.49 374.076 263.053 373.408 264.279L373.28 264.279C373.487 261.748 374.432 260.394 376.475 260.315C378.295 260.24 379.595 260.289 380.492 259.418L379.723 258.5ZM376.374 270.849C374.586 270.849 373.487 269.416 373.487 267.219C373.518 265.07 374.599 263.844 376.348 263.844C378.145 263.844 379.239 265.07 379.239 267.219C379.239 269.429 378.154 270.849 376.374 270.849ZM387.038 272.207C389.696 272.207 391.485 270.185 391.485 267.144C391.485 264.072 389.696 262.055 387.038 262.055C384.379 262.055 382.586 264.072 382.586 267.144C382.586 270.185 384.379 272.207 387.038 272.207ZM387.038 270.849C385.016 270.849 384.098 269.113 384.098 267.144C384.098 265.175 385.016 263.409 387.038 263.409C389.055 263.409 389.978 265.175 389.978 267.144C389.978 269.113 389.055 270.849 387.038 270.849ZM392.508 263.589L395.755 263.589L395.755 272L397.263 272L397.263 263.589L400.484 263.589L400.484 262.183L392.508 262.183L392.508 263.589ZM404.191 265.738L404.191 262.183L402.684 262.183L402.684 272L406.802 272C409.104 272 410.357 270.594 410.357 268.832C410.357 267.039 409.104 265.738 406.802 265.738L404.191 265.738ZM411.917 272L413.424 272L413.424 262.183L411.917 262.183L411.917 272ZM404.191 267.144L406.802 267.144C407.997 267.144 408.845 267.869 408.845 268.906C408.845 269.895 407.997 270.594 406.802 270.594L404.191 270.594L404.191 267.144ZM421.246 272L425.874 272C427.869 272 429.073 270.875 429.073 269.368C429.073 267.825 427.9 266.995 426.823 266.836C427.926 266.604 428.713 265.984 428.713 264.789C428.713 263.224 427.372 262.183 425.263 262.183L421.246 262.183L421.246 272ZM422.679 270.62L422.679 267.601L425.874 267.601C426.911 267.601 427.535 268.221 427.535 269.24C427.535 270.097 426.911 270.62 425.874 270.62L422.679 270.62ZM422.679 266.3L422.679 263.562L425.263 263.562C426.471 263.562 427.205 264.068 427.205 264.894C427.205 265.769 426.471 266.3 425.263 266.3L422.679 266.3ZM436.408 275.683L437.916 275.683L437.916 270.493L438.047 270.493C438.377 271.029 439.019 272.207 440.908 272.207C443.365 272.207 445.079 270.238 445.079 267.118C445.079 264.024 443.365 262.055 440.882 262.055C438.966 262.055 438.377 263.229 438.047 263.743L437.867 263.743L437.867 262.183L436.408 262.183L436.408 275.683ZM437.894 267.091C437.894 264.894 438.865 263.409 440.706 263.409C442.622 263.409 443.567 265.021 443.567 267.091C443.567 269.188 442.596 270.849 440.706 270.849C438.891 270.849 437.894 269.315 437.894 267.091ZM450.269 272.229C451.978 272.229 452.875 271.31 453.182 270.668L453.257 270.668L453.257 272L454.769 272L454.769 265.531C454.769 262.411 452.391 262.055 451.134 262.055C449.653 262.055 447.966 262.565 447.197 264.354L448.63 264.868C448.964 264.151 449.75 263.382 451.187 263.382C452.576 263.382 453.257 264.121 453.257 265.377L453.257 265.43C453.257 266.16 452.519 266.094 450.726 266.322C448.906 266.56 446.916 266.964 446.916 269.214C446.916 271.13 448.401 272.229 450.269 272.229ZM450.497 270.875C449.297 270.875 448.427 270.339 448.427 269.289C448.427 268.137 449.473 267.781 450.651 267.627C451.288 267.553 453.002 267.373 453.257 267.065L453.257 268.445C453.257 269.675 452.286 270.875 450.497 270.875ZM456.917 269.495C456.965 271.104 458.508 272.207 460.595 272.207C462.744 272.207 464.304 271.055 464.304 269.262C464.304 268.036 463.57 267.039 462.463 266.964L462.463 266.863C463.394 266.573 464.097 265.896 464.097 264.789C464.097 263.237 462.77 262.055 460.701 262.055C458.653 262.055 457.198 263.18 457.145 264.762L458.732 264.762C458.776 263.954 459.624 263.382 460.775 263.382C461.918 263.382 462.564 263.967 462.564 264.841C462.564 265.659 462.001 266.274 460.802 266.274L459.114 266.274L459.114 267.627L460.802 267.627C462.001 267.627 462.77 268.287 462.77 269.262C462.77 270.383 461.777 270.849 460.573 270.849C459.387 270.849 458.596 270.383 458.525 269.495L456.917 269.495ZM467.933 262.183L466.425 262.183L466.425 272L467.933 272L467.933 267.808L472.639 267.808L472.639 272L474.147 272L474.147 262.183L472.639 262.183L472.639 266.401L467.933 266.401L467.933 262.183ZM478.416 265.738L478.416 262.183L476.908 262.183L476.908 272L481.026 272C483.329 272 484.581 270.594 484.581 268.832C484.581 267.039 483.329 265.738 481.026 265.738L478.416 265.738ZM486.141 272L487.649 272L487.649 262.183L486.141 262.183L486.141 272ZM478.416 267.144L481.026 267.144C482.221 267.144 483.069 267.869 483.069 268.906C483.069 269.895 482.221 270.594 481.026 270.594L478.416 270.594L478.416 267.144ZM491.533 262.183L489.797 262.183L492.913 267.091L489.797 272L491.533 272L493.884 268.19L496.24 272L497.976 272L494.807 267.091L497.976 262.183L496.24 262.183L493.884 266.195L491.533 262.183ZM509.177 272.207C511.836 272.207 513.624 270.185 513.624 267.144C513.624 264.072 511.836 262.055 509.177 262.055C506.518 262.055 504.725 264.072 504.725 267.144C504.725 270.185 506.518 272.207 509.177 272.207ZM509.177 270.849C507.155 270.849 506.237 269.113 506.237 267.144C506.237 265.175 507.155 263.409 509.177 263.409C511.194 263.409 512.117 265.175 512.117 267.144C512.117 269.113 511.194 270.849 509.177 270.849ZM514.647 263.589L517.895 263.589L517.895 272L519.402 272L519.402 263.589L522.623 263.589L522.623 262.183L514.647 262.183L514.647 263.589ZM524.823 275.683L526.33 275.683L526.33 270.493L526.462 270.493C526.792 271.029 527.433 272.207 529.323 272.207C531.78 272.207 533.494 270.238 533.494 267.118C533.494 264.024 531.78 262.055 529.297 262.055C527.381 262.055 526.792 263.229 526.462 263.743L526.282 263.743L526.282 262.183L524.823 262.183L524.823 275.683ZM526.308 267.091C526.308 264.894 527.28 263.409 529.121 263.409C531.037 263.409 531.982 265.021 531.982 267.091C531.982 269.188 531.011 270.849 529.121 270.849C527.306 270.849 526.308 269.315 526.308 267.091ZM538.683 272.229C540.393 272.229 541.289 271.31 541.597 270.668L541.672 270.668L541.672 272L543.183 272L543.183 265.531C543.183 262.411 540.806 262.055 539.549 262.055C538.068 262.055 536.381 262.565 535.612 264.354L537.044 264.868C537.378 264.151 538.165 263.382 539.602 263.382C540.991 263.382 541.672 264.121 541.672 265.377L541.672 265.43C541.672 266.16 540.933 266.094 539.141 266.322C537.321 266.56 535.33 266.964 535.33 269.214C535.33 271.13 536.816 272.229 538.683 272.229ZM538.912 270.875C537.712 270.875 536.842 270.339 536.842 269.289C536.842 268.137 537.888 267.781 539.066 267.627C539.703 267.553 541.417 267.373 541.672 267.065L541.672 268.445C541.672 269.675 540.701 270.875 538.912 270.875ZM549.933 272.207C552.104 272.207 553.536 270.875 553.791 269.135L552.284 269.135C552.003 270.211 551.106 270.849 549.933 270.849C548.144 270.849 546.993 269.368 546.993 267.091C546.993 264.868 548.166 263.409 549.933 263.409C551.26 263.409 552.055 264.226 552.284 265.123L553.791 265.123C553.536 263.281 551.976 262.055 549.906 262.055C547.248 262.055 545.481 264.151 545.481 267.144C545.481 270.084 547.169 272.207 549.933 272.207ZM555.121 272L555.635 272C557.806 272 558.434 270.312 558.575 267.091L558.729 263.589L562.332 263.589L562.332 272L563.839 272L563.839 262.183L557.296 262.183L557.116 266.529C556.988 269.825 556.654 270.594 555.481 270.594L555.121 270.594L555.121 272ZM572.508 272L573.94 272L573.94 262.183L569.902 262.183C567.784 262.183 566.5 263.286 566.5 265.096C566.5 266.445 567.177 267.403 568.359 267.808L565.964 272L567.599 272L569.875 268.01L572.508 268.01L572.508 272ZM572.508 266.604L569.722 266.604C568.654 266.604 568.008 266.037 568.008 265.096C568.008 264.143 568.724 263.562 569.902 263.562L572.508 263.562L572.508 266.604ZM577.826 262.183L576.09 262.183L579.206 267.091L576.09 272L577.826 272L580.177 268.19L582.532 272L584.268 272L581.1 267.091L584.268 262.183L582.532 262.183L580.177 266.195L577.826 262.183ZM42.8872 291.776L42.8872 284.183L41.3799 284.183L41.3799 294L43.1465 294L47.8486 286.406L47.8486 294L49.356 294L49.356 284.183L47.6201 284.183L42.8872 291.776ZM56.5702 291.495C56.6185 293.104 58.161 294.207 60.2484 294.207C62.3973 294.207 63.9574 293.055 63.9574 291.262C63.9574 290.036 63.2235 289.039 62.1161 288.964L62.1161 288.863C63.0477 288.573 63.7508 287.896 63.7508 286.789C63.7508 285.237 62.4237 284.055 60.3539 284.055C58.306 284.055 56.8514 285.18 56.7987 286.762L58.3851 286.762C58.4291 285.954 59.2772 285.382 60.4286 285.382C61.5712 285.382 62.2172 285.967 62.2172 286.841C62.2172 287.659 61.6547 288.274 60.4549 288.274L58.7674 288.274L58.7674 289.627L60.4549 289.627C61.6547 289.627 62.4237 290.287 62.4237 291.262C62.4237 292.383 61.4305 292.849 60.2264 292.849C59.0399 292.849 58.2489 292.383 58.1786 291.495L56.5702 291.495ZM67.5861 284.183L66.0788 284.183L66.0788 294L67.5861 294L67.5861 289.808L72.2926 289.808L72.2926 294L73.7999 294L73.7999 284.183L72.2926 284.183L72.2926 288.401L67.5861 288.401L67.5861 284.183ZM79.4533 294.229C81.1628 294.229 82.0593 293.31 82.3669 292.668L82.4416 292.668L82.4416 294L83.9533 294L83.9533 287.531C83.9533 284.411 81.5759 284.055 80.319 284.055C78.8381 284.055 77.1506 284.565 76.3815 286.354L77.8141 286.868C78.1481 286.151 78.9347 285.382 80.3718 285.382C81.7604 285.382 82.4416 286.121 82.4416 287.377L82.4416 287.43C82.4416 288.16 81.7033 288.094 79.9103 288.322C78.091 288.56 76.1003 288.964 76.1003 291.214C76.1003 293.13 77.5856 294.229 79.4533 294.229ZM79.6818 292.875C78.4821 292.875 77.612 292.339 77.612 291.289C77.612 290.137 78.6579 289.781 79.8356 289.627C80.4728 289.553 82.1867 289.373 82.4416 289.065L82.4416 290.445C82.4416 291.675 81.4704 292.875 79.6818 292.875ZM87.5077 284.183L85.996 284.183L85.996 294L87.5077 294L87.5077 289.882L90.0257 289.882C90.2938 292.51 91.9989 294.207 94.4335 294.207C97.0921 294.207 98.8851 292.185 98.8851 289.144C98.8851 286.072 97.0921 284.055 94.4335 284.055C91.9725 284.055 90.2543 285.787 90.017 288.476L87.5077 288.476L87.5077 284.183ZM94.4335 292.849C92.4164 292.849 91.4935 291.113 91.4935 289.144C91.4935 287.175 92.4164 285.409 94.4335 285.409C96.4549 285.409 97.3734 287.175 97.3734 289.144C97.3734 291.113 96.4549 292.849 94.4335 292.849ZM100.059 285.589L103.306 285.589L103.306 294L104.814 294L104.814 285.589L108.035 285.589L108.035 284.183L100.059 284.183L100.059 285.589ZM110.849 292.211L109.214 292.211L109.135 292.928C108.95 294.659 108.585 296.386 108.418 297.195L109.57 297.195C109.877 296.325 110.528 294.356 110.748 292.901L110.849 292.211ZM118.698 294L120.205 294L120.205 289.856L121.563 289.856L124.784 294L126.727 294L122.715 288.911L126.674 284.183L124.732 284.183L121.203 288.45L120.205 288.45L120.205 284.183L118.698 284.183L118.698 294ZM131.254 294.229C132.964 294.229 133.86 293.31 134.168 292.668L134.243 292.668L134.243 294L135.754 294L135.754 287.531C135.754 284.411 133.377 284.055 132.12 284.055C130.639 284.055 128.952 284.565 128.183 286.354L129.615 286.868C129.949 286.151 130.736 285.382 132.173 285.382C133.562 285.382 134.243 286.121 134.243 287.377L134.243 287.43C134.243 288.16 133.504 288.094 131.711 288.322C129.892 288.56 127.901 288.964 127.901 291.214C127.901 293.13 129.387 294.229 131.254 294.229ZM131.483 292.875C130.283 292.875 129.413 292.339 129.413 291.289C129.413 290.137 130.459 289.781 131.637 289.627C132.274 289.553 133.988 289.373 134.243 289.065L134.243 290.445C134.243 291.675 133.272 292.875 131.483 292.875ZM138.513 294L140.021 294L140.021 289.856L141.379 289.856L144.6 294L146.542 294L142.53 288.911L146.489 284.183L144.547 284.183L141.018 288.45L140.021 288.45L140.021 284.183L138.513 284.183L138.513 294ZM156.488 285.461C158.022 285.475 158.936 286.881 159.134 288.349L155.491 288.349L155.491 289.755L159.147 289.755C158.989 291.253 158.044 292.761 156.488 292.774C155.337 292.761 154.265 291.763 154.265 290.651L152.779 290.651C152.779 292.607 154.339 294.18 156.488 294.18C159.173 294.18 160.681 291.895 160.681 289.293L160.681 288.938C160.681 286.336 159.173 284.055 156.488 284.055C154.572 284.055 152.779 285.628 152.779 287.325L154.265 287.325C154.265 286.31 155.464 285.475 156.488 285.461ZM166.972 297.349L168.48 297.349L168.48 294.207C171.138 294.207 172.927 292.185 172.927 289.144C172.927 286.072 171.138 284.055 168.48 284.055L168.48 280.909L166.972 280.909L166.972 284.055C164.314 284.055 162.521 286.072 162.521 289.144C162.521 292.185 164.314 294.207 166.972 294.207L166.972 297.349ZM168.48 292.849L168.48 285.409C170.501 285.409 171.42 287.175 171.42 289.144C171.42 291.113 170.501 292.849 168.48 292.849ZM166.972 292.849C164.951 292.849 164.032 291.113 164.032 289.144C164.032 287.175 164.951 285.409 166.972 285.409L166.972 292.849ZM179.22 297.349L180.727 297.349L180.727 294.207C183.386 294.207 185.174 292.185 185.174 289.144C185.174 286.072 183.386 284.055 180.727 284.055L180.727 280.909L179.22 280.909L179.22 284.055C176.561 284.055 174.768 286.072 174.768 289.144C174.768 292.185 176.561 294.207 179.22 294.207L179.22 297.349ZM180.727 292.849L180.727 285.409C182.748 285.409 183.667 287.175 183.667 289.144C183.667 291.113 182.748 292.849 180.727 292.849ZM179.22 292.849C177.198 292.849 176.28 291.113 176.28 289.144C176.28 287.175 177.198 285.409 179.22 285.409L179.22 292.849ZM191.594 294.207C193.589 294.207 195.044 293.209 195.505 291.724L194.046 291.315C193.664 292.339 192.776 292.849 191.594 292.849C189.823 292.849 188.601 291.706 188.531 289.601L195.659 289.601L195.659 288.964C195.659 285.308 193.484 284.055 191.44 284.055C188.782 284.055 187.015 286.151 187.015 289.166C187.015 292.185 188.755 294.207 191.594 294.207ZM188.531 288.3C188.632 286.771 189.713 285.409 191.44 285.409C193.075 285.409 194.125 286.635 194.125 288.3L188.531 288.3ZM197.959 294L199.467 294L199.467 289.856L200.825 289.856L204.046 294L205.988 294L201.976 288.911L205.936 284.183L203.993 284.183L200.464 288.45L199.467 288.45L199.467 284.183L197.959 284.183L197.959 294ZM207.062 285.589L210.309 285.589L210.309 294L211.817 294L211.817 285.589L215.038 285.589L215.038 284.183L207.062 284.183L207.062 285.589ZM218.745 291.776L218.745 284.183L217.238 284.183L217.238 294L219.004 294L223.707 286.406L223.707 294L225.214 294L225.214 284.183L223.478 284.183L218.745 291.776ZM227.976 294L232.604 294C234.599 294 235.803 292.875 235.803 291.368C235.803 289.825 234.63 288.995 233.553 288.836C234.656 288.604 235.443 287.984 235.443 286.789C235.443 285.224 234.102 284.183 231.993 284.183L227.976 284.183L227.976 294ZM229.409 292.62L229.409 289.601L232.604 289.601C233.641 289.601 234.265 290.221 234.265 291.24C234.265 292.097 233.641 292.62 232.604 292.62L229.409 292.62ZM229.409 288.3L229.409 285.562L231.993 285.562C233.202 285.562 233.935 286.068 233.935 286.894C233.935 287.769 233.202 288.3 231.993 288.3L229.409 288.3ZM239.583 284.183L238.076 284.183L238.076 294L239.583 294L239.583 289.808L244.29 289.808L244.29 294L245.797 294L245.797 284.183L244.29 284.183L244.29 288.401L239.583 288.401L239.583 284.183ZM252.549 294.207C255.208 294.207 256.996 292.185 256.996 289.144C256.996 286.072 255.208 284.055 252.549 284.055C249.89 284.055 248.097 286.072 248.097 289.144C248.097 292.185 249.89 294.207 252.549 294.207ZM252.549 292.849C250.528 292.849 249.609 291.113 249.609 289.144C249.609 287.175 250.528 285.409 252.549 285.409C254.566 285.409 255.489 287.175 255.489 289.144C255.489 291.113 254.566 292.849 252.549 292.849ZM264.36 294L265.867 294L265.867 285.589L270.574 285.589L270.574 294L272.081 294L272.081 284.183L264.36 284.183L264.36 294ZM274.843 297.683L276.35 297.683L276.35 292.493L276.482 292.493C276.812 293.029 277.453 294.207 279.343 294.207C281.799 294.207 283.513 292.238 283.513 289.118C283.513 286.024 281.799 284.055 279.317 284.055C277.401 284.055 276.812 285.229 276.482 285.743L276.302 285.743L276.302 284.183L274.843 284.183L274.843 297.683ZM276.328 289.091C276.328 286.894 277.299 285.409 279.141 285.409C281.057 285.409 282.002 287.021 282.002 289.091C282.002 291.188 281.03 292.849 279.141 292.849C277.326 292.849 276.328 291.315 276.328 289.091ZM287.319 291.776L287.319 284.183L285.812 284.183L285.812 294L287.578 294L292.28 286.406L292.28 294L293.788 294L293.788 284.183L292.052 284.183L287.319 291.776ZM296.55 294L301.178 294C303.173 294 304.377 292.875 304.377 291.368C304.377 289.825 303.204 288.995 302.127 288.836C303.23 288.604 304.017 287.984 304.017 286.789C304.017 285.224 302.676 284.183 300.567 284.183L296.55 284.183L296.55 294ZM297.983 292.62L297.983 289.601L301.178 289.601C302.215 289.601 302.839 290.221 302.839 291.24C302.839 292.097 302.215 292.62 301.178 292.62L297.983 292.62ZM297.983 288.3L297.983 285.562L300.567 285.562C301.775 285.562 302.509 286.068 302.509 286.894C302.509 287.769 301.775 288.3 300.567 288.3L297.983 288.3ZM305.78 294L306.294 294C308.465 294 309.093 292.312 309.234 289.091L309.388 285.589L312.991 285.589L312.991 294L314.498 294L314.498 284.183L307.955 284.183L307.775 288.529C307.647 291.825 307.313 292.594 306.14 292.594L305.78 292.594L305.78 294ZM321.378 294.207C323.373 294.207 324.828 293.209 325.289 291.724L323.83 291.315C323.448 292.339 322.56 292.849 321.378 292.849C319.607 292.849 318.386 291.706 318.315 289.601L325.443 289.601L325.443 288.964C325.443 285.308 323.268 284.055 321.224 284.055C318.566 284.055 316.799 286.151 316.799 289.166C316.799 292.185 318.539 294.207 321.378 294.207ZM318.315 288.3C318.416 286.771 319.497 285.409 321.224 285.409C322.859 285.409 323.909 286.635 323.909 288.3L318.315 288.3ZM327.743 294L329.251 294L329.251 289.856L330.609 289.856L333.83 294L335.772 294L331.76 288.911L335.72 284.183L333.777 284.183L330.248 288.45L329.251 288.45L329.251 284.183L327.743 284.183L327.743 294ZM340.3 294.229C342.009 294.229 342.906 293.31 343.213 292.668L343.288 292.668L343.288 294L344.8 294L344.8 287.531C344.8 284.411 342.422 284.055 341.166 284.055C339.685 284.055 337.997 284.565 337.228 286.354L338.661 286.868C338.995 286.151 339.781 285.382 341.218 285.382C342.607 285.382 343.288 286.121 343.288 287.377L343.288 287.43C343.288 288.16 342.55 288.094 340.757 288.322C338.938 288.56 336.947 288.964 336.947 291.214C336.947 293.13 338.432 294.229 340.3 294.229ZM340.528 292.875C339.329 292.875 338.459 292.339 338.459 291.289C338.459 290.137 339.504 289.781 340.682 289.627C341.319 289.553 343.033 289.373 343.288 289.065L343.288 290.445C343.288 291.675 342.317 292.875 340.528 292.875ZM346.229 285.589L349.477 285.589L349.477 294L350.984 294L350.984 285.589L354.205 285.589L354.205 284.183L346.229 284.183L346.229 285.589ZM357.913 287.738L357.913 284.183L356.405 284.183L356.405 294L360.523 294C362.826 294 364.078 292.594 364.078 290.832C364.078 289.039 362.826 287.738 360.523 287.738L357.913 287.738ZM357.913 289.144L360.523 289.144C361.718 289.144 362.567 289.869 362.567 290.906C362.567 291.895 361.718 292.594 360.523 292.594L357.913 292.594L357.913 289.144ZM379.161 284.183L377.653 284.183L377.653 292.594L372.947 292.594L372.947 284.183L371.44 284.183L371.44 294L379.033 294L379.033 297.168L380.541 297.168L380.541 292.594L379.161 292.594L379.161 284.183ZM386.884 294.207C388.879 294.207 390.334 293.209 390.795 291.724L389.336 291.315C388.954 292.339 388.066 292.849 386.884 292.849C385.113 292.849 383.891 291.706 383.821 289.601L390.949 289.601L390.949 288.964C390.949 285.308 388.774 284.055 386.73 284.055C384.071 284.055 382.305 286.151 382.305 289.166C382.305 292.185 384.045 294.207 386.884 294.207ZM383.821 288.3C383.922 286.771 385.003 285.409 386.73 285.409C388.365 285.409 389.415 286.635 389.415 288.3L383.821 288.3ZM392.379 294L392.893 294C395.064 294 395.693 292.312 395.833 289.091L395.987 285.589L399.59 285.589L399.59 294L401.098 294L401.098 284.183L394.554 284.183L394.374 288.529C394.247 291.825 393.913 292.594 392.739 292.594L392.379 292.594L392.379 294ZM407.978 294.207C409.973 294.207 411.427 293.209 411.889 291.724L410.43 291.315C410.047 292.339 409.16 292.849 407.978 292.849C406.207 292.849 404.985 291.706 404.915 289.601L412.043 289.601L412.043 288.964C412.043 285.308 409.867 284.055 407.824 284.055C405.165 284.055 403.399 286.151 403.399 289.166C403.399 292.185 405.139 294.207 407.978 294.207ZM404.915 288.3C405.016 286.771 406.097 285.409 407.824 285.409C409.459 285.409 410.509 286.635 410.509 288.3L404.915 288.3ZM414.343 294L418.97 294C420.965 294 422.17 292.875 422.17 291.368C422.17 289.825 420.996 288.995 419.92 288.836C421.023 288.604 421.809 287.984 421.809 286.789C421.809 285.224 420.469 284.183 418.359 284.183L414.343 284.183L414.343 294ZM415.776 292.62L415.776 289.601L418.97 289.601C420.007 289.601 420.631 290.221 420.631 291.24C420.631 292.097 420.007 292.62 418.97 292.62L415.776 292.62ZM415.776 288.3L415.776 285.562L418.359 285.562C419.568 285.562 420.302 286.068 420.302 286.894C420.302 287.769 419.568 288.3 418.359 288.3L415.776 288.3ZM425.414 297.683C426.776 297.683 427.734 296.958 428.305 295.433L432.471 284.183L430.836 284.183L428.125 292.005L428.024 292.005L425.312 284.183L423.678 284.183L427.308 294.053L427.026 294.817C426.477 296.316 425.8 296.457 424.697 296.175L424.315 297.502C424.469 297.582 424.904 297.683 425.414 297.683ZM435.26 284.183L433.749 284.183L433.749 294L435.26 294L435.26 289.882L437.779 289.882C438.047 292.51 439.752 294.207 442.186 294.207C444.845 294.207 446.638 292.185 446.638 289.144C446.638 286.072 444.845 284.055 442.186 284.055C439.725 284.055 438.007 285.787 437.77 288.476L435.26 288.476L435.26 284.183ZM442.186 292.849C440.169 292.849 439.246 291.113 439.246 289.144C439.246 287.175 440.169 285.409 442.186 285.409C444.208 285.409 445.126 287.175 445.126 289.144C445.126 291.113 444.208 292.849 442.186 292.849ZM457.044 294.229C458.754 294.229 459.65 293.31 459.958 292.668L460.032 292.668L460.032 294L461.544 294L461.544 287.531C461.544 284.411 459.167 284.055 457.91 284.055C456.429 284.055 454.741 284.565 453.972 286.354L455.405 286.868C455.739 286.151 456.526 285.382 457.963 285.382C459.351 285.382 460.032 286.121 460.032 287.377L460.032 287.43C460.032 288.16 459.294 288.094 457.501 288.322C455.682 288.56 453.691 288.964 453.691 291.214C453.691 293.13 455.176 294.229 457.044 294.229ZM457.273 292.875C456.073 292.875 455.203 292.339 455.203 291.289C455.203 290.137 456.249 289.781 457.426 289.627C458.064 289.553 459.778 289.373 460.032 289.065L460.032 290.445C460.032 291.675 459.061 292.875 457.273 292.875ZM464.916 297.683C466.279 297.683 467.237 296.958 467.808 295.433L471.974 284.183L470.339 284.183L467.628 292.005L467.527 292.005L464.815 284.183L463.181 284.183L466.81 294.053L466.529 294.817C465.98 296.316 465.303 296.457 464.2 296.175L463.818 297.502C463.972 297.582 464.407 297.683 464.916 297.683ZM472.104 296.812L473.611 296.812L473.611 294L480.871 294L480.871 296.812L482.383 296.812L482.383 292.594L480.871 292.594L480.871 284.183L474.635 284.183L474.301 288.067C474.064 290.818 473.712 291.763 472.921 292.594L472.104 292.594L472.104 296.812ZM474.635 292.594C475.325 291.684 475.571 290.12 475.782 288.067L476.041 285.589L479.364 285.589L479.364 292.594L474.635 292.594ZM485.881 291.776L485.881 284.183L484.374 284.183L484.374 294L486.141 294L490.843 286.406L490.843 294L492.35 294L492.35 284.183L490.614 284.183L485.881 291.776ZM493.783 285.589L497.031 285.589L497.031 294L498.538 294L498.538 285.589L501.759 285.589L501.759 284.183L493.783 284.183L493.783 285.589ZM507.438 294.207C510.097 294.207 511.885 292.185 511.885 289.144C511.885 286.072 510.097 284.055 507.438 284.055C504.78 284.055 502.987 286.072 502.987 289.144C502.987 292.185 504.78 294.207 507.438 294.207ZM507.438 292.849C505.417 292.849 504.498 291.113 504.498 289.144C504.498 287.175 505.417 285.409 507.438 285.409C509.455 285.409 510.378 287.175 510.378 289.144C510.378 291.113 509.455 292.849 507.438 292.849ZM514.187 297.683L515.694 297.683L515.694 292.493L515.826 292.493C516.155 293.029 516.797 294.207 518.687 294.207C521.143 294.207 522.857 292.238 522.857 289.118C522.857 286.024 521.143 284.055 518.66 284.055C516.744 284.055 516.155 285.229 515.826 285.743L515.646 285.743L515.646 284.183L514.187 284.183L514.187 297.683ZM515.672 289.091C515.672 286.894 516.643 285.409 518.484 285.409C520.401 285.409 521.345 287.021 521.345 289.091C521.345 291.188 520.374 292.849 518.484 292.849C516.67 292.849 515.672 291.315 515.672 289.091ZM526.663 291.776L526.663 284.183L525.155 284.183L525.155 294L526.922 294L531.624 286.406L531.624 294L533.131 294L533.131 284.183L531.396 284.183L526.663 291.776ZM536.689 284.183L535.178 284.183L535.178 294L536.689 294L536.689 289.882L539.208 289.882C539.476 292.51 541.181 294.207 543.615 294.207C546.274 294.207 548.067 292.185 548.067 289.144C548.067 286.072 546.274 284.055 543.615 284.055C541.154 284.055 539.436 285.787 539.199 288.476L536.689 288.476L536.689 284.183ZM543.615 292.849C541.598 292.849 540.675 291.113 540.675 289.144C540.675 287.175 541.598 285.409 543.615 285.409C545.637 285.409 546.555 287.175 546.555 289.144C546.555 291.113 545.637 292.849 543.615 292.849ZM551.618 294.101C552.25 294.101 552.769 293.583 552.769 292.95C552.769 292.317 552.25 291.803 551.618 291.803C550.985 291.803 550.471 292.317 550.471 292.95C550.471 293.583 550.985 294.101 551.618 294.101Z" fill="#A8A8A8" fill-opacity="1.000000" fill-rule="evenodd"/>
	</g>
</svg>
