<svg width="540.000000" height="262.000000" viewBox="0 0 540 262" fill="none" xmlns="http://www.w3.org/2000/svg" xmlns:xlink="http://www.w3.org/1999/xlink">
	<desc>
			Created with Pixso.
	</desc>
	<defs>
		<clipPath id="clip1_305">
			<rect id="Frame 18" width="540.000000" height="262.000000" fill="white" fill-opacity="0"/>
		</clipPath>
	</defs>
	<rect id="Frame 18" width="540.000000" height="262.000000" fill="#000000" fill-opacity="1.000000"/>
	<g clip-path="url(#clip1_305)">
		<path id="Subtract" d="M0 0L225.302 0L453.29 71.5959L536.31 262L332.927 262L82.8882 188.881L0 11.8564L0 0ZM426.405 0L358.81 0L482.669 38.896L540 170.384L540 117L507.859 30.1409L426.405 0ZM0 145L0 106.186L54.3229 222.203L190.414 262L113.595 262L32.1409 231.859L0 145Z" fill="#FF3F62" fill-opacity="1.000000" fill-rule="evenodd"/>
		<path id="Креативность" d="M126.869 148L133.291 148L118.806 128.723L132.764 113.09L126.33 113.09L113.146 127.832L111.424 127.832L111.424 113.09L106.15 113.09L106.15 148L111.424 148L111.424 132.355L115.139 132.355L126.869 148ZM137.751 157.82L142.849 157.82L142.849 143.922L143.154 143.922C144.08 145.598 145.955 148.516 150.724 148.516C157.064 148.516 161.669 143.43 161.669 134.957C161.669 126.473 157.005 121.48 150.677 121.48C145.814 121.48 144.068 124.445 143.154 126.062L142.732 126.062L142.732 121.82L137.751 121.82L137.751 157.82ZM142.755 134.91C142.755 129.438 145.134 125.805 149.587 125.805C154.205 125.805 156.525 129.707 156.525 134.91C156.525 140.16 154.134 144.168 149.587 144.168C145.205 144.168 142.755 140.418 142.755 134.91ZM178.662 148.527C184.38 148.527 188.412 145.715 189.572 141.449L184.755 140.582C183.83 143.055 181.615 144.32 178.72 144.32C174.349 144.32 171.419 141.484 171.279 136.445L189.9 136.445L189.9 134.641C189.9 125.172 184.24 121.48 178.31 121.48C171.009 121.48 166.205 127.035 166.205 135.074C166.205 143.207 170.939 148.527 178.662 148.527ZM171.302 132.625C171.501 128.91 174.197 125.688 178.345 125.688C182.294 125.688 184.884 128.617 184.908 132.625L171.302 132.625ZM203.199 148.574C207.523 148.574 209.96 146.383 210.933 144.426L211.132 144.426L211.132 148L216.113 148L216.113 130.609C216.113 122.992 210.113 121.48 205.952 121.48C201.218 121.48 196.847 123.391 195.148 128.16L199.941 129.25C200.691 127.387 202.601 125.605 206.023 125.605C209.316 125.605 211.003 127.328 211.003 130.293L211.003 130.41C211.003 132.262 209.093 132.238 204.382 132.777C199.425 133.363 194.351 134.652 194.351 140.605C194.351 145.75 198.218 148.574 203.199 148.574ZM204.3 144.484C201.417 144.484 199.343 143.195 199.343 140.676C199.343 137.945 201.757 136.973 204.71 136.574C206.363 136.363 210.288 135.918 211.015 135.18L211.015 138.555C211.015 141.66 208.542 144.484 204.3 144.484ZM219.656 126.215L228.234 126.215L228.234 148L233.215 148L233.215 126.215L241.746 126.215L241.746 121.82L219.656 121.82L219.656 126.215ZM252.136 140.863L252.136 121.82L247.132 121.82L247.132 148L252.675 148L264.159 128.945L264.159 148L269.163 148L269.163 121.82L263.667 121.82L252.136 140.863ZM276.007 148L288.523 148C294.253 148 297.605 145.105 297.605 140.945C297.605 137.055 294.628 134.676 291.136 134.266C294.347 133.645 296.48 131.875 296.48 128.805C296.48 124.516 292.765 121.82 286.87 121.82L276.007 121.82L276.007 148ZM280.8 143.734L280.8 136.457L288.523 136.457C291.042 136.457 292.566 137.945 292.566 140.383C292.566 142.457 291.042 143.734 288.523 143.734L280.8 143.734ZM280.8 132.73L280.8 126.133L286.87 126.133C289.765 126.133 291.523 127.34 291.523 129.355C291.523 131.453 289.788 132.73 286.917 132.73L280.8 132.73ZM308.181 121.82L303.178 121.82L303.178 148L308.181 148L308.181 137.125L319.513 137.125L319.513 148L324.494 148L324.494 121.82L319.513 121.82L319.513 132.707L308.181 132.707L308.181 121.82ZM342.313 148.527C349.696 148.527 354.524 143.125 354.524 135.027C354.524 126.883 349.696 121.48 342.313 121.48C334.942 121.48 330.114 126.883 330.114 135.027C330.114 143.125 334.942 148.527 342.313 148.527ZM342.336 144.25C337.508 144.25 335.258 140.043 335.258 135.016C335.258 130 337.508 125.734 342.336 125.734C347.129 125.734 349.379 130 349.379 135.016C349.379 140.043 347.129 144.25 342.336 144.25ZM371.222 148.527C377.409 148.527 381.417 144.812 381.98 139.715L377.023 139.715C376.378 142.551 374.175 144.215 371.257 144.215C366.945 144.215 364.167 140.617 364.167 134.91C364.167 129.297 367.003 125.77 371.257 125.77C374.503 125.77 376.472 127.82 377.023 130.27L381.98 130.27C381.441 124.984 377.128 121.48 371.175 121.48C363.792 121.48 359.023 127.035 359.023 135.027C359.023 142.926 363.628 148.527 371.222 148.527ZM385.491 126.215L394.069 126.215L394.069 148L399.05 148L399.05 126.215L407.581 126.215L407.581 121.82L385.491 121.82L385.491 126.215ZM417.971 130.82L417.971 121.82L412.967 121.82L412.967 148L424.405 148C430.815 148 434.401 144.285 434.401 139.363C434.401 134.324 430.815 130.82 424.405 130.82L417.971 130.82ZM417.971 135.215L424.405 135.215C427.346 135.215 429.432 136.984 429.432 139.516C429.432 141.895 427.346 143.605 424.405 143.605L417.971 143.605L417.971 135.215Z" fill="#FFFFFF" fill-opacity="1.000000" fill-rule="evenodd"/>
	</g>
</svg>
