<svg width="760.000000" height="262.000000" viewBox="0 0 760 262" fill="none" xmlns="http://www.w3.org/2000/svg" xmlns:xlink="http://www.w3.org/1999/xlink">
	<desc>
			Created with Pixso.
	</desc>
	<defs>
		<clipPath id="clip1_308">
			<rect id="Frame 19" width="760.000000" height="262.000000" fill="white" fill-opacity="0"/>
		</clipPath>
	</defs>
	<rect id="Frame 19" width="760.000000" height="262.000000" fill="#000000" fill-opacity="1.000000"/>
	<g clip-path="url(#clip1_308)">
		<path id="Доступ к новейшим технологиям" d="M40.9961 102.031L45.1953 102.031L45.1953 95L64.7266 95L64.7266 101.992L68.9355 101.992L68.9355 91.2793L65.6348 91.2793L65.6348 65.9082L47.6953 65.9082L47.0215 78.1934C46.5723 86.2891 44.8535 89.6289 42.9102 91.2793L40.9961 91.2793L40.9961 102.031ZM48.0859 91.2793C49.7461 88.623 50.8691 84.3457 51.2207 78.1934L51.6797 69.6875L61.4355 69.6875L61.4355 91.2793L48.0859 91.2793ZM82.5808 95.4395C88.7331 95.4395 92.7566 90.9375 92.7566 84.1895C92.7566 77.4023 88.7331 72.9004 82.5808 72.9004C76.4382 72.9004 72.4148 77.4023 72.4148 84.1895C72.4148 90.9375 76.4382 95.4395 82.5808 95.4395ZM82.6003 91.875C78.5769 91.875 76.7019 88.3691 76.7019 84.1797C76.7019 80 78.5769 76.4453 82.6003 76.4453C86.5945 76.4453 88.4695 80 88.4695 84.1797C88.4695 88.3691 86.5945 91.875 82.6003 91.875ZM106.672 95.4395C111.828 95.4395 115.168 92.3438 115.637 88.0957L111.506 88.0957C110.969 90.459 109.133 91.8457 106.701 91.8457C103.107 91.8457 100.793 88.8477 100.793 84.0918C100.793 79.4141 103.156 76.4746 106.701 76.4746C109.406 76.4746 111.047 78.1836 111.506 80.2246L115.637 80.2246C115.187 75.8203 111.594 72.9004 106.633 72.9004C100.48 72.9004 96.5057 77.5293 96.5057 84.1895C96.5057 90.7715 100.344 95.4395 106.672 95.4395ZM118.563 76.8457L125.711 76.8457L125.711 95L129.862 95L129.862 76.8457L136.971 76.8457L136.971 73.1836L118.563 73.1836L118.563 76.8457ZM144.145 103.184C147.661 103.184 149.868 101.348 151.137 97.9102L160.131 73.1836L155.571 73.1836L150.044 90.1172L149.819 90.1172L144.292 73.1836L139.741 73.1836L147.729 95.2832L147.202 96.7285C146.118 99.6289 144.604 99.873 142.27 99.2285L141.254 102.715C141.762 102.939 142.866 103.184 144.145 103.184ZM164.116 95L168.256 95L168.256 76.8457L177.758 76.8457L177.758 95L181.919 95L181.919 73.1836L164.116 73.1836L164.116 95ZM198.207 95L202.455 95L202.455 86.2793L205.209 86.2793L211.791 95L217.064 95L208.509 83.7891L216.957 73.1836L211.703 73.1836L204.506 82.334L202.455 82.334L202.455 73.1836L198.207 73.1836L198.207 95ZM235.104 73.1836L230.934 73.1836L230.934 95L235.104 95L235.104 85.9375L244.547 85.9375L244.547 95L248.698 95L248.698 73.1836L244.547 73.1836L244.547 82.2559L235.104 82.2559L235.104 73.1836ZM263.547 95.4395C269.699 95.4395 273.722 90.9375 273.722 84.1895C273.722 77.4023 269.699 72.9004 263.547 72.9004C257.404 72.9004 253.381 77.4023 253.381 84.1895C253.381 90.9375 257.404 95.4395 263.547 95.4395ZM263.566 91.875C259.543 91.875 257.668 88.3691 257.668 84.1797C257.668 80 259.543 76.4453 263.566 76.4453C267.56 76.4453 269.435 80 269.435 84.1797C269.435 88.3691 267.56 91.875 263.566 91.875ZM278.448 95L288.878 95C293.653 95 296.446 92.5879 296.446 89.1211C296.446 85.8789 293.966 83.8965 291.056 83.5547C293.731 83.0371 295.509 81.5625 295.509 79.0039C295.509 75.4297 292.413 73.1836 287.501 73.1836L278.448 73.1836L278.448 95ZM282.442 91.4453L282.442 85.3809L288.878 85.3809C290.977 85.3809 292.247 86.6211 292.247 88.6523C292.247 90.3809 290.977 91.4453 288.878 91.4453L282.442 91.4453ZM282.442 82.2754L282.442 76.7773L287.501 76.7773C289.913 76.7773 291.378 77.7832 291.378 79.4629C291.378 81.2109 289.933 82.2754 287.54 82.2754L282.442 82.2754ZM310.495 95.4395C315.26 95.4395 318.62 93.0957 319.586 89.541L315.573 88.8184C314.801 90.8789 312.955 91.9336 310.543 91.9336C306.901 91.9336 304.459 89.5703 304.342 85.3711L319.86 85.3711L319.86 83.8672C319.86 75.9766 315.143 72.9004 310.202 72.9004C304.118 72.9004 300.114 77.5293 300.114 84.2285C300.114 91.0059 304.059 95.4395 310.495 95.4395ZM304.362 82.1875C304.528 79.0918 306.774 76.4062 310.231 76.4062C313.522 76.4062 315.68 78.8477 315.7 82.1875L304.362 82.1875ZM328.754 89.0527L328.754 73.1836L324.585 73.1836L324.585 95L329.204 95L338.774 79.1211L338.774 95L342.944 95L342.944 73.1836L338.364 73.1836L328.754 89.0527ZM336.547 65.791C336.547 67.2266 335.756 68.4961 333.764 68.4961C331.743 68.4961 330.991 67.2168 330.991 65.791L327.514 65.791C327.514 68.9941 329.946 71.1914 333.764 71.1914C337.612 71.1914 340.044 68.9941 340.044 65.791L336.547 65.791ZM348.647 73.1836L348.647 95L376.225 95L376.225 73.1836L372.055 73.1836L372.055 91.3184L364.516 91.3184L364.516 73.1836L360.356 73.1836L360.356 91.3184L352.817 91.3184L352.817 73.1836L348.647 73.1836ZM386.041 89.0527L386.041 73.1836L381.871 73.1836L381.871 95L386.491 95L396.061 79.1211L396.061 95L400.231 95L400.231 73.1836L395.651 73.1836L386.041 89.0527ZM418.18 89.7461L411.276 73.1836L405.934 73.1836L405.934 95L410.104 95L410.104 79.1309L416.608 95L419.762 95L426.373 79.1895L426.373 95L430.514 95L430.514 73.1836L425.231 73.1836L418.18 89.7461ZM445.551 76.8457L452.7 76.8457L452.7 95L456.85 95L456.85 76.8457L463.96 76.8457L463.96 73.1836L445.551 73.1836L445.551 76.8457ZM476.83 95.4395C481.595 95.4395 484.955 93.0957 485.922 89.541L481.908 88.8184C481.136 90.8789 479.291 91.9336 476.879 91.9336C473.236 91.9336 470.795 89.5703 470.677 85.3711L486.195 85.3711L486.195 83.8672C486.195 75.9766 481.478 72.9004 476.537 72.9004C470.453 72.9004 466.449 77.5293 466.449 84.2285C466.449 91.0059 470.394 95.4395 476.83 95.4395ZM470.697 82.1875C470.863 79.0918 473.109 76.4062 476.566 76.4062C479.857 76.4062 482.015 78.8477 482.035 82.1875L470.697 82.1875ZM493.782 73.1836L489.124 73.1836L495.823 84.0918L489.036 95L493.694 95L498.596 86.8457L503.509 95L508.157 95L501.292 84.0918L508.098 73.1836L503.45 73.1836L498.596 81.6797L493.782 73.1836ZM516.638 73.1836L512.468 73.1836L512.468 95L516.638 95L516.638 85.9375L526.081 85.9375L526.081 95L530.232 95L530.232 73.1836L526.081 73.1836L526.081 82.2559L516.638 82.2559L516.638 73.1836ZM545.081 95.4395C551.233 95.4395 555.257 90.9375 555.257 84.1895C555.257 77.4023 551.233 72.9004 545.081 72.9004C538.938 72.9004 534.915 77.4023 534.915 84.1895C534.915 90.9375 538.938 95.4395 545.081 95.4395ZM545.1 91.875C541.077 91.875 539.202 88.3691 539.202 84.1797C539.202 80 541.077 76.4453 545.1 76.4453C549.094 76.4453 550.969 80 550.969 84.1797C550.969 88.3691 549.094 91.875 545.1 91.875ZM558.264 95L559.631 95C564.387 95 566.135 91.4746 566.476 84.2578L566.818 76.8457L573.947 76.8457L573.947 95L578.107 95L578.107 73.1836L562.883 73.1836L562.502 82.8418C562.228 89.5703 561.467 91.3184 559.035 91.3184L558.254 91.3184L558.264 95ZM592.95 95.4395C599.102 95.4395 603.126 90.9375 603.126 84.1895C603.126 77.4023 599.102 72.9004 592.95 72.9004C586.808 72.9004 582.784 77.4023 582.784 84.1895C582.784 90.9375 586.808 95.4395 592.95 95.4395ZM592.97 91.875C588.946 91.875 587.071 88.3691 587.071 84.1797C587.071 80 588.946 76.4453 592.97 76.4453C596.964 76.4453 598.839 80 598.839 84.1797C598.839 88.3691 596.964 91.875 592.97 91.875ZM621.807 73.1836L607.852 73.1836L607.852 95L612.041 95L612.041 76.8457L621.807 76.8457L621.807 73.1836ZM630.459 89.0527L630.459 73.1836L626.289 73.1836L626.289 95L630.908 95L640.479 79.1211L640.479 95L644.648 95L644.648 73.1836L640.068 73.1836L630.459 89.0527ZM663.369 95L667.354 95L667.354 73.1836L658.135 73.1836C653.115 73.1836 650.039 75.7812 650.039 79.8828C650.039 82.7539 651.553 84.873 654.15 85.8496L649.053 95L653.398 95L658.154 86.4648L663.369 86.4648L663.369 95ZM663.369 83.0273L657.852 83.0273C655.537 83.0273 654.189 81.8066 654.209 79.9414C654.189 78.0664 655.654 76.8066 658.135 76.8066L663.369 76.8066L663.369 83.0273ZM685.268 89.7461L678.364 73.1836L673.022 73.1836L673.022 95L677.192 95L677.192 79.1309L683.696 95L686.85 95L693.461 79.1895L693.461 95L697.602 95L697.602 73.1836L692.319 73.1836L685.268 89.7461Z" fill="#FFFFFF" fill-opacity="1.000000" fill-rule="evenodd"/>
		<path id="Рекламные агентства обычно имеют доступ к самым передовым инструментам и технологиям в области маркетинга и рекламы." d="M41.5864 157L43.1685 157L43.1685 152.219L46.0337 152.219C49.0835 152.219 50.459 150.364 50.459 148.053C50.459 145.737 49.0835 143.909 46.0073 143.909L41.5864 143.909L41.5864 157ZM43.1685 150.812L43.1685 145.315L45.959 145.315C48.0859 145.315 48.8989 146.479 48.8989 148.053C48.8989 149.622 48.0859 150.812 45.981 150.812L43.1685 150.812ZM56.8243 157.207C58.8194 157.207 60.274 156.209 60.7354 154.724L59.2764 154.315C58.8941 155.339 58.0064 155.849 56.8243 155.849C55.0533 155.849 53.8316 154.706 53.7613 152.601L60.8892 152.601L60.8892 151.964C60.8892 148.308 58.7139 147.055 56.6705 147.055C54.0118 147.055 52.2452 149.151 52.2452 152.166C52.2452 155.185 53.9854 157.207 56.8243 157.207ZM53.7613 151.3C53.8624 149.771 54.9434 148.409 56.6705 148.409C58.3052 148.409 59.3555 149.635 59.3555 151.3L53.7613 151.3ZM63.1895 157L64.6969 157L64.6969 152.856L66.0548 152.856L69.276 157L71.2184 157L67.2061 151.911L71.1656 147.183L69.2232 147.183L65.6944 151.45L64.6969 151.45L64.6969 147.183L63.1895 147.183L63.1895 157ZM71.9842 157L72.4984 157C74.6693 157 75.2977 155.312 75.4383 152.091L75.5921 148.589L79.1956 148.589L79.1956 157L80.7029 157L80.7029 147.183L74.1595 147.183L73.9793 151.529C73.8519 154.825 73.5179 155.594 72.3445 155.594L71.9842 155.594L71.9842 157ZM86.3567 157.229C88.0662 157.229 88.9627 156.31 89.2703 155.668L89.345 155.668L89.345 157L90.8567 157L90.8567 150.531C90.8567 147.411 88.4793 147.055 87.2224 147.055C85.7415 147.055 84.054 147.565 83.2849 149.354L84.7175 149.868C85.0515 149.151 85.8382 148.382 87.2752 148.382C88.6638 148.382 89.345 149.121 89.345 150.377L89.345 150.43C89.345 151.16 88.6067 151.094 86.8137 151.322C84.9944 151.56 83.0037 151.964 83.0037 154.214C83.0037 156.13 84.489 157.229 86.3567 157.229ZM86.5852 155.875C85.3855 155.875 84.5154 155.339 84.5154 154.289C84.5154 153.137 85.5613 152.781 86.739 152.627C87.3762 152.553 89.0901 152.373 89.345 152.065L89.345 153.445C89.345 154.675 88.3738 155.875 86.5852 155.875ZM98.9858 154.957L95.6108 147.183L93.6157 147.183L93.6157 157L95.123 157L95.123 149.349L98.3706 157L99.601 157L102.849 149.49L102.849 157L104.356 157L104.356 147.183L102.414 147.183L98.9858 154.957ZM108.623 147.183L107.116 147.183L107.116 157L108.623 157L108.623 152.808L113.33 152.808L113.33 157L114.837 157L114.837 147.183L113.33 147.183L113.33 151.401L108.623 151.401L108.623 147.183ZM119.106 150.738L119.106 147.183L117.599 147.183L117.599 157L121.716 157C124.019 157 125.271 155.594 125.271 153.832C125.271 152.039 124.019 150.738 121.716 150.738L119.106 150.738ZM126.832 157L128.339 157L128.339 147.183L126.832 147.183L126.832 157ZM119.106 152.144L121.716 152.144C122.912 152.144 123.76 152.869 123.76 153.906C123.76 154.895 122.912 155.594 121.716 155.594L119.106 155.594L119.106 152.144ZM135.216 157.207C137.211 157.207 138.666 156.209 139.127 154.724L137.668 154.315C137.286 155.339 136.398 155.849 135.216 155.849C133.445 155.849 132.224 154.706 132.153 152.601L139.281 152.601L139.281 151.964C139.281 148.308 137.106 147.055 135.062 147.055C132.404 147.055 130.637 149.151 130.637 152.166C130.637 155.185 132.377 157.207 135.216 157.207ZM132.153 151.3C132.254 149.771 133.335 148.409 135.062 148.409C136.697 148.409 137.748 149.635 137.748 151.3L132.153 151.3ZM149.536 157.229C151.245 157.229 152.142 156.31 152.449 155.668L152.524 155.668L152.524 157L154.036 157L154.036 150.531C154.036 147.411 151.658 147.055 150.401 147.055C148.92 147.055 147.233 147.565 146.464 149.354L147.897 149.868C148.231 149.151 149.017 148.382 150.454 148.382C151.843 148.382 152.524 149.121 152.524 150.377L152.524 150.43C152.524 151.16 151.786 151.094 149.993 151.322C148.173 151.56 146.183 151.964 146.183 154.214C146.183 156.13 147.668 157.229 149.536 157.229ZM149.764 155.875C148.564 155.875 147.694 155.339 147.694 154.289C147.694 153.137 148.74 152.781 149.918 152.627C150.555 152.553 152.269 152.373 152.524 152.065L152.524 153.445C152.524 154.675 151.553 155.875 149.764 155.875ZM162.855 147.183L156.795 147.183L156.795 157L158.302 157L158.302 148.589L162.855 148.589L162.855 147.183ZM168.659 157.207C170.655 157.207 172.109 156.209 172.571 154.724L171.112 154.315C170.729 155.339 169.842 155.849 168.659 155.849C166.888 155.849 165.667 154.706 165.596 152.601L172.724 152.601L172.724 151.964C172.724 148.308 170.549 147.055 168.506 147.055C165.847 147.055 164.08 149.151 164.08 152.166C164.08 155.185 165.821 157.207 168.659 157.207ZM165.596 151.3C165.698 149.771 166.779 148.409 168.506 148.409C170.14 148.409 171.191 149.635 171.191 151.3L165.596 151.3ZM176.532 147.183L175.025 147.183L175.025 157L176.532 157L176.532 152.808L181.239 152.808L181.239 157L182.746 157L182.746 147.183L181.239 147.183L181.239 151.401L176.532 151.401L176.532 147.183ZM184.178 148.589L187.426 148.589L187.426 157L188.933 157L188.933 148.589L192.154 148.589L192.154 147.183L184.178 147.183L184.178 148.589ZM197.833 157.207C200.004 157.207 201.437 155.875 201.692 154.135L200.184 154.135C199.903 155.211 199.007 155.849 197.833 155.849C196.045 155.849 194.893 154.368 194.893 152.091C194.893 149.868 196.067 148.409 197.833 148.409C199.16 148.409 199.956 149.226 200.184 150.123L201.692 150.123C201.437 148.281 199.877 147.055 197.807 147.055C195.148 147.055 193.382 149.151 193.382 152.144C193.382 155.084 195.069 157.207 197.833 157.207ZM203.124 148.589L206.372 148.589L206.372 157L207.879 157L207.879 148.589L211.1 148.589L211.1 147.183L203.124 147.183L203.124 148.589ZM213.3 157L217.928 157C219.923 157 221.127 155.875 221.127 154.368C221.127 152.825 219.954 151.995 218.877 151.836C219.98 151.604 220.767 150.984 220.767 149.789C220.767 148.224 219.426 147.183 217.317 147.183L213.3 147.183L213.3 157ZM214.733 155.62L214.733 152.601L217.928 152.601C218.965 152.601 219.589 153.221 219.589 154.24C219.589 155.097 218.965 155.62 217.928 155.62L214.733 155.62ZM214.733 151.3L214.733 148.562L217.317 148.562C218.525 148.562 219.259 149.068 219.259 149.894C219.259 150.769 218.525 151.3 217.317 151.3L214.733 151.3ZM226.291 157.229C228.001 157.229 228.897 156.31 229.205 155.668L229.28 155.668L229.28 157L230.791 157L230.791 150.531C230.791 147.411 228.414 147.055 227.157 147.055C225.676 147.055 223.989 147.565 223.22 149.354L224.652 149.868C224.986 149.151 225.773 148.382 227.21 148.382C228.598 148.382 229.28 149.121 229.28 150.377L229.28 150.43C229.28 151.16 228.541 151.094 226.748 151.322C224.929 151.56 222.938 151.964 222.938 154.214C222.938 156.13 224.424 157.229 226.291 157.229ZM226.52 155.875C225.32 155.875 224.45 155.339 224.45 154.289C224.45 153.137 225.496 152.781 226.674 152.627C227.311 152.553 229.025 152.373 229.28 152.065L229.28 153.445C229.28 154.675 228.308 155.875 226.52 155.875ZM242.603 157.207C245.262 157.207 247.05 155.185 247.05 152.144C247.05 149.072 245.262 147.055 242.603 147.055C239.944 147.055 238.151 149.072 238.151 152.144C238.151 155.185 239.944 157.207 242.603 157.207ZM242.603 155.849C240.582 155.849 239.663 154.113 239.663 152.144C239.663 150.175 240.582 148.409 242.603 148.409C244.62 148.409 245.543 150.175 245.543 152.144C245.543 154.113 244.62 155.849 242.603 155.849ZM256.638 143.5C256.159 143.904 255.442 143.904 254.44 143.896C254.115 143.896 253.755 143.896 253.368 143.909C250.375 143.988 248.89 146.26 248.89 150.632L248.89 151.683C248.89 155.312 250.657 157.207 253.289 157.207C255.917 157.207 257.662 155.299 257.662 152.219C257.662 149.125 255.891 147.49 253.597 147.49C252.247 147.49 250.991 148.053 250.323 149.279L250.195 149.279C250.402 146.748 251.347 145.394 253.39 145.315C255.209 145.24 256.51 145.289 257.407 144.418L256.638 143.5ZM253.289 155.849C251.5 155.849 250.402 154.416 250.402 152.219C250.433 150.07 251.514 148.844 253.263 148.844C255.06 148.844 256.154 150.07 256.154 152.219C256.154 154.429 255.069 155.849 253.289 155.849ZM261.47 150.738L261.47 147.183L259.962 147.183L259.962 157L264.08 157C266.383 157 267.635 155.594 267.635 153.832C267.635 152.039 266.383 150.738 264.08 150.738L261.47 150.738ZM269.195 157L270.703 157L270.703 147.183L269.195 147.183L269.195 157ZM261.47 152.144L264.08 152.144C265.275 152.144 266.123 152.869 266.123 153.906C266.123 154.895 265.275 155.594 264.08 155.594L261.47 155.594L261.47 152.144ZM281.03 147.183L279.522 147.183L279.522 152.162C278.793 152.373 278.046 152.5 277.145 152.5C275.919 152.5 274.97 151.81 274.97 150.303L274.97 147.156L273.462 147.156L273.462 150.303C273.462 152.707 274.921 153.906 277.145 153.906C278.072 153.906 278.815 153.783 279.522 153.572L279.522 157L281.03 157L281.03 147.183ZM285.299 147.183L283.792 147.183L283.792 157L285.299 157L285.299 152.808L290.006 152.808L290.006 157L291.513 157L291.513 147.183L290.006 147.183L290.006 151.401L285.299 151.401L285.299 147.183ZM298.265 157.207C300.924 157.207 302.712 155.185 302.712 152.144C302.712 149.072 300.924 147.055 298.265 147.055C295.606 147.055 293.813 149.072 293.813 152.144C293.813 155.185 295.606 157.207 298.265 157.207ZM298.265 155.849C296.244 155.849 295.325 154.113 295.325 152.144C295.325 150.175 296.244 148.409 298.265 148.409C300.282 148.409 301.205 150.175 301.205 152.144C301.205 154.113 300.282 155.849 298.265 155.849ZM311.583 154.776L311.583 147.183L310.076 147.183L310.076 157L311.842 157L316.545 149.406L316.545 157L318.052 157L318.052 147.183L316.316 147.183L311.583 154.776ZM326.185 154.957L322.81 147.183L320.815 147.183L320.815 157L322.322 157L322.322 149.349L325.569 157L326.8 157L330.047 149.49L330.047 157L331.555 157L331.555 147.183L329.612 147.183L326.185 154.957ZM338.432 157.207C340.427 157.207 341.882 156.209 342.343 154.724L340.884 154.315C340.502 155.339 339.614 155.849 338.432 155.849C336.661 155.849 335.44 154.706 335.369 152.601L342.497 152.601L342.497 151.964C342.497 148.308 340.322 147.055 338.278 147.055C335.62 147.055 333.853 149.151 333.853 152.166C333.853 155.185 335.593 157.207 338.432 157.207ZM335.369 151.3C335.47 149.771 336.551 148.409 338.278 148.409C339.913 148.409 340.963 149.635 340.963 151.3L335.369 151.3ZM345.593 147.183L344.081 147.183L344.081 157L345.593 157L345.593 152.882L348.111 152.882C348.379 155.51 350.084 157.207 352.519 157.207C355.177 157.207 356.97 155.185 356.97 152.144C356.97 149.072 355.177 147.055 352.519 147.055C350.058 147.055 348.339 148.787 348.102 151.476L345.593 151.476L345.593 147.183ZM352.519 155.849C350.502 155.849 349.579 154.113 349.579 152.144C349.579 150.175 350.502 148.409 352.519 148.409C354.54 148.409 355.459 150.175 355.459 152.144C355.459 154.113 354.54 155.849 352.519 155.849ZM358.144 148.589L361.392 148.589L361.392 157L362.899 157L362.899 148.589L366.12 148.589L366.12 147.183L358.144 147.183L358.144 148.589ZM372.337 159.812L373.844 159.812L373.844 157L381.104 157L381.104 159.812L382.616 159.812L382.616 155.594L381.104 155.594L381.104 147.183L374.868 147.183L374.534 151.067C374.297 153.818 373.945 154.763 373.154 155.594L372.337 155.594L372.337 159.812ZM374.868 155.594C375.558 154.684 375.804 153.12 376.015 151.067L376.274 148.589L379.597 148.589L379.597 155.594L374.868 155.594ZM388.597 157.207C391.256 157.207 393.045 155.185 393.045 152.144C393.045 149.072 391.256 147.055 388.597 147.055C385.939 147.055 384.146 149.072 384.146 152.144C384.146 155.185 385.939 157.207 388.597 157.207ZM388.597 155.849C386.576 155.849 385.657 154.113 385.657 152.144C385.657 150.175 386.576 148.409 388.597 148.409C390.614 148.409 391.537 150.175 391.537 152.144C391.537 154.113 390.614 155.849 388.597 155.849ZM399.336 157.207C401.507 157.207 402.94 155.875 403.194 154.135L401.687 154.135C401.406 155.211 400.509 155.849 399.336 155.849C397.547 155.849 396.396 154.368 396.396 152.091C396.396 149.868 397.569 148.409 399.336 148.409C400.663 148.409 401.459 149.226 401.687 150.123L403.194 150.123C402.94 148.281 401.379 147.055 399.31 147.055C396.651 147.055 394.884 149.151 394.884 152.144C394.884 155.084 396.572 157.207 399.336 157.207ZM404.627 148.589L407.875 148.589L407.875 157L409.382 157L409.382 148.589L412.603 148.589L412.603 147.183L404.627 147.183L404.627 148.589ZM415.774 160.683C417.137 160.683 418.095 159.958 418.666 158.433L422.832 147.183L421.197 147.183L418.486 155.005L418.385 155.005L415.673 147.183L414.039 147.183L417.668 157.053L417.387 157.817C416.838 159.316 416.161 159.457 415.058 159.175L414.676 160.502C414.83 160.582 415.265 160.683 415.774 160.683ZM424.826 157L426.333 157L426.333 148.589L431.04 148.589L431.04 157L432.547 157L432.547 147.183L424.826 147.183L424.826 157ZM440.371 157L441.879 157L441.879 152.856L443.237 152.856L446.458 157L448.4 157L444.388 151.911L448.347 147.183L446.405 147.183L442.876 151.45L441.879 151.45L441.879 147.183L440.371 147.183L440.371 157ZM459.089 157.207C461.26 157.207 462.692 155.875 462.947 154.135L461.44 154.135C461.159 155.211 460.262 155.849 459.089 155.849C457.3 155.849 456.149 154.368 456.149 152.091C456.149 149.868 457.322 148.409 459.089 148.409C460.416 148.409 461.211 149.226 461.44 150.123L462.947 150.123C462.692 148.281 461.132 147.055 459.062 147.055C456.404 147.055 454.637 149.151 454.637 152.144C454.637 155.084 456.325 157.207 459.089 157.207ZM468.039 157.229C469.748 157.229 470.645 156.31 470.952 155.668L471.027 155.668L471.027 157L472.539 157L472.539 150.531C472.539 147.411 470.161 147.055 468.904 147.055C467.423 147.055 465.736 147.565 464.967 149.354L466.399 149.868C466.733 149.151 467.52 148.382 468.957 148.382C470.346 148.382 471.027 149.121 471.027 150.377L471.027 150.43C471.027 151.16 470.289 151.094 468.496 151.322C466.676 151.56 464.686 151.964 464.686 154.214C464.686 156.13 466.171 157.229 468.039 157.229ZM468.267 155.875C467.067 155.875 466.197 155.339 466.197 154.289C466.197 153.137 467.243 152.781 468.421 152.627C469.058 152.553 470.772 152.373 471.027 152.065L471.027 153.445C471.027 154.675 470.056 155.875 468.267 155.875ZM480.668 154.957L477.293 147.183L475.298 147.183L475.298 157L476.805 157L476.805 149.349L480.052 157L481.283 157L484.53 149.49L484.53 157L486.038 157L486.038 147.183L484.095 147.183L480.668 154.957ZM490.305 150.738L490.305 147.183L488.798 147.183L488.798 157L492.915 157C495.218 157 496.47 155.594 496.47 153.832C496.47 152.039 495.218 150.738 492.915 150.738L490.305 150.738ZM498.03 157L499.538 157L499.538 147.183L498.03 147.183L498.03 157ZM490.305 152.144L492.915 152.144C494.111 152.144 494.959 152.869 494.959 153.906C494.959 154.895 494.111 155.594 492.915 155.594L490.305 155.594L490.305 152.144ZM507.668 154.957L504.293 147.183L502.298 147.183L502.298 157L503.805 157L503.805 149.349L507.052 157L508.283 157L511.53 149.49L511.53 157L513.038 157L513.038 147.183L511.095 147.183L507.668 154.957ZM41.3799 179L42.8872 179L42.8872 170.589L47.5938 170.589L47.5938 179L49.1011 179L49.1011 169.183L41.3799 169.183L41.3799 179ZM55.9805 179.207C57.9756 179.207 59.4302 178.209 59.8916 176.724L58.4327 176.315C58.0503 177.339 57.1626 177.849 55.9805 177.849C54.2095 177.849 52.9878 176.706 52.9175 174.601L60.0455 174.601L60.0455 173.964C60.0455 170.308 57.8702 169.055 55.8267 169.055C53.168 169.055 51.4014 171.151 51.4014 174.166C51.4014 177.185 53.1416 179.207 55.9805 179.207ZM52.9175 173.3C53.0186 171.771 54.0997 170.409 55.8267 170.409C57.4615 170.409 58.5118 171.635 58.5118 173.3L52.9175 173.3ZM62.3458 182.683L63.8531 182.683L63.8531 177.493L63.985 177.493C64.3145 178.029 64.9561 179.207 66.8458 179.207C69.3023 179.207 71.0162 177.238 71.0162 174.118C71.0162 171.024 69.3023 169.055 66.8194 169.055C64.9034 169.055 64.3145 170.229 63.985 170.743L63.8048 170.743L63.8048 169.183L62.3458 169.183L62.3458 182.683ZM63.8311 174.091C63.8311 171.894 64.8023 170.409 66.6436 170.409C68.5597 170.409 69.5045 172.021 69.5045 174.091C69.5045 176.188 68.5333 177.849 66.6436 177.849C64.8287 177.849 63.8311 176.315 63.8311 174.091ZM77.4322 179.207C79.4273 179.207 80.8819 178.209 81.3434 176.724L79.8844 176.315C79.502 177.339 78.6143 177.849 77.4322 177.849C75.6612 177.849 74.4395 176.706 74.3692 174.601L81.4972 174.601L81.4972 173.964C81.4972 170.308 79.3219 169.055 77.2784 169.055C74.6197 169.055 72.8531 171.151 72.8531 174.166C72.8531 177.185 74.5934 179.207 77.4322 179.207ZM74.3692 173.3C74.4703 171.771 75.5514 170.409 77.2784 170.409C78.9132 170.409 79.9635 171.635 79.9635 173.3L74.3692 173.3ZM82.7516 181.812L84.2589 181.812L84.2589 179L91.5187 179L91.5187 181.812L93.0304 181.812L93.0304 177.594L91.5187 177.594L91.5187 169.183L85.2828 169.183L84.9489 173.067C84.7116 175.818 84.36 176.763 83.569 177.594L82.7516 177.594L82.7516 181.812ZM85.2828 177.594C85.9728 176.684 86.2189 175.12 86.4298 173.067L86.6891 170.589L90.0114 170.589L90.0114 177.594L85.2828 177.594ZM99.0122 179.207C101.671 179.207 103.459 177.185 103.459 174.144C103.459 171.072 101.671 169.055 99.0122 169.055C96.3535 169.055 94.5605 171.072 94.5605 174.144C94.5605 177.185 96.3535 179.207 99.0122 179.207ZM99.0122 177.849C96.9907 177.849 96.0722 176.113 96.0722 174.144C96.0722 172.175 96.9907 170.409 99.0122 170.409C101.029 170.409 101.952 172.175 101.952 174.144C101.952 176.113 101.029 177.849 99.0122 177.849ZM105.761 179L110.388 179C112.383 179 113.587 177.875 113.587 176.368C113.587 174.825 112.414 173.995 111.337 173.836C112.44 173.604 113.227 172.984 113.227 171.789C113.227 170.224 111.887 169.183 109.777 169.183L105.761 169.183L105.761 179ZM107.193 177.62L107.193 174.601L110.388 174.601C111.425 174.601 112.049 175.221 112.049 176.24C112.049 177.097 111.425 177.62 110.388 177.62L107.193 177.62ZM107.193 173.3L107.193 170.562L109.777 170.562C110.986 170.562 111.72 171.068 111.72 171.894C111.72 172.769 110.986 173.3 109.777 173.3L107.193 173.3ZM117.367 172.738L117.367 169.183L115.86 169.183L115.86 179L119.978 179C122.28 179 123.533 177.594 123.533 175.832C123.533 174.039 122.28 172.738 119.978 172.738L117.367 172.738ZM125.093 179L126.6 179L126.6 169.183L125.093 169.183L125.093 179ZM117.367 174.144L119.978 174.144C121.173 174.144 122.021 174.869 122.021 175.906C122.021 176.895 121.173 177.594 119.978 177.594L117.367 177.594L117.367 174.144ZM134.73 176.957L131.355 169.183L129.36 169.183L129.36 179L130.867 179L130.867 171.349L134.115 179L135.345 179L138.593 171.49L138.593 179L140.1 179L140.1 169.183L138.158 169.183L134.73 176.957ZM149.43 176.776L149.43 169.183L147.922 169.183L147.922 179L149.689 179L154.391 171.406L154.391 179L155.899 179L155.899 169.183L154.163 169.183L149.43 176.776ZM160.168 169.183L158.661 169.183L158.661 179L160.168 179L160.168 174.808L164.875 174.808L164.875 179L166.382 179L166.382 169.183L164.875 169.183L164.875 173.401L160.168 173.401L160.168 169.183ZM173.134 179.207C175.305 179.207 176.738 177.875 176.993 176.135L175.485 176.135C175.204 177.211 174.308 177.849 173.134 177.849C171.346 177.849 170.194 176.368 170.194 174.091C170.194 171.868 171.368 170.409 173.134 170.409C174.461 170.409 175.257 171.226 175.485 172.123L176.993 172.123C176.738 170.281 175.178 169.055 173.108 169.055C170.449 169.055 168.683 171.151 168.683 174.144C168.683 177.084 170.37 179.207 173.134 179.207ZM178.425 170.589L181.673 170.589L181.673 179L183.18 179L183.18 170.589L186.401 170.589L186.401 169.183L178.425 169.183L178.425 170.589ZM188.601 182.683L190.109 182.683L190.109 177.493L190.241 177.493C190.57 178.029 191.212 179.207 193.101 179.207C195.558 179.207 197.272 177.238 197.272 174.118C197.272 171.024 195.558 169.055 193.075 169.055C191.159 169.055 190.57 170.229 190.241 170.743L190.06 170.743L190.06 169.183L188.601 169.183L188.601 182.683ZM190.087 174.091C190.087 171.894 191.058 170.409 192.899 170.409C194.815 170.409 195.76 172.021 195.76 174.091C195.76 176.188 194.789 177.849 192.899 177.849C191.084 177.849 190.087 176.315 190.087 174.091ZM200.183 182.683C201.546 182.683 202.504 181.958 203.075 180.433L207.241 169.183L205.606 169.183L202.895 177.005L202.794 177.005L200.082 169.183L198.448 169.183L202.077 179.053L201.796 179.817C201.247 181.316 200.57 181.457 199.467 181.175L199.085 182.502C199.239 182.582 199.674 182.683 200.183 182.683ZM214.605 176.957L211.23 169.183L209.235 169.183L209.235 179L210.742 179L210.742 171.349L213.99 179L215.22 179L218.468 171.49L218.468 179L219.975 179L219.975 169.183L218.033 169.183L214.605 176.957ZM226.853 179.207C228.848 179.207 230.302 178.209 230.764 176.724L229.305 176.315C228.922 177.339 228.035 177.849 226.853 177.849C225.082 177.849 223.86 176.706 223.79 174.601L230.918 174.601L230.918 173.964C230.918 170.308 228.742 169.055 226.699 169.055C224.04 169.055 222.274 171.151 222.274 174.166C222.274 177.185 224.014 179.207 226.853 179.207ZM223.79 173.3C223.891 171.771 224.972 170.409 226.699 170.409C228.334 170.409 229.384 171.635 229.384 173.3L223.79 173.3ZM234.725 169.183L233.218 169.183L233.218 179L234.725 179L234.725 174.808L239.432 174.808L239.432 179L240.939 179L240.939 169.183L239.432 169.183L239.432 173.401L234.725 173.401L234.725 169.183ZM242.371 170.589L245.619 170.589L245.619 179L247.126 179L247.126 170.589L250.347 170.589L250.347 169.183L242.371 169.183L242.371 170.589ZM254.928 179.229C256.637 179.229 257.534 178.31 257.841 177.668L257.916 177.668L257.916 179L259.428 179L259.428 172.531C259.428 169.411 257.05 169.055 255.793 169.055C254.312 169.055 252.625 169.565 251.856 171.354L253.289 171.868C253.623 171.151 254.409 170.382 255.846 170.382C257.235 170.382 257.916 171.121 257.916 172.377L257.916 172.43C257.916 173.16 257.178 173.094 255.385 173.322C253.565 173.56 251.575 173.964 251.575 176.214C251.575 178.13 253.06 179.229 254.928 179.229ZM255.156 177.875C253.957 177.875 253.086 177.339 253.086 176.289C253.086 175.137 254.132 174.781 255.31 174.627C255.947 174.553 257.661 174.373 257.916 174.065L257.916 175.445C257.916 176.675 256.945 177.875 255.156 177.875ZM267.557 176.957L264.182 169.183L262.187 169.183L262.187 179L263.694 179L263.694 171.349L266.942 179L268.172 179L271.42 171.49L271.42 179L272.927 179L272.927 169.183L270.985 169.183L267.557 176.957ZM282.257 176.776L282.257 169.183L280.749 169.183L280.749 179L282.516 179L287.218 171.406L287.218 179L288.725 179L288.725 169.183L286.989 169.183L282.257 176.776ZM295.988 170.589L299.235 170.589L299.235 179L300.743 179L300.743 170.589L303.964 170.589L303.964 169.183L295.988 169.183L295.988 170.589ZM309.77 179.207C311.765 179.207 313.22 178.209 313.681 176.724L312.222 176.315C311.84 177.339 310.952 177.849 309.77 177.849C307.999 177.849 306.778 176.706 306.707 174.601L313.835 174.601L313.835 173.964C313.835 170.308 311.66 169.055 309.616 169.055C306.958 169.055 305.191 171.151 305.191 174.166C305.191 177.185 306.931 179.207 309.77 179.207ZM306.707 173.3C306.808 171.771 307.889 170.409 309.616 170.409C311.251 170.409 312.302 171.635 312.302 173.3L306.707 173.3ZM317.005 169.183L315.269 169.183L318.385 174.091L315.269 179L317.005 179L319.356 175.19L321.711 179L323.447 179L320.279 174.091L323.447 169.183L321.711 169.183L319.356 173.195L317.005 169.183ZM327.103 169.183L325.596 169.183L325.596 179L327.103 179L327.103 174.808L331.81 174.808L331.81 179L333.317 179L333.317 169.183L331.81 169.183L331.81 173.401L327.103 173.401L327.103 169.183ZM340.069 179.207C342.728 179.207 344.516 177.185 344.516 174.144C344.516 171.072 342.728 169.055 340.069 169.055C337.41 169.055 335.617 171.072 335.617 174.144C335.617 177.185 337.41 179.207 340.069 179.207ZM340.069 177.849C338.047 177.849 337.129 176.113 337.129 174.144C337.129 172.175 338.047 170.409 340.069 170.409C342.086 170.409 343.009 172.175 343.009 174.144C343.009 176.113 342.086 177.849 340.069 177.849ZM345.947 179L346.461 179C348.632 179 349.261 177.312 349.401 174.091L349.555 170.589L353.159 170.589L353.159 179L354.666 179L354.666 169.183L348.123 169.183L347.942 173.529C347.815 176.825 347.481 177.594 346.308 177.594L345.947 177.594L345.947 179ZM361.418 179.207C364.077 179.207 365.866 177.185 365.866 174.144C365.866 171.072 364.077 169.055 361.418 169.055C358.76 169.055 356.967 171.072 356.967 174.144C356.967 177.185 358.76 179.207 361.418 179.207ZM361.418 177.849C359.397 177.849 358.478 176.113 358.478 174.144C358.478 172.175 359.397 170.409 361.418 170.409C363.436 170.409 364.358 172.175 364.358 174.144C364.358 176.113 363.436 177.849 361.418 177.849ZM374.227 169.183L368.167 169.183L368.167 179L369.674 179L369.674 170.589L374.227 170.589L374.227 169.183ZM377.933 176.776L377.933 169.183L376.425 169.183L376.425 179L378.192 179L382.894 171.406L382.894 179L384.401 179L384.401 169.183L382.666 169.183L377.933 176.776ZM393.07 179L394.503 179L394.503 169.183L390.464 169.183C388.346 169.183 387.063 170.286 387.063 172.096C387.063 173.445 387.74 174.403 388.922 174.808L386.527 179L388.162 179L390.438 175.01L393.07 175.01L393.07 179ZM393.07 173.604L390.284 173.604C389.216 173.604 388.57 173.037 388.57 172.096C388.57 171.143 389.287 170.562 390.464 170.562L393.07 170.562L393.07 173.604ZM402.634 176.957L399.259 169.183L397.263 169.183L397.263 179L398.771 179L398.771 171.349L402.018 179L403.249 179L406.496 171.49L406.496 179L408.004 179L408.004 169.183L406.061 169.183L402.634 176.957ZM415.826 179L420.453 179C422.448 179 423.653 177.875 423.653 176.368C423.653 174.825 422.479 173.995 421.403 173.836C422.506 173.604 423.292 172.984 423.292 171.789C423.292 170.224 421.952 169.183 419.843 169.183L415.826 169.183L415.826 179ZM417.259 177.62L417.259 174.601L420.453 174.601C421.49 174.601 422.115 175.221 422.115 176.24C422.115 177.097 421.49 177.62 420.453 177.62L417.259 177.62ZM417.259 173.3L417.259 170.562L419.843 170.562C421.051 170.562 421.785 171.068 421.785 171.894C421.785 172.769 421.051 173.3 419.843 173.3L417.259 173.3ZM434.978 179.207C437.637 179.207 439.425 177.185 439.425 174.144C439.425 171.072 437.637 169.055 434.978 169.055C432.319 169.055 430.526 171.072 430.526 174.144C430.526 177.185 432.319 179.207 434.978 179.207ZM434.978 177.849C432.957 177.849 432.038 176.113 432.038 174.144C432.038 172.175 432.957 170.409 434.978 170.409C436.995 170.409 437.918 172.175 437.918 174.144C437.918 176.113 436.995 177.849 434.978 177.849ZM449.013 165.5C448.534 165.904 447.817 165.904 446.815 165.896C446.49 165.896 446.13 165.896 445.743 165.909C442.75 165.988 441.265 168.26 441.265 172.632L441.265 173.683C441.265 177.312 443.032 179.207 445.664 179.207C448.292 179.207 450.037 177.299 450.037 174.219C450.037 171.125 448.266 169.49 445.972 169.49C444.622 169.49 443.366 170.053 442.698 171.279L442.57 171.279C442.777 168.748 443.722 167.394 445.765 167.315C447.584 167.24 448.885 167.289 449.782 166.418L449.013 165.5ZM445.664 177.849C443.875 177.849 442.777 176.416 442.777 174.219C442.808 172.07 443.889 170.844 445.638 170.844C447.435 170.844 448.529 172.07 448.529 174.219C448.529 176.429 447.444 177.849 445.664 177.849ZM451.467 179L451.981 179C454.152 179 454.781 177.312 454.921 174.091L455.075 170.589L458.679 170.589L458.679 179L460.186 179L460.186 169.183L453.642 169.183L453.462 173.529C453.335 176.825 453.001 177.594 451.828 177.594L451.467 177.594L451.467 179ZM465.84 179.229C467.549 179.229 468.446 178.31 468.753 177.668L468.828 177.668L468.828 179L470.34 179L470.34 172.531C470.34 169.411 467.962 169.055 466.705 169.055C465.224 169.055 463.537 169.565 462.768 171.354L464.201 171.868C464.535 171.151 465.321 170.382 466.758 170.382C468.147 170.382 468.828 171.121 468.828 172.377L468.828 172.43C468.828 173.16 468.09 173.094 466.297 173.322C464.477 173.56 462.487 173.964 462.487 176.214C462.487 178.13 463.972 179.229 465.84 179.229ZM466.068 177.875C464.869 177.875 463.998 177.339 463.998 176.289C463.998 175.137 465.044 174.781 466.222 174.627C466.859 174.553 468.573 174.373 468.828 174.065L468.828 175.445C468.828 176.675 467.857 177.875 466.068 177.875ZM477.089 179.207C479.26 179.207 480.692 177.875 480.947 176.135L479.44 176.135C479.159 177.211 478.262 177.849 477.089 177.849C475.3 177.849 474.149 176.368 474.149 174.091C474.149 171.868 475.322 170.409 477.089 170.409C478.416 170.409 479.211 171.226 479.44 172.123L480.947 172.123C480.692 170.281 479.132 169.055 477.063 169.055C474.404 169.055 472.637 171.151 472.637 174.144C472.637 177.084 474.325 179.207 477.089 179.207ZM482.38 170.589L485.628 170.589L485.628 179L487.135 179L487.135 170.589L490.356 170.589L490.356 169.183L482.38 169.183L482.38 170.589ZM494.063 176.776L494.063 169.183L492.556 169.183L492.556 179L494.323 179L499.025 171.406L499.025 179L500.532 179L500.532 169.183L498.796 169.183L494.063 176.776ZM46.75 198.957L43.375 191.183L41.3799 191.183L41.3799 201L42.8872 201L42.8872 193.349L46.1348 201L47.3652 201L50.6128 193.49L50.6128 201L52.1201 201L52.1201 191.183L50.1777 191.183L46.75 198.957ZM57.7715 201.229C59.481 201.229 60.3774 200.31 60.6851 199.668L60.7598 199.668L60.7598 201L62.2715 201L62.2715 194.531C62.2715 191.411 59.894 191.055 58.6372 191.055C57.1562 191.055 55.4688 191.565 54.6997 193.354L56.1323 193.868C56.4663 193.151 57.2529 192.382 58.6899 192.382C60.0786 192.382 60.7598 193.121 60.7598 194.377L60.7598 194.43C60.7598 195.16 60.0215 195.094 58.2285 195.322C56.4092 195.56 54.4185 195.964 54.4185 198.214C54.4185 200.13 55.9038 201.229 57.7715 201.229ZM58 199.875C56.8003 199.875 55.9302 199.339 55.9302 198.289C55.9302 197.137 56.9761 196.781 58.1538 196.627C58.791 196.553 60.5049 196.373 60.7598 196.065L60.7598 197.445C60.7598 198.675 59.7886 199.875 58 199.875ZM65.0304 204.683L66.5378 204.683L66.5378 199.493L66.6696 199.493C66.9992 200.029 67.6408 201.207 69.5304 201.207C71.987 201.207 73.7009 199.238 73.7009 196.118C73.7009 193.024 71.987 191.055 69.5041 191.055C67.5881 191.055 66.9992 192.229 66.6696 192.743L66.4894 192.743L66.4894 191.183L65.0304 191.183L65.0304 204.683ZM66.5158 196.091C66.5158 193.894 67.487 192.409 69.3283 192.409C71.2443 192.409 72.1891 194.021 72.1891 196.091C72.1891 198.188 71.2179 199.849 69.3283 199.849C67.5134 199.849 66.5158 198.315 66.5158 196.091ZM75.9992 201L77.5065 201L77.5065 196.856L78.8644 196.856L82.0856 201L84.028 201L80.0158 195.911L83.9753 191.183L82.0329 191.183L78.5041 195.45L77.5065 195.45L77.5065 191.183L75.9992 191.183L75.9992 201ZM89.3726 201.207C91.3677 201.207 92.8223 200.209 93.2837 198.724L91.8247 198.315C91.4424 199.339 90.5547 199.849 89.3726 199.849C87.6016 199.849 86.3799 198.706 86.3096 196.601L93.4375 196.601L93.4375 195.964C93.4375 192.308 91.2622 191.055 89.2188 191.055C86.5601 191.055 84.7935 193.151 84.7935 196.166C84.7935 199.185 86.5337 201.207 89.3726 201.207ZM86.3096 195.3C86.4106 193.771 87.4917 192.409 89.2188 192.409C90.8535 192.409 91.9038 193.635 91.9038 195.3L86.3096 195.3ZM94.8174 192.589L98.0649 192.589L98.0649 201L99.5723 201L99.5723 192.589L102.793 192.589L102.793 191.183L94.8174 191.183L94.8174 192.589ZM106.501 198.776L106.501 191.183L104.994 191.183L104.994 201L106.76 201L111.462 193.406L111.462 201L112.97 201L112.97 191.183L111.234 191.183L106.501 198.776ZM117.239 191.183L115.732 191.183L115.732 201L117.239 201L117.239 196.808L121.946 196.808L121.946 201L123.453 201L123.453 191.183L121.946 191.183L121.946 195.401L117.239 195.401L117.239 191.183ZM132.275 191.183L126.215 191.183L126.215 201L127.722 201L127.722 192.589L132.275 192.589L132.275 191.183ZM136.854 201.229C138.563 201.229 139.46 200.31 139.767 199.668L139.842 199.668L139.842 201L141.354 201L141.354 194.531C141.354 191.411 138.976 191.055 137.72 191.055C136.239 191.055 134.551 191.565 133.782 193.354L135.215 193.868C135.549 193.151 136.335 192.382 137.772 192.382C139.161 192.382 139.842 193.121 139.842 194.377L139.842 194.43C139.842 195.16 139.104 195.094 137.311 195.322C135.492 195.56 133.501 195.964 133.501 198.214C133.501 200.13 134.986 201.229 136.854 201.229ZM137.082 199.875C135.883 199.875 135.013 199.339 135.013 198.289C135.013 197.137 136.058 196.781 137.236 196.627C137.873 196.553 139.587 196.373 139.842 196.065L139.842 197.445C139.842 198.675 138.871 199.875 137.082 199.875ZM150.683 198.776L150.683 191.183L149.175 191.183L149.175 201L150.942 201L155.644 193.406L155.644 201L157.151 201L157.151 191.183L155.416 191.183L150.683 198.776ZM164.976 204.683L166.484 204.683L166.484 199.493L166.616 199.493C166.945 200.029 167.587 201.207 169.476 201.207C171.933 201.207 173.647 199.238 173.647 196.118C173.647 193.024 171.933 191.055 169.45 191.055C167.534 191.055 166.945 192.229 166.616 192.743L166.435 192.743L166.435 191.183L164.976 191.183L164.976 204.683ZM166.462 196.091C166.462 193.894 167.433 192.409 169.274 192.409C171.19 192.409 172.135 194.021 172.135 196.091C172.135 198.188 171.164 199.849 169.274 199.849C167.459 199.849 166.462 198.315 166.462 196.091ZM180.063 201.207C182.058 201.207 183.513 200.209 183.974 198.724L182.515 198.315C182.133 199.339 181.245 199.849 180.063 199.849C178.292 199.849 177.07 198.706 177 196.601L184.128 196.601L184.128 195.964C184.128 192.308 181.953 191.055 179.909 191.055C177.25 191.055 175.484 193.151 175.484 196.166C175.484 199.185 177.224 201.207 180.063 201.207ZM177 195.3C177.101 193.771 178.182 192.409 179.909 192.409C181.544 192.409 182.594 193.635 182.594 195.3L177 195.3ZM186.428 201L187.936 201L187.936 196.856L189.293 196.856L192.515 201L194.457 201L190.445 195.911L194.404 191.183L192.462 191.183L188.933 195.45L187.936 195.45L187.936 191.183L186.428 191.183L186.428 201ZM195.223 201L195.737 201C197.908 201 198.536 199.312 198.677 196.091L198.831 192.589L202.434 192.589L202.434 201L203.942 201L203.942 191.183L197.398 191.183L197.218 195.529C197.091 198.825 196.757 199.594 195.583 199.594L195.223 199.594L195.223 201ZM209.595 201.229C211.305 201.229 212.201 200.31 212.509 199.668L212.584 199.668L212.584 201L214.095 201L214.095 194.531C214.095 191.411 211.718 191.055 210.461 191.055C208.98 191.055 207.293 191.565 206.524 193.354L207.956 193.868C208.29 193.151 209.077 192.382 210.514 192.382C211.902 192.382 212.584 193.121 212.584 194.377L212.584 194.43C212.584 195.16 211.845 195.094 210.052 195.322C208.233 195.56 206.242 195.964 206.242 198.214C206.242 200.13 207.728 201.229 209.595 201.229ZM209.824 199.875C208.624 199.875 207.754 199.339 207.754 198.289C207.754 197.137 208.8 196.781 209.978 196.627C210.615 196.553 212.329 196.373 212.584 196.065L212.584 197.445C212.584 198.675 211.612 199.875 209.824 199.875ZM222.224 198.957L218.849 191.183L216.854 191.183L216.854 201L218.362 201L218.362 193.349L221.609 201L222.84 201L226.087 193.49L226.087 201L227.595 201L227.595 191.183L225.652 191.183L222.224 198.957ZM231.862 194.738L231.862 191.183L230.354 191.183L230.354 201L234.472 201C236.775 201 238.027 199.594 238.027 197.832C238.027 196.039 236.775 194.738 234.472 194.738L231.862 194.738ZM239.587 201L241.095 201L241.095 191.183L239.587 191.183L239.587 201ZM231.862 196.144L234.472 196.144C235.667 196.144 236.515 196.869 236.515 197.906C236.515 198.895 235.667 199.594 234.472 199.594L231.862 199.594L231.862 196.144ZM244.953 201.101C245.586 201.101 246.104 200.583 246.104 199.95C246.104 199.317 245.586 198.803 244.953 198.803C244.32 198.803 243.806 199.317 243.806 199.95C243.806 200.583 244.32 201.101 244.953 201.101Z" fill="#A8A8A8" fill-opacity="1.000000" fill-rule="evenodd"/>
		<path id="Vector 2" d="M671 -21.5L722 131.5L592 144.5L565.5 242.5L656 312L805.5 300.5L791 190.5L776 -13.5L671 -21.5Z" fill="#FF3F62" fill-opacity="1.000000" fill-rule="evenodd"/>
		<path id="Vector 3" d="M734 17.6206L748.5 158L637 176.5L598 229.483L672.663 287L796 277.483L784.037 186.448L771.662 17.6206L734 17.6206Z" fill="#000000" fill-opacity="1.000000" fill-rule="evenodd"/>
	</g>
</svg>
