<svg width="206.000000" height="26.000000" viewBox="0 0 206 26" fill="none" xmlns="http://www.w3.org/2000/svg" xmlns:xlink="http://www.w3.org/1999/xlink">
	<desc>
			Created with Pixso.
	</desc>
	<defs>
		<clipPath id="clip1_331">
			<rect id="logo-twitter (2) 1" width="26.000000" height="26.000000" fill="white" fill-opacity="0"/>
		</clipPath>
		<clipPath id="clip1_333">
			<rect id="logo-twitter (2) 2" width="26.000000" height="26.000000" transform="translate(72.000000 0.000000)" fill="white" fill-opacity="0"/>
		</clipPath>
		<clipPath id="clip1_335">
			<rect id="logo-facebook (2) 1" width="26.000000" height="26.000000" transform="translate(108.000000 0.000000)" fill="white" fill-opacity="0"/>
		</clipPath>
		<clipPath id="clip1_337">
			<rect id="logo-vk 1" width="26.000000" height="26.000000" transform="translate(36.000000 0.000000)" fill="white" fill-opacity="0"/>
		</clipPath>
		<clipPath id="clip1_339">
			<rect id="logo-twitch 1" width="26.000000" height="26.000000" transform="translate(144.000000 0.000000)" fill="white" fill-opacity="0"/>
		</clipPath>
		<clipPath id="clip1_342">
			<rect id="logo-instagram (1) 1" width="26.000000" height="26.000000" transform="translate(180.000000 0.000000)" fill="white" fill-opacity="0"/>
		</clipPath>
	</defs>
	<rect id="logo-twitter (2) 1" width="26.000000" height="26.000000" fill="#FFFFFF" fill-opacity="0"/>
	<g clip-path="url(#clip1_331)">
		<path id="Vector" d="M25.1875 5.56055C24.2732 5.95801 23.3058 6.21973 22.3158 6.3374C23.3562 5.72852 24.1385 4.76074 24.5162 3.61572C23.5326 4.19092 22.4583 4.59424 21.3393 4.80908C20.8681 4.31494 20.3014 3.92236 19.6736 3.6543C19.0459 3.38623 18.3702 3.24854 17.6876 3.25C14.9241 3.25 12.6877 5.4541 12.6877 8.1709C12.6857 8.54883 12.729 8.92529 12.8167 9.29297C10.835 9.2002 8.89459 8.69434 7.11951 7.80859C5.34445 6.92285 3.7738 5.67627 2.50809 4.14893C2.06406 4.89746 1.82919 5.75146 1.82812 6.62207C1.82812 8.32812 2.71832 9.83643 4.0625 10.7197C3.26611 10.7012 2.48605 10.4902 1.78851 10.1055L1.78851 10.1665C1.78851 12.5532 3.51508 14.5386 5.80023 14.9907C5.37051 15.105 4.9277 15.1631 4.48297 15.1631C4.16739 15.1641 3.85257 15.1333 3.543 15.0718C4.17828 17.0269 6.02722 18.4487 8.21741 18.4893C6.43774 19.8608 4.25275 20.6025 2.00586 20.5967C1.60703 20.5962 1.20859 20.5728 0.8125 20.5259C3.09827 21.9854 5.75528 22.7573 8.46725 22.75C17.6769 22.75 22.7084 15.2495 22.7084 8.74463C22.7084 8.53125 22.7028 8.31787 22.6926 8.10986C23.6692 7.41504 24.514 6.55176 25.1875 5.56055Z" fill="#000000" fill-opacity="1.000000" fill-rule="nonzero"/>
	</g>
	<rect id="logo-twitter (2) 2" width="26.000000" height="26.000000" transform="translate(72.000000 0.000000)" fill="#FFFFFF" fill-opacity="0"/>
	<g clip-path="url(#clip1_333)">
		<path id="Vector" d="M75.4113 11.8394L89.1108 6.49609C90.4631 5.93994 95.0493 4.15869 95.0493 4.15869C95.0493 4.15869 97.166 3.37988 96.9896 5.27197C96.9307 6.05078 96.4606 8.77832 95.99 11.7275L94.5202 20.4653C94.5202 20.4653 94.4026 21.7456 93.4013 21.9678C92.4001 22.1904 90.7556 21.189 90.4618 20.9663C90.2266 20.7993 86.052 18.2949 84.5232 17.0703C84.1116 16.7368 83.6414 16.0684 84.5821 15.2896C86.6988 13.4531 89.2271 11.1709 90.7556 9.72412C91.4611 9.05615 92.1667 7.49805 89.2269 9.39014L80.9367 14.6772C80.9367 14.6772 79.9958 15.2339 78.2321 14.7329C76.4684 14.2324 74.4105 13.5645 74.4105 13.5645C74.4105 13.5645 72.9993 12.7295 75.41 11.8394L75.4113 11.8394Z" fill="#000000" fill-opacity="1.000000" fill-rule="nonzero"/>
	</g>
	<rect id="logo-facebook (2) 1" width="26.000000" height="26.000000" transform="translate(108.000000 0.000000)" fill="#FFFFFF" fill-opacity="0"/>
	<g clip-path="url(#clip1_335)">
		<path id="Vector" d="M132.375 13.0684C132.375 6.78662 127.282 1.69336 121 1.69336C114.718 1.69336 109.625 6.78662 109.625 13.0684C109.625 18.7456 113.784 23.4517 119.223 24.3057L119.223 16.3574L116.334 16.3574L116.334 13.0684L119.223 13.0684L119.223 10.5625C119.223 7.71191 120.921 6.13623 123.519 6.13623C124.764 6.13623 126.066 6.3584 126.066 6.3584L126.066 9.1582L124.631 9.1582C123.219 9.1582 122.777 10.0347 122.777 10.9355L122.777 13.0684L125.931 13.0684L125.428 16.3574L122.777 16.3574L122.777 24.3066C128.216 23.4531 132.375 18.7471 132.375 13.0684Z" fill="#000000" fill-opacity="1.000000" fill-rule="evenodd"/>
	</g>
	<rect id="logo-vk 1" width="26.000000" height="26.000000" transform="translate(36.000000 0.000000)" fill="#FFFFFF" fill-opacity="0"/>
	<g clip-path="url(#clip1_337)">
		<path id="Vector" d="M60.6137 6.70312C60.7945 6.13037 60.6137 5.71387 59.8139 5.71387L57.1544 5.71387C56.4836 5.71387 56.1739 6.07861 55.9931 6.46875C55.9931 6.46875 54.625 9.7998 52.7147 11.9595C52.0951 12.584 51.8112 12.7925 51.4756 12.7925C51.2948 12.7925 51.0622 12.584 51.0622 12.0117L51.0622 6.67627C51.0622 6 50.856 5.6875 50.2878 5.6875L46.1055 5.6875C45.6921 5.6875 45.4341 6 45.4341 6.31201C45.4341 6.9624 46.3893 7.11914 46.4924 8.94043L46.4924 12.8984C46.4924 13.7573 46.3401 13.9141 46.0019 13.9141C45.0985 13.9141 42.9042 10.5571 41.588 6.73145C41.332 5.97412 41.072 5.6875 40.4007 5.6875L37.7159 5.6875C36.9415 5.6875 36.8125 6.05176 36.8125 6.44189C36.8125 7.14502 37.7159 10.6841 41.0202 15.3682C43.2145 18.5674 46.338 20.2866 49.1518 20.2866C50.856 20.2866 51.0622 19.896 51.0622 19.2456L51.0622 16.8252C51.0622 16.0449 51.2171 15.915 51.7595 15.915C52.1464 15.915 52.8436 16.1226 54.4184 17.6582C56.2252 19.4795 56.5349 20.3125 57.5419 20.3125L60.2008 20.3125C60.9752 20.3125 61.3368 19.9219 61.1301 19.1675C60.898 18.4126 60.0201 17.3198 58.8841 16.019C58.2645 15.2905 57.3352 14.4839 57.0514 14.0933C56.6644 13.5728 56.7675 13.3647 57.0514 12.8965C57.0255 12.8965 60.2785 8.26416 60.6137 6.70117L60.6137 6.70312Z" fill="#000000" fill-opacity="1.000000" fill-rule="evenodd"/>
	</g>
	<rect id="logo-twitch 1" width="26.000000" height="26.000000" transform="translate(144.000000 0.000000)" fill="#FFFFFF" fill-opacity="0"/>
	<g clip-path="url(#clip1_339)">
		<path id="Vector" d="M148.062 1.625L146.438 5.6875L146.438 21.125L151.312 21.125L151.312 24.375L154.562 24.375L157.812 21.125L161.875 21.125L167.562 15.4375L167.562 1.625L148.062 1.625ZM165.125 14.625L161.875 17.875L157 17.875L153.75 21.125L153.75 17.875L149.688 17.875L149.688 4.0625L165.125 4.0625L165.125 14.625Z" fill="#000000" fill-opacity="1.000000" fill-rule="nonzero"/>
		<path id="Vector" d="M160.25 7.26172L162.688 7.26172L162.688 13.8125L160.25 13.8125L160.25 7.26172ZM154.562 7.26172L157 7.26172L157 13.8125L154.562 13.8125L154.562 7.26172Z" fill="#000000" fill-opacity="1.000000" fill-rule="nonzero"/>
	</g>
	<rect id="logo-instagram (1) 1" width="26.000000" height="26.000000" transform="translate(180.000000 0.000000)" fill="#FFFFFF" fill-opacity="0"/>
	<g clip-path="url(#clip1_342)">
		<path id="Vector" d="M197.739 3.52051C198.995 3.52441 200.199 4.0249 201.087 4.91309C201.975 5.80127 202.476 7.00439 202.479 8.26074L202.479 17.7393C202.476 18.9956 201.975 20.1987 201.087 21.0869C200.199 21.9751 198.995 22.4756 197.739 22.4795L188.261 22.4795C187.005 22.4756 185.801 21.9751 184.913 21.0869C184.025 20.1987 183.524 18.9956 183.521 17.7393L183.521 8.26074C183.524 7.00439 184.025 5.80127 184.913 4.91309C185.801 4.0249 187.005 3.52441 188.261 3.52051L197.739 3.52051ZM197.739 1.625L188.261 1.625C184.611 1.625 181.625 4.61084 181.625 8.26074L181.625 17.7393C181.625 21.3892 184.611 24.375 188.261 24.375L197.739 24.375C201.389 24.375 204.375 21.3892 204.375 17.7393L204.375 8.26074C204.375 4.61084 201.389 1.625 197.739 1.625Z" fill="#000000" fill-opacity="1.000000" fill-rule="nonzero"/>
		<path id="Vector" d="M199.161 8.26074C198.88 8.26074 198.605 8.17725 198.371 8.021C198.138 7.86475 197.955 7.64258 197.848 7.38281C197.74 7.12305 197.712 6.8374 197.767 6.56152C197.822 6.28564 197.957 6.03223 198.156 5.8335C198.355 5.63477 198.608 5.49902 198.884 5.44434C199.16 5.38965 199.446 5.41748 199.705 5.52539C199.965 5.63281 200.187 5.81494 200.344 6.04883C200.5 6.28271 200.583 6.55762 200.583 6.83887C200.584 7.02588 200.547 7.21094 200.476 7.3833C200.404 7.55615 200.3 7.71289 200.168 7.84521C200.035 7.97705 199.879 8.08203 199.706 8.15332C199.533 8.22461 199.348 8.26123 199.161 8.26074ZM193 9.2085C193.75 9.2085 194.483 9.43066 195.107 9.84717C195.73 10.2642 196.216 10.8564 196.503 11.5493C196.79 12.2422 196.865 13.0044 196.719 13.7397C196.573 14.4756 196.212 15.1509 195.681 15.6812C195.151 16.2119 194.475 16.5728 193.74 16.7192C193.004 16.8652 192.242 16.7905 191.549 16.5034C190.856 16.2163 190.264 15.7305 189.847 15.1069C189.431 14.4834 189.208 13.75 189.208 13C189.209 11.9946 189.609 11.0308 190.32 10.3203C191.031 9.60938 191.995 9.20947 193 9.2085ZM193 7.3125C191.875 7.3125 190.775 7.646 189.84 8.271C188.905 8.896 188.176 9.78418 187.745 10.8237C187.315 11.8628 187.202 13.0063 187.422 14.1099C187.641 15.2129 188.183 16.2266 188.978 17.022C189.774 17.8174 190.787 18.3589 191.89 18.5786C192.994 18.7979 194.137 18.6851 195.177 18.2549C196.216 17.8242 197.104 17.0952 197.729 16.1602C198.354 15.2246 198.688 14.125 198.688 13C198.688 11.4917 198.088 10.0449 197.022 8.97852C195.955 7.91211 194.508 7.3125 193 7.3125Z" fill="#000000" fill-opacity="1.000000" fill-rule="nonzero"/>
	</g>
</svg>
