<svg width="62.321106" height="53.662231" viewBox="0 0 62.3211 53.6622" fill="none" xmlns="http://www.w3.org/2000/svg" xmlns:xlink="http://www.w3.org/1999/xlink">
	<desc>
			Created with Pixso.
	</desc>
	<defs/>
	<path id="image 15 (Traced)" d="M11.0564 0.201294C10.8214 0.443237 10.9756 0.60376 12.1259 1.31567C14.0787 2.52405 15.2863 4.28809 15.7196 6.56482C15.9662 7.8606 15.7504 9.66431 15.2197 10.7448L14.8835 11.4293L15.6421 12.3015C16.6611 13.4734 16.9639 13.9595 17.3754 15.0847C17.8154 16.2876 17.8915 18.2836 17.5458 19.5472C16.9979 21.5509 15.3777 23.4404 13.3726 24.4148C11.9438 25.1091 10.6201 25.2611 5.17676 25.3561C1.63196 25.418 0.0810547 25.502 0.000610352 25.6365C-0.153076 25.8936 28.5211 53.4266 28.774 53.265C28.9097 53.1783 28.9163 50.4584 28.7972 43.636L28.6312 34.1278L25.3162 34.1857C22.4511 34.2357 21.9865 34.2072 21.8927 33.9764C21.8331 33.8296 21.7665 32.6924 21.7448 31.4496C21.7151 29.7491 21.7621 29.1411 21.935 28.9934C22.1011 28.8514 24.738 28.7643 31.4622 28.6787L40.7598 28.5604L40.8058 31.1949L40.8518 33.8295L37.52 33.9727L34.1882 34.1158L34.3588 43.889L34.5294 53.6622L42.2697 53.5713C48.9003 53.4934 50.0233 53.4449 50.101 53.2324C50.1797 53.0172 49.2737 49.9254 47.4454 44.1707C44.8239 35.9186 42.7141 28.9036 42.7908 28.694C42.8681 28.4825 43.3402 28.4304 45.5253 28.3922L48.1663 28.3462L48.5264 29.4025C48.7242 29.9835 49.1809 31.41 49.541 32.5726C52.4668 42.0198 52.6737 42.6359 52.9358 42.682C53.1392 42.7179 53.3063 42.3782 53.6108 41.3101C54.0432 39.7936 55.8325 33.2584 56.6658 30.1531L57.1699 28.274L59.7186 28.1445C61.1912 28.0697 62.29 27.9427 62.321 27.8438C62.3506 27.7495 56.8595 22.377 50.1185 15.9047C40.8283 6.98486 37.8151 4.18555 37.6677 4.3374C37.52 4.48938 37.527 4.73499 37.6962 5.35254C38.0687 6.71204 38.0079 8.42224 37.5339 9.91125L37.1125 11.2355L37.9127 12.057C38.3528 12.5087 38.9641 13.3884 39.271 14.0117C40.3192 16.1404 40.1683 18.9797 38.8966 21.0623C37.8181 22.8285 35.6381 24.2845 33.4797 24.6799C32.7386 24.8158 30.3963 24.9093 27.0173 24.9376L21.7175 24.9823L21.4139 12.4912L21.1104 0L16.1406 0.041626C13.4073 0.0646973 11.1194 0.136475 11.0564 0.201294ZM4.61542 5.86646C4.57025 5.98975 4.5705 6.96533 4.61584 8.03418L4.69849 9.97754L6.70581 9.99048C8.98004 10.005 9.52429 9.82837 10.0727 8.89783C10.729 7.78467 10.239 6.27124 9.07324 5.81055C8.27515 5.49512 4.73505 5.53955 4.61542 5.86646ZM26.8425 5.46472C26.7945 5.5957 26.7925 6.57751 26.8378 7.64624L26.9205 9.58972L28.9435 9.60229C30.7191 9.61353 31.0331 9.57251 31.5131 9.26587C32.2287 8.80859 32.5422 8.16956 32.5054 7.24231C32.4804 6.61365 32.3706 6.38879 31.838 5.8772L31.2004 5.26453L29.0651 5.24536C27.3592 5.23022 26.9122 5.27417 26.8425 5.46472ZM4.78754 15.7246C4.74231 15.848 4.74255 16.8235 4.7879 17.8923L4.87054 19.8358L7.78894 19.8313C10.5839 19.8268 10.732 19.8098 11.2872 19.428C11.6062 19.2085 12.0066 18.7333 12.1769 18.3717C12.4424 17.8087 12.4564 17.6198 12.2755 17.0549C12.0478 16.3446 11.5343 15.7833 10.8975 15.5487C10.6785 15.468 9.23248 15.4241 7.68445 15.4512C5.5202 15.4889 4.85071 15.5521 4.78754 15.7246ZM27.0067 17.2711L27.0925 19.4479L30.0109 19.4434C32.8135 19.439 32.9523 19.4229 33.5067 19.0372C34.2294 18.5344 34.4993 17.9906 34.4864 17.0635C34.4781 16.4735 34.3655 16.2225 33.8804 15.7139L33.2846 15.0892L30.1027 15.0918L26.9206 15.0942L27.0067 17.2711Z" fill="#FFFFFF" fill-opacity="1.000000" fill-rule="evenodd"/>
</svg>
