<svg width="255.578720" height="47.951904" viewBox="0 0 255.579 47.9519" fill="none" xmlns="http://www.w3.org/2000/svg" xmlns:xlink="http://www.w3.org/1999/xlink">
	<desc>
			Created with Pixso.
	</desc>
	<defs/>
	<path id="image 17 (Traced)" d="M0.0301104 0.867676C-0.0576477 1.10864 0.0530186 8.74805 0.276409 17.8438C0.641058 32.6827 0.742721 34.5555 1.26762 36.0769C3.26709 41.8721 7.57332 45.9706 13.277 47.507C15.6972 48.1588 19.9412 48.0847 22.3371 47.3489C28.4945 45.4574 32.8908 40.4543 34.1771 33.8741C34.3015 33.2384 34.5303 33.0151 35.0667 33.0057C36.2861 32.9845 39.3496 31.7301 41.0698 30.5476C45.3289 27.6202 48.0637 22.9489 48.5096 17.8405C49.1949 9.98926 43.507 2.15161 35.7678 0.282959C33.1401 -0.351685 0.278569 0.185913 0.0301104 0.867676ZM67.6956 22.0464L67.9798 38.324L71.5516 38.2616L75.1234 38.1993L75.0287 32.7734L74.934 27.3475L77.5588 27.3018C83.7226 27.1942 87.4483 25.1985 89.6269 20.838C90.3741 19.3422 90.4564 18.8445 90.4157 16.0673C90.3767 13.3889 90.2629 12.759 89.5813 11.4426C88.0389 8.46399 85.1178 6.50647 81.2594 5.86609C80.2426 5.69739 76.7107 5.60645 73.4109 5.66406L67.4115 5.7688L67.6956 22.0464ZM114.595 21.2175L114.88 37.5054L118.443 37.4431L122.007 37.381L122.01 32.6512L122.013 27.9214L125.202 32.5886L128.39 37.2556L136.968 37.1058C136.968 37.1058 135.19 34.0488 133.205 31.24C131.219 28.431 129.592 26.0039 129.589 25.8462C129.586 25.6884 130.579 24.1597 131.794 22.4489C133.01 20.7379 134.448 18.6677 134.991 17.8478L135.978 16.3574L131.642 16.4331L127.307 16.5088L126.021 18.6248C125.313 19.7883 124.111 21.7285 123.349 22.9358L121.965 25.131L121.633 15.0571L121.302 4.98315L117.807 4.95642L114.311 4.92969L114.595 21.2175ZM188.336 9.55664L188.439 15.4535L187.58 15.23C187.108 15.1071 185.674 15.0409 184.393 15.0828C181.263 15.1852 178.869 16.1642 176.798 18.1893C174.639 20.2994 173.88 22.2107 173.771 25.8103C173.615 30.9484 175.142 33.8889 178.924 35.7343C180.674 36.5883 181.343 36.7466 183.121 36.7257C185.101 36.703 185.918 36.4506 188.548 35.0465C188.675 34.9785 188.783 35.2139 188.79 35.5692C188.8 36.1847 188.962 36.2123 192.217 36.1554L195.634 36.0958L195.35 19.8181L195.066 3.54053L191.649 3.60022L188.233 3.65979L188.336 9.55664ZM34.7014 9.64185C36.5896 10.6116 37.6399 11.6899 38.5566 13.5996C39.2307 15.0043 39.3588 15.6298 39.2449 16.9576C39.0836 18.8386 38.2873 20.6377 37.0504 21.9164C35.3783 23.6448 34.6829 23.8514 29.6722 24.1057L25.016 24.342L24.9392 28.8406C24.8564 33.6942 24.5621 34.8258 22.9504 36.4918C20.7036 38.8146 17.0013 39.4474 14.0614 38.0116C12.1815 37.0935 10.649 35.0702 10.1221 32.8107C9.57805 30.4771 9.26764 10.1305 9.76812 9.61182C10.0635 9.30579 12.7773 9.19214 21.7985 9.10718C33.0268 9.00183 33.4926 9.02124 34.7014 9.64185ZM79.7566 12.668C81.4041 13.0195 82.4032 14.01 82.6605 15.5469C83.203 18.7847 80.7867 20.7061 76.6664 20.3134L74.8081 20.1365L74.7442 16.4763L74.6804 12.8164L75.5322 12.6722C77.0817 12.4104 78.541 12.4088 79.7566 12.668ZM97.8965 16.8162C91.9616 18.4637 88.7377 23.5809 89.8837 29.5343C90.6049 33.2806 92.6984 35.9141 96.2004 37.4794C97.788 38.1888 98.3096 38.2589 101.532 38.193C104.717 38.1282 105.287 38.0302 106.798 37.286C109.188 36.1099 110.919 34.4349 111.895 32.3545C112.654 30.7372 112.73 30.2477 112.68 27.2792C112.627 24.1346 112.576 23.9039 111.5 21.8862C110.209 19.4661 108.67 18.1686 105.944 17.2045C103.725 16.4196 99.9767 16.2386 97.8965 16.8162ZM144.175 16.0115C139.007 17.4514 136.185 21.6515 136.287 26.897C136.453 35.4536 145.699 38.9291 152.991 36.5734C154.635 35.9172 155.889 35.3396 155.889 35.3396C155.889 35.3396 155.128 33.7174 154.684 32.6162C153.97 30.8428 153.784 30.4141 153.784 30.4141C153.784 30.4141 150.397 31.5875 148.534 31.6318C146.081 31.6904 144.438 31.0559 143.298 28.9456L150.28 28.8237L157.262 28.7018L157.452 27.5854C157.771 25.7087 157.333 22.4564 156.568 21.0239C154.298 16.7711 149.057 14.6512 144.175 16.0115ZM206.221 14.8177C200.509 16.1351 197.144 20.8953 197.744 26.8092C198.144 30.7526 200.48 33.8929 204.27 35.5837C205.854 36.2905 206.417 36.37 209.464 36.3181C212.654 36.2639 213.016 36.1931 214.931 35.2457C218.995 33.2363 220.812 30.1689 220.751 25.4226C220.703 21.7302 219.976 19.8843 217.708 17.6982C216.452 16.4867 215.406 15.8043 214.096 15.3412C212.017 14.6056 208.231 14.354 206.221 14.8177ZM167.563 16.4918C166.636 17.1637 166.735 15.9067 166.735 15.9067C166.735 15.9067 166.527 15.8242 163.28 15.8809L159.864 15.9406L160.045 26.3271L160.226 36.7139L163.643 36.6542L167.059 36.5946L166.945 30.063C166.88 26.3353 166.959 23.2827 167.129 22.9513C167.625 21.988 169.275 21.5842 170.734 22.0697L171.984 22.4855L173.089 19.329C174.124 16.3749 174.159 16.1481 173.645 15.7861C172.07 14.6774 169.034 15.4252 167.563 16.4918ZM232.781 14.799C232.146 15.0376 231.267 15.4767 230.829 15.7745C230.421 16.0515 229.353 16.6892 229.353 16.6892L229.318 14.7076C229.318 14.7076 223.922 14.8352 222.603 14.825L222.785 25.2321L222.967 35.6392L226.399 35.4915L229.831 35.3439L229.74 29.0615C229.657 23.3313 229.7 22.7114 230.237 22.0045C230.973 21.0374 231.769 20.834 233.308 20.8071C234.326 20.7894 236.269 21.3717 236.291 22.616C236.313 23.8601 236.514 35.3822 236.514 35.3822L239.449 35.3311L243.125 35.2668L242.929 24.0508C242.929 24.0508 242.783 22.0679 243.547 21.2446C244.178 20.5643 247.067 20.4003 247.917 21.1683C248.767 21.9365 248.584 23.952 248.584 23.952L248.78 35.1681L252.179 35.1088L255.579 35.0494L255.444 27.3475C255.296 18.85 255.045 17.3796 253.474 15.7897C252.221 14.5226 250.796 14.0425 248.417 14.0878C246.173 14.13 243.773 15.0624 242.702 16.3074L242.125 16.9777L240.931 15.9379C240.274 15.3656 239.2 14.7592 238.544 14.5895C236.926 14.1714 234.185 14.271 232.781 14.799ZM150.723 24.1638L143.424 24.2911C143.424 24.2911 143.997 21.5063 147.066 21.4528C150.002 21.4015 150.723 24.1638 150.723 24.1638ZM103.356 23.4275C105.955 24.9478 106.303 28.7794 104.029 30.8434C101.985 32.6986 98.9022 32.0519 97.607 29.496C95.6063 25.547 99.6618 21.266 103.356 23.4275ZM187.644 21.8269L188.579 22.2891L188.548 25.6104L188.518 28.9316L187.133 29.6729C183.101 31.8314 179.51 27.6534 181.713 23.3663C182.607 21.6267 185.644 20.8383 187.644 21.8269ZM211.389 21.5591C213.934 23.0688 214.174 27.3335 211.821 29.2482C210.737 30.1305 208.501 30.2114 207.143 29.4172C205.277 28.3256 204.519 25.3369 205.585 23.2728C206.698 21.1194 209.334 20.3405 211.389 21.5591ZM41.7921 36.9014C39.5417 37.6632 37.8851 39.9587 37.9253 42.2601C37.9873 45.8127 41.5903 48.4246 45.0183 47.4014C48.6849 46.3074 50.1593 42.1362 47.992 38.988C46.7532 37.1885 43.8402 36.2081 41.7921 36.9014Z" fill="#FFFFFF" fill-opacity="1.000000" fill-rule="evenodd"/>
</svg>
