<svg width="293.302124" height="37.923218" viewBox="0 0 293.302 37.9232" fill="none" xmlns="http://www.w3.org/2000/svg" xmlns:xlink="http://www.w3.org/1999/xlink">
	<desc>
			Created with Pixso.
	</desc>
	<defs/>
	<path id="image 15 (Traced)" d="M0.574829 37.9232L0 4.99084L7.04266 4.98828C13.9238 4.98535 14.1324 5.00708 16.1431 5.94153C19.7838 7.63269 21.8445 10.8058 21.9147 14.8239C21.915 14.843 21.9153 14.8623 21.9155 14.8815C21.9298 16.0071 21.6744 17.4557 21.3185 18.2701L20.6968 19.6926L22.0997 21.2256C22.9554 22.1606 23.7379 23.5111 24.1064 24.6891C24.3967 25.6171 24.5447 26.5563 24.5609 27.4824C24.6251 31.1564 22.6133 34.6251 19.1648 36.3762C17.1568 37.3959 17.1081 37.4021 8.86108 37.6621L0.574829 37.9232ZM240.038 7.92322L239.915 0.866943L263.799 0.450073L263.922 7.50635L255.367 7.65576L255.816 33.4111L249.043 33.5294L248.594 7.77393L240.038 7.92322ZM276.234 30.2313C273.919 23.0037 267.518 2.56799 267.192 1.36145L266.93 0.395386L274.107 0.270142L274.853 2.6394C275.264 3.94226 276.642 8.32336 277.916 12.3749C280.151 19.4807 280.418 20.2141 280.652 19.8903C280.711 19.808 281.619 16.5499 282.668 12.6494C283.718 8.74902 284.923 4.3606 285.344 2.89734L286.111 0.237061L289.792 0.0718994C292.617 -0.0550537 293.296 -0.0345459 293.302 0.301392C293.303 0.350098 293.29 0.405396 293.267 0.467896C293.153 0.776978 292.067 4.65259 290.854 9.08105C287.309 22.0189 285.678 27.9624 284.965 30.5321L284.298 32.9384L280.688 32.9008L277.077 32.8635L276.234 30.2313ZM116.524 15.6469C117.125 16.1495 117.152 15.8431 117.046 9.77185L116.934 3.36658L124.42 3.23584L124.987 35.6948L117.857 35.8192L117.812 33.2175L116.848 34.1641C114.768 36.2052 111.803 36.7614 108.233 35.7793C106.767 35.3761 105.826 34.7838 104.233 33.2618C101.815 30.9504 100.993 28.9583 100.927 25.1954C100.926 25.1379 100.925 25.0801 100.924 25.0217C100.893 22.2035 101.377 20.4791 102.788 18.3871C105.836 13.8691 112.754 12.4888 116.524 15.6469ZM129.978 35.6077L129.411 3.1488L136.897 3.01807L137.009 9.42346C137.115 15.4946 137.153 15.7999 137.735 15.2766C140.889 12.4417 146.844 12.8939 150.265 16.2286C150.931 16.8783 151.916 18.1963 152.453 19.1575C153.313 20.6942 153.438 21.3093 153.491 24.2567L153.492 24.309C153.543 27.2173 153.432 27.8588 152.595 29.6229C151.394 32.1528 149.517 33.9089 146.937 34.916C143.539 36.2419 139.876 35.7653 138.002 33.7527C137.027 32.705 136.704 32.832 136.729 34.2546L136.751 35.4894L129.978 35.6077ZM229.093 14.2001L228.87 1.41272L236 1.28821L236.566 33.7472L229.793 33.8654L229.767 32.3755C229.741 30.8975 229.736 30.8923 229.174 31.7178C228.346 32.9314 225.294 34.2894 223.307 34.328C221.195 34.3694 218.236 33.3472 216.493 31.9747C215.722 31.3674 214.638 29.9255 213.938 28.5773C212.898 26.5746 212.733 25.9906 212.692 23.6157C212.689 23.4921 212.688 23.3635 212.686 23.2297C212.656 20.6985 212.798 19.9065 213.59 18.21C215.338 14.4617 218.851 12.0934 222.79 12.0073C224.923 11.9609 226.602 12.4578 228.281 13.632L229.093 14.2001ZM15.0734 14.5087C15.064 13.9663 14.81 13.6041 14.1151 12.9397C13.0688 11.9397 12.8657 11.8885 10.1333 11.9363L7.25397 11.9866L7.35992 18.0566L10.3782 17.8798C13.767 17.6809 14.6339 17.1656 15.0087 15.1288C15.0526 14.8901 15.0766 14.6895 15.0734 14.5087ZM47.1882 26.3014C47.1063 21.6074 50.2218 16.9838 54.866 15.3898C62.3192 12.8315 70.0596 18.2468 70.1925 25.8602C70.1967 26.1024 70.1933 26.3468 70.1818 26.5931C69.7344 36.24 58.2681 41.0143 51.0474 34.5601C48.9902 32.7217 48.1473 31.2947 47.47 28.5071C47.2928 27.7778 47.2011 27.0387 47.1882 26.3014ZM156.657 24.2036C156.566 18.9548 160.072 14.2012 165.23 13.0767C167.659 12.5469 170.488 13.2566 172.317 14.8547L173.132 15.5669L173.093 13.3269L180.579 13.1962L180.955 34.7179L173.469 34.8485L173.431 32.6957L172.287 33.5673C168.872 36.1697 164.014 35.8013 160.516 32.6744C158.376 30.7618 157.54 29.3179 156.921 26.4675C156.757 25.7089 156.67 24.9513 156.657 24.2036ZM73.8644 21.5494C74.9418 18.2273 78.1316 15.3292 81.5231 14.5913C82.3735 14.406 83.7126 14.328 84.4987 14.4174C85.9861 14.5865 88.4078 15.5917 88.8058 16.2048C89.2261 16.8522 89.7067 16.559 89.691 15.6649L89.6757 14.783L97.1618 14.6522L97.5375 36.174L90.0513 36.3046L90.0147 34.2089L88.7644 35.0809C86.9074 36.3757 85.2002 36.8544 83.0796 36.675C79.1581 36.3436 76.0651 34.2018 74.3301 30.6167C73.6833 29.2805 73.3334 27.5027 73.3021 25.7095C73.2767 24.2574 73.4603 22.7953 73.8644 21.5494ZM36.3207 17.2064C36.7563 16.7872 37.6685 16.194 38.3481 15.8882C39.0278 15.5823 40.3974 15.3116 41.3918 15.2865C43.1993 15.2412 46.3739 16.0304 46.7569 16.6201C46.763 16.6296 46.7662 16.6431 46.7665 16.66C46.7716 16.9509 45.9381 18.3104 44.8333 19.8C42.9983 22.2736 42.6138 22.6198 42.0292 22.3229C41.6565 22.1339 40.6969 21.9905 39.8969 22.0044C38.7383 22.0247 38.1758 22.28 37.1317 23.2596L35.8213 24.4899L36.0444 37.272L28.38 37.4058L28.0039 15.8594L35.4901 15.7288L35.5292 17.9688L36.3207 17.2064ZM194.141 14.0208C194.683 13.6241 195.502 13.1436 195.96 12.9524C196.418 12.7612 197.782 12.5776 198.99 12.5442C203.249 12.4264 207.628 15.5929 208.922 19.725C209.26 20.8075 209.463 23.4314 209.538 27.6899L209.649 34.0405L205.996 34.2048L202.344 34.3693L202.245 28.6769C202.134 22.3011 201.786 21.0455 199.802 19.8577C198.409 19.024 195.66 19.2161 194.556 20.2239C193.115 21.5399 192.872 22.8673 192.976 28.85L193.075 34.5063L185.945 34.6307L185.57 13.1091L192.7 12.9846L192.715 13.8667C192.734 14.9318 192.874 14.947 194.141 14.0208ZM61.0211 29.9474C62.4999 29.1577 63.2208 27.563 63.1934 25.9877C63.1662 24.4325 62.4095 22.8964 60.9324 22.1726C57.7619 20.6194 54.1556 22.7546 54.2148 26.1498C54.2754 29.619 57.8749 31.6274 61.0211 29.9474ZM89.4438 24.0974C89.1297 23.3215 88.3829 22.4176 87.6854 21.97C85.1859 20.3655 82.1395 21.4065 81.1109 24.2167C80.8431 24.9489 80.7048 25.358 80.7117 25.7531C80.7192 26.1838 80.8994 26.5977 81.2726 27.3951C83.0221 31.1327 88.2015 30.8229 89.5057 26.9027C89.7147 26.2736 89.8182 25.8674 89.8113 25.4744C89.8043 25.0751 89.6835 24.6895 89.4438 24.0974ZM117.312 25.0283C117.287 23.6001 117.106 23.2242 115.876 22.0482C114.637 20.8643 114.265 20.7063 112.78 20.7322C111.294 20.7582 110.929 20.929 109.731 22.1555C108.543 23.3737 108.375 23.7556 108.4 25.1838C108.424 26.5527 108.63 27.0288 109.672 28.1149C110.827 29.319 111.058 29.4088 112.931 29.3762C114.803 29.3435 115.031 29.2456 116.143 28.002C117.146 26.8801 117.336 26.3972 117.312 25.0283ZM145.451 22.385C145.058 21.7704 144.251 21.0299 143.659 20.7399C142.202 20.026 140.444 20.1117 139.195 20.9579C137.831 21.8824 137.271 22.994 137.301 24.7157C137.331 26.4375 137.93 27.5288 139.325 28.4052C142.462 30.3738 146.174 27.6589 146.119 24.5283C146.107 23.8187 145.901 23.0876 145.451 22.385ZM229.249 23.1344C229.228 21.913 228.118 20.1151 226.978 19.4539C225.472 18.5809 223.613 18.6028 222.166 19.5111C220.741 20.4052 220.187 21.4775 220.218 23.2776C220.279 26.744 224.063 28.7549 227.025 26.8955C228.101 26.2206 229.268 24.2457 229.249 23.1344ZM173.279 24.0518L173.279 24.049C173.256 22.7435 171.943 20.7656 170.706 20.1725C169.566 19.6267 167.551 19.6742 166.507 20.272C165.072 21.0928 164.372 22.6466 164.399 24.1935C164.425 25.7178 165.158 27.2355 166.589 28.0387C169.427 29.6323 173.332 27.3054 173.279 24.0518ZM16.6716 29.6605C17.2539 29.064 17.5366 28.3304 17.524 27.606C17.511 26.8623 17.1869 26.1282 16.5562 25.5613C15.7001 24.792 15.2834 24.7181 11.5484 24.6747L7.47461 24.6272L7.58038 30.6857L11.696 30.6139C15.5906 30.5459 15.8582 30.4946 16.6716 29.6605Z" fill="#FFFFFF" fill-opacity="1.000000" fill-rule="evenodd"/>
</svg>
