<svg width="208.700073" height="60.866821" viewBox="0 0 208.7 60.8668" fill="none" xmlns="http://www.w3.org/2000/svg" xmlns:xlink="http://www.w3.org/1999/xlink">
	<desc>
			Created with Pixso.
	</desc>
	<defs/>
	<path id="Layer 1" d="M199.14 0.124512C197.67 5.0459 195.339 9.51233 191.721 14.3402C189.035 17.9243 185.445 21.6371 181.32 25.0989L180.657 25.6547L179.682 25.0269C175.584 22.3887 170.882 20.1494 165.673 18.3553C164.988 18.1193 164.437 17.9166 164.45 17.905C164.479 17.8788 171.265 14.9697 171.898 14.712C172.154 14.6082 172.391 14.4943 172.426 14.4589C172.489 14.3951 175.23 4.68347 175.227 4.53406C175.227 4.49109 168.097 4.58057 159.383 4.73267L143.541 5.00916L143.405 5.50378C143.33 5.77576 142.76 7.82129 142.139 10.0493L141.009 14.1003L137.14 14.228C134.919 14.3014 132.557 14.4316 131.592 14.5339C129.805 14.7233 128.353 14.9189 128.296 14.978C128.24 15.0358 128.8 15.0962 130.201 15.1842C132.045 15.3 134.819 15.6063 137.181 15.9547C149.936 17.8368 162.253 22.3043 173.467 29.1157L174.799 29.9244L174.282 30.249C173.471 30.7581 170.849 32.3691 170.388 32.6415C169.263 33.3062 164.771 35.6266 163.252 36.3275C156.337 39.5188 149.985 41.7334 141.41 43.9426C135.281 45.5212 126.056 47.1345 118.429 47.9614C112.928 48.5577 105.312 49.0769 100.776 49.1648C99.751 49.1847 99.1497 49.229 99.2368 49.2782C99.4049 49.3729 104.588 49.8667 107.15 50.0319C116.793 50.6537 127.826 50.4786 136.832 49.561C149.636 48.2565 160.785 45.4974 169.839 41.3926C173.71 39.6376 177.901 37.2212 180.789 35.0791L181.552 34.5128L182.332 35.092C191.534 41.9272 199.421 49.9825 205.77 59.0308C206.496 60.0654 207.11 60.8914 207.134 60.8662C207.182 60.817 206.472 58.9292 205.642 56.8945C202.56 49.3439 198.465 42.5812 193.501 36.8459C192.287 35.4429 189.559 32.5914 188.914 32.0508C188.71 31.8796 188.114 31.3605 187.589 30.897L186.635 30.0546L186.955 29.7362C187.531 29.1626 189.318 27.0605 190.178 25.9453C194.137 20.8092 196.868 14.7377 198.237 8.02625C198.707 5.72192 198.98 3.63953 199.231 0.451172C199.264 0.0302734 199.218 -0.135498 199.14 0.124512ZM204.118 3.96057C202.977 4.17969 201.895 5.052 201.408 6.14624C201.084 6.87256 200.995 8.02258 201.205 8.76184C201.785 10.8024 204.005 12 206.025 11.3615C207.823 10.7931 208.955 8.97974 208.651 7.15393C208.523 6.38708 208.409 6.0957 208.01 5.51501C207.165 4.2854 205.627 3.67114 204.118 3.96057ZM5.15808 8.19812C3.91272 12.5879 -0.00134277 26.6465 0 26.7251C0.00134277 26.7971 1.03162 26.8094 3.48486 26.7666L6.96765 26.7058L9.6521 17.1337C11.1284 11.8691 12.3489 7.50244 12.3643 7.43005C12.3878 7.31897 11.8424 7.30798 8.88538 7.35962L5.37854 7.42078L5.15808 8.19812ZM29.2577 9.55872C28.859 10.9708 28.41 12.5605 28.2601 13.0918L27.9877 14.0575L20.0759 14.1956L12.1642 14.3337L11.4409 16.8164C11.0432 18.1819 10.7186 19.3477 10.7196 19.4071C10.7211 19.4878 12.7084 19.4805 18.5741 19.3781C22.8931 19.3027 26.4272 19.2728 26.428 19.3116C26.4288 19.3639 24.8922 24.8882 24.5281 26.1415C24.483 26.2965 24.6945 26.3026 28.0782 26.2435L31.6765 26.1808L31.7677 25.8745C31.8179 25.7061 32.3123 23.936 32.8663 21.9412C35.3433 13.022 36.9954 7.09546 37.0349 6.98621C37.0691 6.89209 36.3416 6.88037 33.5305 6.92944L29.9828 6.99133L29.2577 9.55872ZM39.7222 6.93848C39.5948 7.30408 38.4479 11.4869 38.4495 11.5798C38.4506 11.641 40.686 13.5831 43.4172 15.8956L48.3829 20.1002L47.5638 22.9855C47.1134 24.5724 46.7445 25.9026 46.7441 25.9412C46.7437 25.9799 48.3345 25.9838 50.2792 25.9498L53.8151 25.8881L54.5891 23.0854C55.0148 21.5439 55.4303 20.214 55.5125 20.1298C55.5946 20.0457 58.8895 18.0537 62.8345 15.7034C66.7794 13.353 70.0197 11.4177 70.0352 11.4025C70.072 11.3665 71.5511 6.42749 71.5524 6.33606C71.5529 6.29736 69.9578 6.29358 68.0076 6.32764L64.4619 6.38953L64.3176 6.93103C64.2382 7.229 64.0851 7.79065 63.9773 8.1792L63.7815 8.88574L61.5651 10.2125C60.3459 10.9421 59.057 11.7079 58.7006 11.9141C58.3441 12.1201 56.9109 12.9631 55.5154 13.7872L52.9784 15.2858L51.5465 14.0898C50.7589 13.432 49.402 12.2993 48.531 11.5728C47.66 10.8463 46.7471 10.0763 46.5023 9.86182L46.0574 9.4718L46.4205 8.18506C46.6204 7.47729 46.783 6.85327 46.7821 6.79822C46.7793 6.64258 39.7767 6.78174 39.7222 6.93848ZM73.6771 6.67395C73.3168 7.86975 68.428 25.4337 68.4296 25.5264C68.4309 25.6041 69.3806 25.6163 71.9333 25.5718L75.4352 25.5106L75.6034 24.9218C75.6959 24.598 76.597 21.3971 77.6057 17.8086L79.4397 11.2844L88.2194 11.1311C96.5361 10.986 96.9967 10.9866 96.9558 11.1427C96.5985 12.5028 96.6189 12.467 96.0721 12.6979C95.7914 12.8165 94.4969 13.3986 93.1958 13.9915L90.8301 15.0695L85.4131 15.2111L79.996 15.3528L79.3124 17.6589C78.9363 18.9272 78.6063 20.0616 78.579 20.1796L78.5292 20.3942L85.2634 20.2766L91.9977 20.1591L94.3391 19.1243C95.6268 18.5553 97.5575 17.7029 98.6293 17.2303C101.693 15.8795 102.615 15.4618 102.682 15.3939C102.735 15.3391 105.309 6.53271 105.454 5.9054L105.508 5.67297L89.66 5.94971L73.812 6.22632L73.6771 6.67395ZM108.733 5.68701C108.712 5.7262 108.208 7.4104 107.613 9.42981C107.018 11.4493 106.515 13.1465 106.495 13.2014C106.475 13.2563 107.2 13.7079 108.106 14.2048C109.012 14.7019 109.736 15.1365 109.716 15.1707C109.696 15.2047 108.721 15.645 107.55 16.1489L105.42 17.0653L105.225 17.7719C104.899 18.9512 103.318 24.6122 103.254 24.8263L103.194 25.0267L119.067 24.726L134.939 24.4252L135.623 22.1163C135.999 20.8464 136.33 19.6912 136.359 19.5491L136.412 19.2908L124.513 19.4746L112.613 19.6586L113.816 19.1298C114.477 18.839 115.581 18.3503 116.27 18.0442C116.959 17.7378 118.692 16.9729 120.121 16.3441C121.551 15.7153 122.753 15.1677 122.794 15.1271C122.835 15.0864 121.035 14.0771 118.794 12.8843L114.72 10.7155L126.849 10.4568L138.978 10.1982L139.666 7.84241C140.044 6.54675 140.376 5.39136 140.404 5.2749L140.454 5.06299L124.612 5.3396C115.899 5.4917 108.754 5.64795 108.733 5.68701ZM205.969 4.77856C206.712 5.04248 207.5 5.8053 207.789 6.54041C208.366 8.00769 207.742 9.68616 206.332 10.4602C205.925 10.6835 205.756 10.7175 204.979 10.7323C204.215 10.7468 204.026 10.7177 203.627 10.5229C201.046 9.26233 201.301 5.58545 204.032 4.69714C204.506 4.54297 205.414 4.58105 205.969 4.77856ZM203.43 7.70325L203.468 9.86951L203.795 9.86377L204.122 9.85803L204.105 8.8739L204.088 7.88989L204.501 7.88269L204.914 7.87549L205.523 8.84717C206.124 9.80652 206.136 9.81873 206.488 9.8147C206.748 9.81165 206.825 9.77917 206.773 9.69458C206.734 9.63086 206.451 9.21545 206.144 8.77161C205.836 8.32776 205.585 7.94189 205.584 7.91418C205.584 7.88647 205.67 7.8623 205.775 7.86035C206.045 7.85571 206.476 7.60559 206.644 7.35608C206.726 7.23523 206.783 6.95044 206.779 6.69092C206.762 5.74536 206.449 5.57568 204.678 5.55322L203.392 5.53699L203.43 7.70325ZM206.021 6.16858C206.286 6.42456 206.274 6.86865 205.996 7.15759C205.788 7.37354 205.701 7.39294 204.878 7.40735L203.986 7.42285L203.974 6.71997L203.961 6.01709L204.896 6.00073C205.706 5.98657 205.856 6.00903 206.021 6.16858ZM166.709 9.8783C166.706 9.94287 166.597 10.3289 166.467 10.7361L166.231 11.4766L165.674 11.7206C165.368 11.8549 164.145 12.3992 162.955 12.9302L160.792 13.8956L154.408 14.0071L148.024 14.1185L148.602 12.0928L149.179 10.067L157.947 9.91406C164.904 9.7926 166.714 9.78516 166.709 9.8783ZM139.062 21.0128C138.569 22.7653 138.167 24.2478 138.168 24.3074C138.169 24.3873 139.085 24.3997 141.668 24.3546L145.167 24.2935L145.257 23.9873C145.307 23.8188 145.61 22.7556 145.93 21.6246C146.25 20.4937 146.533 19.5117 146.558 19.4425C146.632 19.2402 145.315 18.9163 140.152 17.866C139.971 17.8292 139.892 18.0564 139.062 21.0128Z" fill="#FFFFFF" fill-opacity="1.000000" fill-rule="evenodd"/>
</svg>
