<svg width="189.599487" height="30.513306" viewBox="0 0 189.599 30.5133" fill="none" xmlns="http://www.w3.org/2000/svg" xmlns:xlink="http://www.w3.org/1999/xlink">
	<desc>
			Created with Pixso.
	</desc>
	<defs/>
	<path id="Vector" d="M10.8818 3.03577C9.1073 3.30444 7.2561 4.09314 5.56177 5.26807C1.83386 7.83984 -0.0878906 11.9576 0.00305176 17.1641C0.117676 23.7316 3.60986 28.5328 9.46887 30.1593C11.3431 30.6885 15.8005 30.6107 17.6337 30.0168C21.0658 28.9197 23.241 27.0448 24.7303 23.9502C26.0742 21.1174 26.1622 21.2456 22.3906 21.3114L19.1976 21.3672L18.8867 21.9777C18.431 22.8932 17.4818 23.7742 16.3547 24.2909C15.2069 24.8512 12.6368 24.9824 11.2363 24.5747C9.3407 24.0459 7.89246 22.1263 7.55054 19.7336L7.4032 18.6556L16.7672 18.449L26.1095 18.2211L26.0315 16.2128C25.6409 7.33789 19.1322 1.66003 10.8818 3.03577ZM15.5737 9.02625C16.7633 9.6322 17.9286 11.2975 18.278 12.8905L18.4403 13.6008L7.36121 13.7942L7.55884 12.8398C7.97424 10.8445 9.34192 9.3728 11.3254 8.79785C12.2634 8.50061 14.8387 8.67175 15.5737 9.02625ZM38.4183 2.51196C33.0331 3.47034 29.1128 7.29883 27.7743 12.8976C27.3536 14.5906 27.443 18.4788 27.9258 20.3503C29.101 25.0409 32.3325 28.4204 36.9204 29.6802C38.816 30.2089 43.2953 30.1523 45.0856 29.5592C48.0275 28.6218 50.0598 27.1602 51.3939 24.9974C51.9988 24.0361 53.2578 21.248 53.2513 20.8807C53.2506 20.8375 51.7712 20.8202 49.9497 20.8519C46.8424 20.9062 46.6284 20.9315 46.5074 21.3658C46.3052 22.0609 44.3623 23.7372 43.3818 24.0569C42.913 24.2163 41.7791 24.3441 40.879 24.3599C37.4932 24.4189 35.5782 22.7885 35.0472 19.3833L34.8768 18.2194L53.6279 17.8921L53.6016 16.3798C53.4685 9.9856 49.7695 4.38831 44.5984 2.87952C43.004 2.41028 40.0215 2.24622 38.4183 2.51196ZM43.0039 8.54749C44.2367 9.17432 45.2469 10.5613 45.7487 12.2814L45.9777 13.1201L34.9628 13.3124L34.9536 12.7939C34.9487 12.5131 35.192 11.7092 35.5446 11.0332C36.1648 9.72571 37.3896 8.66711 38.6694 8.29895C39.6935 8.02185 42.2474 8.19336 43.0039 8.54749ZM72.5568 1.95923C68.5802 2.56897 65.6768 4.47803 64.5874 7.15503C64.0739 8.43909 64.1842 11.0735 64.8306 12.4885C65.4773 13.925 66.915 15.2397 68.7516 16.0721C69.5081 16.4263 71.8988 17.076 74.0291 17.5359C76.1593 17.9957 78.3121 18.52 78.8512 18.7052C81.0085 19.4886 81.885 21.8073 80.5591 23.2134C79.7377 24.049 77.968 24.5985 75.8679 24.6351C72.8035 24.6886 70.8556 23.6205 70.2197 21.5786L69.9241 20.6113L66.8585 20.6001L63.793 20.5887L63.9637 21.7743C64.4989 25.417 67.3782 28.2625 71.5319 29.2057C73.1248 29.5885 78.1393 29.501 79.718 29.0627C83.0253 28.1838 85.6276 26.2152 86.6576 23.8201C87.3785 22.1436 87.3529 19.4427 86.575 17.8572C85.1965 15.0287 83.0771 13.9636 75.9785 12.5532C72.9885 11.9572 71.5428 11.4205 70.8431 10.6332C70.2303 9.90906 70.1066 8.96045 70.4999 8.15405C70.9148 7.36877 72.5548 6.75671 74.5474 6.70032C77.4186 6.62854 79.0615 7.42102 79.6072 9.2052L79.8575 10.0436L86.2223 9.9325L86.0575 9.09265C85.6082 6.68018 83.7865 4.24841 81.5149 3.05627C79.4376 1.94714 75.6355 1.49487 72.5568 1.95923ZM98.2721 1.48877C93.6775 2.30371 89.9467 5.93445 88.4923 11.0382C87.8654 13.1885 87.9012 17.7043 88.5405 19.9407C89.933 24.8002 93.2461 27.9407 97.9784 28.8737C101.011 29.4691 104.646 28.9086 107.407 27.4342C108.617 26.7864 110.766 24.6526 111.453 23.4305C111.869 22.7101 112.81 20.1653 112.804 19.8197C112.804 19.7981 111.517 19.7773 109.953 19.8046L107.103 19.8544L106.627 20.8567C106.007 22.1858 104.488 23.5737 103.251 23.8978C101.992 24.2223 99.6558 24.2631 98.6857 23.9559C96.875 23.3824 95.1744 21.7482 94.63 20.0288C94.4939 19.599 94.3074 18.7379 94.1888 18.0917L93.9971 16.9281L112.962 16.597L113.081 16.0115C113.259 15.1873 112.973 12.2965 112.517 10.7269C111.328 6.49048 107.986 2.91833 104.151 1.79675C102.45 1.35107 99.9606 1.19995 98.2721 1.48877ZM103.297 6.89001C103.88 7.13916 104.619 7.70972 104.947 8.11462C105.691 8.96594 106.514 10.702 106.771 11.8861L106.936 12.726L94.0134 12.9515L94.1036 11.9775C94.2843 10.0511 96.02 7.55725 97.6794 6.83679C99.4878 6.04883 101.632 6.07629 103.297 6.89001ZM151.095 0.501953C146.071 1.25952 142.149 5.00171 140.763 10.3419C140.182 12.6211 140.231 16.7045 140.873 19.092C141.743 22.2751 143.391 24.5802 145.842 26.2014C148.205 27.7161 149.734 28.1216 153.013 28.0859C156.035 28.0548 157.21 27.8182 159.27 26.7234C161.033 25.8065 162.131 24.8149 163.218 23.2401C164.012 22.0593 165.043 19.7074 165.032 19.0809C165.029 18.9513 163.871 18.8851 162.221 18.9139L159.392 18.9633L158.771 20.2059C157.714 22.2988 156.037 23.2573 153.294 23.3053C150.765 23.3278 149.101 22.5573 147.847 20.7423C147.056 19.6108 146.426 17.8929 146.406 16.7697L146.394 16.0568L165.423 15.7245L165.389 13.7587C165.244 5.46289 158.643 -0.623901 151.095 0.501953ZM155.195 5.74634C157.03 6.4707 158.611 8.60413 159.036 10.8657L159.203 11.8137L146.323 12.0385L146.314 11.4768C146.297 10.5479 147.099 8.56738 147.917 7.55896C149.597 5.52002 152.713 4.73083 155.195 5.74634ZM175.184 0.14624C170.951 0.825195 168.026 2.71313 167.022 5.41028C166.632 6.38953 166.685 9.39246 167.109 10.3574C167.982 12.46 169.679 13.8999 172.158 14.7209C172.891 14.9675 175.022 15.4706 176.894 15.8701C181.778 16.9086 183.227 17.618 183.554 19.1466C184.046 21.5583 181.863 22.9579 177.83 22.8337C174.613 22.7386 173.095 21.7279 172.475 19.34L172.336 18.7373L166.314 18.8424L166.486 20.0928C166.975 23.5635 169.378 26.1364 173.234 27.2576C174.527 27.6456 175.365 27.7174 177.915 27.6729C181.408 27.6335 182.668 27.3738 185.006 26.2094C186.132 25.6494 186.915 25.0522 187.756 24.1084C189.27 22.3964 189.737 20.9187 189.566 18.5013C189.424 16.5157 188.934 15.4655 187.605 14.192C186.121 12.7268 184.438 12.0863 179.511 11.0486C175.552 10.2317 174.517 9.88245 173.582 9.09912C172.929 8.54871 172.818 8.29126 172.804 7.51355C172.786 6.45508 173.037 6.12646 174.312 5.45593C175.373 4.87561 178.695 4.81763 180.012 5.35645C181.113 5.79102 181.965 6.70544 182.196 7.65222L182.357 8.31934L188.572 8.21082L188.403 7.1333C187.896 3.87903 184.888 1.03577 181.125 0.323486C179.468 -0.036499 176.723 -0.0966797 175.184 0.14624ZM132.334 1.47766C132.25 1.56555 132.29 7.5509 132.417 14.788L132.645 27.9012L138.624 27.7969L138.351 14.5763L138.056 1.37781L135.269 1.36169C133.725 1.34534 132.419 1.41138 132.334 1.47766ZM114.479 15.0579L114.709 28.2144L120.645 28.1107L120.587 19.8999L120.508 11.6896L121.046 10.578C122.04 8.5509 124.208 7.54065 128.359 7.07922L129.835 6.92383L129.742 1.54456L127.365 1.69409C124.603 1.87195 123.196 2.35034 121.27 3.76697L120.042 4.65283L119.992 1.77954L114.228 1.88025L114.458 15.0582L114.479 15.0579Z" fill="#FFFFFF" fill-opacity="1.000000" fill-rule="nonzero"/>
</svg>
